SplineFontDB: 3.2
FontName: Confidential
FullName: Confidential
FamilyName: Confidential
Weight: Book
Copyright: I992 Letterror, Just van Rossum 
Version: Converted from e:\_downl~1\fonts\_\CONFID~1.TF1 by ALLTYPE
ItalicAngle: 0
UnderlinePosition: -105
UnderlineWidth: 50
Ascent: 800
Descent: 200
InvalidEm: 0
sfntRevision: 0x00000000
LayerCount: 2
Layer: 0 1 "Hinten" 1
Layer: 1 1 "Vorne" 0
XUID: [1021 445 1007910103 5658]
StyleMap: 0x0040
FSType: 4
OS2Version: 0
OS2_WeightWidthSlopeOnly: 0
OS2_UseTypoMetrics: 0
CreationTime: -2082844800
ModificationTime: 1755021659
PfmFamily: 81
TTFWeight: 400
TTFWidth: 5
LineGap: 150
VLineGap: 0
Panose: 0 0 0 0 0 0 0 0 0 0
OS2TypoAscent: 777
OS2TypoAOffset: 0
OS2TypoDescent: -42
OS2TypoDOffset: 0
OS2TypoLinegap: 150
OS2WinAscent: 786
OS2WinAOffset: 0
OS2WinDescent: 95
OS2WinDOffset: 0
HheadAscent: 786
HheadAOffset: 0
HheadDescent: -95
HheadDOffset: 0
OS2SubXSize: 750
OS2SubYSize: 750
OS2SubXOff: 0
OS2SubYOff: 200
OS2SupXSize: 750
OS2SupYSize: 750
OS2SupXOff: 0
OS2SupYOff: 300
OS2StrikeYSize: 50
OS2StrikeYPos: 262
OS2Vendor: 'ATEC'
OS2UnicodeRanges: 00000000.00000000.00000000.00000000
Lookup: 258 0 0 "'kern' Horizontale Unterschneidung in Lateinisch Nachschlagetabelle 0" { "'kern' Horizontale Unterschneidung in Lateinisch Nachschlagetabelle 0 Subtabelle"  } ['kern' ('DFLT' <'dflt' > 'latn' <'dflt' > ) ]
DEI: 91125
TtTable: prep
PUSHW_1
 511
SCANCTRL
EndTTInstrs
TtTable: fpgm
PUSHB_1
 0
FDEF
DUP
MDAP[rnd]
PUSHB_1
 2
CINDEX
SHP[rp1]
ROLL
PUSHW_1
 4096
MUL
PUSHB_1
 2
SWAP
WCVTF
PUSHB_1
 2
RCVT
DUP
PUSHB_1
 4
CINDEX
PUSHB_1
 4
CINDEX
MD[grid]
SUB
ABS
PUSHB_1
 64
LT
IF
PUSHB_1
 3
CINDEX
SWAP
MSIRP[no-rp0]
ELSE
POP
EIF
POP
PUSHB_1
 1
SWAP
WS
DUP
IF
SLOOP
ALIGNRP
ELSE
POP
EIF
PUSHB_1
 1
RS
SRP0
DUP
IF
SLOOP
ALIGNRP
ELSE
POP
EIF
ENDF
PUSHB_1
 1
FDEF
MDRP[grey]
ENDF
EndTTInstrs
ShortTable: cvt  8
  757
  755
  1000
  -3298
  0
  -18500
  -17749
  -16896
EndShort
ShortTable: maxp 16
  1
  0
  399
  217
  8
  217
  8
  1
  0
  2
  2
  1
  868

StartChar: exclam
Encoding: 33 33 4
Width: 321
GlyphClass: 1
Flags: W
LayerCount: 2
Fore
SplineSet
215 22 m 1,0,-1
 187 -4 l 1,1,-1
 134 -5 l 1,2,-1
 108 20 l 1,3,-1
 107 69 l 1,4,-1
 145 102 l 1,5,-1
 192 89 l 1,6,-1
 214 64 l 1,7,-1
 215 22 l 1,8,-1
 215 22 l 1,0,-1
212 439 m 1,9,-1
 210 204 l 1,10,-1
 197 185 l 1,11,-1
 165 177 l 1,12,-1
 144 177 l 1,13,-1
 117 209 l 1,14,-1
 112 664 l 1,15,-1
 124 718 l 1,16,-1
 152 740 l 1,17,-1
 177 740 l 1,18,-1
 206 692 l 1,19,-1
 212 439 l 1,20,-1
 212 439 l 1,9,-1
EndSplineSet
EndChar

StartChar: quotedbl
Encoding: 34 34 5
Width: 473
GlyphClass: 1
Flags: W
LayerCount: 2
Fore
SplineSet
214 702 m 1,0,-1
 204 626 l 1,1,-1
 184 537 l 1,2,-1
 163 515 l 1,3,-1
 124 514 l 1,4,-1
 95 542 l 1,5,-1
 101 581 l 1,6,-1
 117 664 l 1,7,-1
 123 710 l 1,8,-1
 141 732 l 1,9,-1
 176 732 l 1,10,-1
 214 702 l 1,11,-1
 214 702 l 1,0,-1
388 702 m 1,12,-1
 378 626 l 1,13,-1
 358 537 l 1,14,-1
 337 515 l 1,15,-1
 298 514 l 1,16,-1
 269 542 l 1,17,-1
 275 581 l 1,18,-1
 291 664 l 1,19,-1
 297 710 l 1,20,-1
 315 732 l 1,21,-1
 350 732 l 1,22,-1
 388 702 l 1,23,-1
 388 702 l 1,12,-1
EndSplineSet
EndChar

StartChar: numbersign
Encoding: 35 35 6
Width: 500
GlyphClass: 1
Flags: W
LayerCount: 2
Fore
SplineSet
439 639 m 1,0,-1
 406 550 l 1,1,-1
 407 497 l 1,2,-1
 428 479 l 1,3,-1
 429 432 l 1,4,-1
 376 396 l 1,5,-1
 364 342 l 1,6,-1
 378 329 l 1,7,-1
 411 322 l 1,8,-1
 432 290 l 1,9,-1
 426 258 l 1,10,-1
 387 243 l 1,11,-1
 347 242 l 1,12,-1
 327 221 l 1,13,-1
 321 174 l 1,14,-1
 301 120 l 1,15,-1
 296 52 l 1,16,-1
 278 12 l 1,17,-1
 243 -9 l 1,18,-1
 218 -3 l 1,19,-1
 177 50 l 1,20,-1
 137 -12 l 1,21,-1
 90 -6 l 1,22,-1
 57 28 l 1,23,-1
 63 68 l 1,24,-1
 74 89 l 1,25,-1
 86 155 l 1,26,-1
 113 202 l 1,27,-1
 112 237 l 1,28,-1
 77 269 l 1,29,-1
 76 303 l 1,30,-1
 97 322 l 1,31,-1
 129 330 l 1,32,-1
 163 370 l 1,33,-1
 169 426 l 1,34,-1
 162 431 l 1,35,-1
 148 431 l 1,36,-1
 134 412 l 1,37,-1
 102 411 l 1,38,-1
 95 404 l 1,39,-1
 80 464 l 1,40,-1
 79 478 l 1,41,-1
 114 504 l 1,42,-1
 160 498 l 1,43,-1
 192 534 l 1,44,-1
 198 588 l 1,45,-1
 216 695 l 1,46,-1
 248 728 l 1,47,-1
 281 729 l 1,48,-1
 309 697 l 1,49,-1
 296 669 l 1,50,-1
 297 629 l 1,51,-1
 279 601 l 1,52,-1
 284 569 l 1,53,-1
 274 529 l 1,54,-1
 274 515 l 1,55,-1
 293 494 l 1,56,-1
 320 509 l 1,57,-1
 341 509 l 1,58,-1
 346 516 l 1,59,-1
 320 548 l 1,60,-1
 332 637 l 1,61,-1
 356 710 l 1,62,-1
 376 724 l 1,63,-1
 416 725 l 1,64,-1
 424 658 l 1,65,-1
 439 639 l 1,66,-1
 439 639 l 1,0,-1
233 232 m 1,67,-1
 220 232 l 1,68,-1
 206 218 l 1,69,-1
 206 192 l 1,70,-1
 186 157 l 1,71,-1
 195 97 l 1,72,-1
 215 118 l 1,73,-1
 233 232 l 1,74,-1
 233 232 l 1,67,-1
289 348 m 1,75,-1
 289 362 l 1,76,-1
 277 373 l 1,77,-1
 282 441 l 1,78,-1
 261 447 l 1,79,-1
 255 414 l 1,80,-1
 235 353 l 1,81,-1
 250 333 l 1,82,-1
 271 326 l 1,83,-1
 289 348 l 1,84,-1
 289 348 l 1,75,-1
EndSplineSet
EndChar

StartChar: dollar
Encoding: 36 36 7
Width: 500
GlyphClass: 1
Flags: W
LayerCount: 2
Fore
SplineSet
424 195 m 1,0,-1
 374 66 l 1,1,-1
 339 46 l 1,2,-1
 307 39 l 1,3,-1
 280 -9 l 1,4,-1
 240 -9 l 1,5,-1
 207 43 l 1,6,-1
 164 61 l 1,7,-1
 117 113 l 1,8,-1
 101 174 l 1,9,-1
 114 220 l 1,10,-1
 128 235 l 1,11,-1
 149 235 l 1,12,-1
 175 203 l 1,13,-1
 197 183 l 1,14,-1
 190 157 l 1,15,-1
 204 143 l 1,16,-1
 216 158 l 1,17,-1
 213 276 l 1,18,-1
 212 330 l 1,19,-1
 179 364 l 1,20,-1
 165 363 l 1,21,-1
 117 416 l 1,22,-1
 116 476 l 1,23,-1
 115 509 l 1,24,-1
 113 583 l 1,25,-1
 127 598 l 1,26,-1
 133 651 l 1,27,-1
 158 677 l 1,28,-1
 193 664 l 1,29,-1
 212 665 l 1,30,-1
 225 679 l 1,31,-1
 218 686 l 1,32,-1
 238 740 l 1,33,-1
 263 754 l 1,34,-1
 291 741 l 1,35,-1
 299 708 l 1,36,-1
 299 701 l 1,37,-1
 313 688 l 1,38,-1
 346 695 l 1,39,-1
 372 656 l 1,40,-1
 373 636 l 1,41,-1
 348 614 l 1,42,-1
 294 634 l 1,43,-1
 273 633 l 1,44,-1
 258 654 l 1,45,-1
 254 661 l 1,46,-1
 213 618 l 1,47,-1
 173 617 l 1,48,-1
 166 610 l 1,49,-1
 181 571 l 1,50,-1
 182 545 l 1,51,-1
 196 532 l 1,52,-1
 221 558 l 1,53,-1
 227 593 l 1,54,-1
 259 607 l 1,55,-1
 280 608 l 1,56,-1
 302 580 l 1,57,-1
 289 548 l 1,58,-1
 289 513 l 1,59,-1
 276 494 l 1,60,-1
 276 473 l 1,61,-1
 298 459 l 1,62,-1
 313 406 l 1,63,-1
 346 393 l 1,64,-1
 367 382 l 1,65,-1
 393 341 l 1,66,-1
 422 288 l 1,67,-1
 424 195 l 1,68,-1
 424 195 l 1,0,-1
325 179 m 1,69,-1
 315 299 l 1,70,-1
 308 299 l 1,71,-1
 316 246 l 1,72,-1
 289 217 l 1,73,-1
 318 171 l 1,74,-1
 325 179 l 1,75,-1
 325 179 l 1,69,-1
209 478 m 1,76,-1
 208 492 l 1,77,-1
 189 511 l 1,78,-1
 176 492 l 1,79,-1
 190 478 l 1,80,-1
 209 478 l 1,81,-1
 209 478 l 1,76,-1
416 562 m 1,82,-1
 389 543 l 1,83,-1
 374 561 l 1,84,-1
 342 560 l 1,85,-1
 335 567 l 1,86,-1
 335 574 l 1,87,-1
 387 603 l 1,88,-1
 401 604 l 1,89,-1
 416 590 l 1,90,-1
 416 562 l 1,91,-1
 416 562 l 1,82,-1
EndSplineSet
EndChar

StartChar: percent
Encoding: 37 37 8
Width: 500
GlyphClass: 1
Flags: W
LayerCount: 2
Fore
SplineSet
369 694 m 1,0,-1
 356 654 l 1,1,-1
 353 594 l 1,2,-1
 339 579 l 1,3,-1
 333 526 l 1,4,-1
 320 511 l 1,5,-1
 307 451 l 1,6,-1
 289 425 l 1,7,-1
 283 371 l 1,8,-1
 283 350 l 1,9,-1
 238 289 l 1,10,-1
 232 249 l 1,11,-1
 211 216 l 1,12,-1
 205 188 l 1,13,-1
 198 188 l 1,14,-1
 194 181 l 1,15,-1
 206 160 l 1,16,-1
 200 81 l 1,17,-1
 182 60 l 1,18,-1
 176 20 l 1,19,-1
 155 6 l 1,20,-1
 130 12 l 1,21,-1
 128 73 l 1,22,-1
 152 148 l 1,23,-1
 179 202 l 1,24,-1
 185 241 l 1,25,-1
 217 302 l 1,26,-1
 216 342 l 1,27,-1
 243 389 l 1,28,-1
 242 417 l 1,29,-1
 254 431 l 1,30,-1
 260 485 l 1,31,-1
 293 553 l 1,32,-1
 304 593 l 1,33,-1
 303 632 l 1,34,-1
 344 693 l 1,35,-1
 369 694 l 1,36,-1
 369 694 l 1,0,-1
427 125 m 1,37,-1
 423 125 l 1,38,-1
 423 106 l 1,39,-1
 424 79 l 1,40,-1
 397 25 l 1,41,-1
 383 10 l 1,42,-1
 344 10 l 1,43,-1
 303 51 l 1,44,-1
 318 230 l 1,45,-1
 331 265 l 1,46,-1
 359 266 l 1,47,-1
 360 231 l 1,48,-1
 341 137 l 1,49,-1
 356 91 l 1,50,-1
 368 70 l 1,51,-1
 389 71 l 1,52,-1
 402 111 l 1,53,-1
 408 146 l 1,54,-1
 415 153 l 1,55,-1
 394 171 l 1,56,-1
 393 231 l 1,57,-1
 386 238 l 1,58,-1
 399 239 l 1,59,-1
 426 214 l 1,60,-1
 427 125 l 1,61,-1
 427 125 l 1,37,-1
212 523 m 1,62,-1
 206 491 l 1,63,-1
 192 476 l 1,64,-1
 167 476 l 1,65,-1
 153 462 l 1,66,-1
 121 461 l 1,67,-1
 85 507 l 1,68,-1
 84 553 l 1,69,-1
 104 575 l 1,70,-1
 104 582 l 1,71,-1
 125 561 l 1,72,-1
 126 529 l 1,73,-1
 133 522 l 1,74,-1
 145 522 l 1,75,-1
 172 555 l 1,76,-1
 178 609 l 1,77,-1
 190 609 l 1,78,-1
 197 604 l 1,79,-1
 186 569 l 1,80,-1
 179 562 l 1,81,-1
 212 523 l 1,82,-1
 212 523 l 1,62,-1
111 607 m 1,83,-1
 97 607 l 1,84,-1
 89 628 l 1,85,-1
 96 628 l 1,86,-1
 110 614 l 1,87,-1
 111 607 l 1,88,-1
 111 607 l 1,83,-1
203 644 m 1,89,-1
 189 644 l 1,90,-1
 188 669 l 1,91,-1
 195 669 l 1,92,-1
 203 663 l 1,93,-1
 203 644 l 1,94,-1
 203 644 l 1,89,-1
148 710 m 1,95,-1
 129 710 l 1,96,-1
 129 729 l 1,97,-1
 134 736 l 1,98,-1
 141 736 l 1,99,-1
 148 729 l 1,100,-1
 148 710 l 1,101,-1
 148 710 l 1,95,-1
EndSplineSet
EndChar

StartChar: ampersand
Encoding: 38 38 9
Width: 500
GlyphClass: 1
Flags: W
LayerCount: 2
Fore
SplineSet
450 25 m 1,0,-1
 432 -3 l 1,1,-1
 358 -5 l 1,2,-1
 318 22 l 1,3,-1
 271 8 l 1,4,-1
 169 -2 l 1,5,-1
 96 64 l 1,6,-1
 74 96 l 1,7,-1
 72 196 l 1,8,-1
 70 278 l 1,9,-1
 70 303 l 1,10,-1
 107 392 l 1,11,-1
 121 407 l 1,12,-1
 112 467 l 1,13,-1
 93 485 l 1,14,-1
 85 552 l 1,15,-1
 117 586 l 1,16,-1
 123 607 l 1,17,-1
 123 614 l 1,18,-1
 95 627 l 1,19,-1
 83 652 l 1,20,-1
 94 687 l 1,21,-1
 160 728 l 1,22,-1
 167 729 l 1,23,-1
 182 701 l 1,24,-1
 214 695 l 1,25,-1
 228 723 l 1,26,-1
 249 730 l 1,27,-1
 267 731 l 1,28,-1
 289 710 l 1,29,-1
 296 671 l 1,30,-1
 311 657 l 1,31,-1
 336 672 l 1,32,-1
 343 665 l 1,33,-1
 343 658 l 1,34,-1
 316 644 l 1,35,-1
 316 639 l 1,36,-1
 337 618 l 1,37,-1
 365 619 l 1,38,-1
 377 598 l 1,39,-1
 360 526 l 1,40,-1
 320 464 l 1,41,-1
 301 457 l 1,42,-1
 267 421 l 1,43,-1
 249 389 l 1,44,-1
 250 361 l 1,45,-1
 284 303 l 1,46,-1
 306 236 l 1,47,-1
 306 215 l 1,48,-1
 314 208 l 1,49,-1
 325 209 l 1,50,-1
 359 270 l 1,51,-1
 398 278 l 1,52,-1
 419 278 l 1,53,-1
 434 246 l 1,54,-1
 414 192 l 1,55,-1
 414 171 l 1,56,-1
 383 96 l 1,57,-1
 410 71 l 1,58,-1
 442 72 l 1,59,-1
 450 44 l 1,60,-1
 450 25 l 1,61,-1
 450 25 l 1,0,-1
262 107 m 1,62,-1
 262 121 l 1,63,-1
 213 220 l 1,64,-1
 191 287 l 1,65,-1
 177 301 l 1,66,-1
 163 301 l 1,67,-1
 156 279 l 1,68,-1
 154 151 l 1,69,-1
 167 119 l 1,70,-1
 195 92 l 1,71,-1
 242 86 l 1,72,-1
 262 107 l 1,73,-1
 262 107 l 1,62,-1
285 564 m 1,74,-1
 284 610 l 1,75,-1
 229 676 l 1,76,-1
 204 648 l 1,77,-1
 190 648 l 1,78,-1
 169 661 l 1,79,-1
 161 682 l 1,80,-1
 175 694 l 1,81,-1
 161 694 l 1,82,-1
 161 682 l 1,83,-1
 143 647 l 1,84,-1
 156 607 l 1,85,-1
 165 522 l 1,86,-1
 207 488 l 1,87,-1
 254 489 l 1,88,-1
 253 524 l 1,89,-1
 285 564 l 1,90,-1
 285 564 l 1,74,-1
EndSplineSet
EndChar

StartChar: quotesingle
Encoding: 39 39 10
Width: 263
GlyphClass: 1
Flags: W
LayerCount: 2
Fore
SplineSet
191 702 m 1,0,-1
 181 626 l 1,1,-1
 161 537 l 1,2,-1
 140 515 l 1,3,-1
 101 514 l 1,4,-1
 72 542 l 1,5,-1
 78 581 l 1,6,-1
 94 664 l 1,7,-1
 100 710 l 1,8,-1
 118 732 l 1,9,-1
 153 732 l 1,10,-1
 191 702 l 1,11,-1
 191 702 l 1,0,-1
EndSplineSet
EndChar

StartChar: parenleft
Encoding: 40 40 11
Width: 368
GlyphClass: 1
Flags: W
LayerCount: 2
Fore
SplineSet
321 -57 m 1,0,-1
 293 -95 l 1,1,-1
 252 -91 l 1,2,-1
 243 -78 l 1,3,-1
 214 -76 l 1,4,-1
 196 -64 l 1,5,-1
 178 -24 l 1,6,-1
 160 -12 l 1,7,-1
 149 11 l 1,8,-1
 145 18 l 1,9,-1
 136 18 l 1,10,-1
 131 37 l 1,11,-1
 110 66 l 1,12,-1
 99 96 l 1,13,-1
 92 155 l 1,14,-1
 95 212 l 1,15,-1
 80 300 l 1,16,-1
 71 372 l 1,17,-1
 74 425 l 1,18,-1
 77 488 l 1,19,-1
 95 574 l 1,20,-1
 101 583 l 1,21,-1
 102 594 l 1,22,-1
 98 599 l 1,23,-1
 104 609 l 1,24,-1
 107 637 l 1,25,-1
 125 682 l 1,26,-1
 138 701 l 1,27,-1
 143 705 l 1,28,-1
 154 730 l 1,29,-1
 188 754 l 1,30,-1
 202 771 l 1,31,-1
 242 784 l 1,32,-1
 285 786 l 1,33,-1
 308 771 l 1,34,-1
 317 749 l 1,35,-1
 310 720 l 1,36,-1
 296 704 l 1,37,-1
 249 687 l 1,38,-1
 212 622 l 1,39,-1
 194 591 l 1,40,-1
 181 535 l 1,41,-1
 184 528 l 1,42,-1
 181 509 l 1,43,-1
 172 489 l 1,44,-1
 166 460 l 1,45,-1
 170 413 l 1,46,-1
 166 341 l 1,47,-1
 161 289 l 1,48,-1
 170 236 l 1,49,-1
 172 181 l 1,50,-1
 182 137 l 1,51,-1
 193 119 l 1,52,-1
 195 88 l 1,53,-1
 233 27 l 1,54,-1
 283 8 l 1,55,-1
 311 -28 l 1,56,-1
 321 -57 l 1,57,-1
 321 -57 l 1,0,-1
EndSplineSet
EndChar

StartChar: parenright
Encoding: 41 41 12
Width: 368
GlyphClass: 1
Flags: W
LayerCount: 2
Fore
SplineSet
301 372 m 1,0,-1
 293 300 l 1,1,-1
 277 213 l 1,2,-1
 281 156 l 1,3,-1
 272 96 l 1,4,-1
 260 65 l 1,5,-1
 242 37 l 1,6,-1
 237 18 l 1,7,-1
 226 18 l 1,8,-1
 221 12 l 1,9,-1
 212 -13 l 1,10,-1
 193 -26 l 1,11,-1
 175 -65 l 1,12,-1
 157 -76 l 1,13,-1
 131 -78 l 1,14,-1
 122 -91 l 1,15,-1
 82 -95 l 1,16,-1
 53 -56 l 1,17,-1
 60 -29 l 1,18,-1
 90 8 l 1,19,-1
 139 26 l 1,20,-1
 178 90 l 1,21,-1
 179 119 l 1,22,-1
 191 138 l 1,23,-1
 200 181 l 1,24,-1
 202 236 l 1,25,-1
 211 289 l 1,26,-1
 207 341 l 1,27,-1
 202 413 l 1,28,-1
 206 461 l 1,29,-1
 199 489 l 1,30,-1
 191 509 l 1,31,-1
 188 534 l 1,32,-1
 192 538 l 1,33,-1
 179 590 l 1,34,-1
 161 622 l 1,35,-1
 124 687 l 1,36,-1
 75 704 l 1,37,-1
 61 719 l 1,38,-1
 55 749 l 1,39,-1
 65 772 l 1,40,-1
 86 786 l 1,41,-1
 130 784 l 1,42,-1
 167 772 l 1,43,-1
 187 750 l 1,44,-1
 217 730 l 1,45,-1
 229 704 l 1,46,-1
 234 698 l 1,47,-1
 246 680 l 1,48,-1
 264 638 l 1,49,-1
 268 611 l 1,50,-1
 271 584 l 1,51,-1
 276 573 l 1,52,-1
 295 488 l 1,53,-1
 298 425 l 1,54,-1
 301 372 l 1,55,-1
 301 372 l 1,0,-1
EndSplineSet
EndChar

StartChar: asterisk
Encoding: 42 42 13
Width: 500
GlyphClass: 1
Flags: W
LayerCount: 2
Fore
SplineSet
457 570 m 1,0,-1
 443 548 l 1,1,-1
 444 530 l 1,2,-1
 430 516 l 1,3,-1
 377 507 l 1,4,-1
 370 500 l 1,5,-1
 420 441 l 1,6,-1
 414 394 l 1,7,-1
 361 393 l 1,8,-1
 318 439 l 1,9,-1
 300 420 l 1,10,-1
 294 366 l 1,11,-1
 266 344 l 1,12,-1
 227 350 l 1,13,-1
 204 417 l 1,14,-1
 199 422 l 1,15,-1
 133 395 l 1,16,-1
 97 408 l 1,17,-1
 97 448 l 1,18,-1
 144 502 l 1,19,-1
 144 509 l 1,20,-1
 83 522 l 1,21,-1
 69 521 l 1,22,-1
 55 533 l 1,23,-1
 54 561 l 1,24,-1
 68 575 l 1,25,-1
 135 588 l 1,26,-1
 147 602 l 1,27,-1
 105 676 l 1,28,-1
 105 683 l 1,29,-1
 119 697 l 1,30,-1
 151 691 l 1,31,-1
 194 657 l 1,32,-1
 213 650 l 1,33,-1
 226 671 l 1,34,-1
 225 718 l 1,35,-1
 250 753 l 1,36,-1
 264 754 l 1,37,-1
 285 733 l 1,38,-1
 294 666 l 1,39,-1
 301 659 l 1,40,-1
 333 674 l 1,41,-1
 372 707 l 1,42,-1
 400 708 l 1,43,-1
 419 676 l 1,44,-1
 415 648 l 1,45,-1
 368 600 l 1,46,-1
 368 589 l 1,47,-1
 422 569 l 1,48,-1
 457 570 l 1,49,-1
 457 570 l 1,0,-1
EndSplineSet
EndChar

StartChar: plus
Encoding: 43 43 14
Width: 500
GlyphClass: 1
Flags: W
LayerCount: 2
Fore
SplineSet
421 390 m 1,0,-1
 415 350 l 1,1,-1
 383 324 l 1,2,-1
 315 322 l 1,3,-1
 302 308 l 1,4,-1
 304 215 l 1,5,-1
 265 186 l 1,6,-1
 237 185 l 1,7,-1
 211 217 l 1,8,-1
 209 306 l 1,9,-1
 187 326 l 1,10,-1
 108 329 l 1,11,-1
 87 350 l 1,12,-1
 93 389 l 1,13,-1
 113 411 l 1,14,-1
 167 419 l 1,15,-1
 185 419 l 1,16,-1
 199 433 l 1,17,-1
 204 520 l 1,18,-1
 229 548 l 1,19,-1
 278 549 l 1,20,-1
 297 529 l 1,21,-1
 306 448 l 1,22,-1
 306 429 l 1,23,-1
 334 416 l 1,24,-1
 406 410 l 1,25,-1
 421 390 l 1,26,-1
 421 390 l 1,0,-1
EndSplineSet
EndChar

StartChar: comma
Encoding: 44 44 15
Width: 235
GlyphClass: 1
Flags: W
LayerCount: 2
Fore
SplineSet
176 62 m 1,0,-1
 138 -6 l 1,1,-1
 117 -28 l 1,2,-1
 78 -29 l 1,3,-1
 49 -1 l 1,4,-1
 55 38 l 1,5,-1
 89 100 l 1,6,-1
 95 146 l 1,7,-1
 113 168 l 1,8,-1
 148 168 l 1,9,-1
 174 141 l 1,10,-1
 176 62 l 1,11,-1
 176 62 l 1,0,-1
EndSplineSet
EndChar

StartChar: hyphen
Encoding: 45 45 16
Width: 500
GlyphClass: 1
Flags: W
LayerCount: 2
Fore
SplineSet
412 345 m 1,0,-1
 391 323 l 1,1,-1
 157 318 l 1,2,-1
 110 324 l 1,3,-1
 103 324 l 1,4,-1
 81 344 l 1,5,-1
 81 377 l 1,6,-1
 101 398 l 1,7,-1
 182 414 l 1,8,-1
 389 405 l 1,9,-1
 411 391 l 1,10,-1
 412 345 l 1,11,-1
 412 345 l 1,0,-1
EndSplineSet
EndChar

StartChar: period
Encoding: 46 46 17
Width: 302
GlyphClass: 1
Flags: W
LayerCount: 2
Fore
SplineSet
230 28 m 1,0,-1
 182 -15 l 1,1,-1
 117 -17 l 1,2,-1
 89 11 l 1,3,-1
 74 57 l 1,4,-1
 87 92 l 1,5,-1
 126 125 l 1,6,-1
 153 133 l 1,7,-1
 193 113 l 1,8,-1
 229 81 l 1,9,-1
 230 28 l 1,10,-1
 230 28 l 1,0,-1
EndSplineSet
EndChar

StartChar: slash
Encoding: 47 47 18
Width: 427
GlyphClass: 1
Flags: W
LayerCount: 2
Fore
SplineSet
366 683 m 1,0,-1
 352 657 l 1,1,-1
 340 569 l 1,2,-1
 303 475 l 1,3,-1
 297 435 l 1,4,-1
 247 278 l 1,5,-1
 203 144 l 1,6,-1
 179 69 l 1,7,-1
 160 2 l 1,8,-1
 128 -18 l 1,9,-1
 79 -7 l 1,10,-1
 77 53 l 1,11,-1
 127 210 l 1,12,-1
 167 311 l 1,13,-1
 191 391 l 1,14,-1
 190 419 l 1,15,-1
 211 440 l 1,16,-1
 217 487 l 1,17,-1
 234 527 l 1,18,-1
 253 613 l 1,19,-1
 284 695 l 1,20,-1
 311 717 l 1,21,-1
 337 717 l 1,22,-1
 366 683 l 1,23,-1
 366 683 l 1,0,-1
EndSplineSet
EndChar

StartChar: zero
Encoding: 48 48 19
Width: 500
GlyphClass: 1
Flags: W
LayerCount: 2
Fore
SplineSet
411 296 m 1,0,-1
 405 236 l 1,1,-1
 406 210 l 1,2,-1
 408 103 l 1,3,-1
 363 35 l 1,4,-1
 290 -2 l 1,5,-1
 196 3 l 1,6,-1
 142 44 l 1,7,-1
 99 96 l 1,8,-1
 87 128 l 1,9,-1
 93 357 l 1,10,-1
 91 450 l 1,11,-1
 101 631 l 1,12,-1
 139 699 l 1,13,-1
 187 733 l 1,14,-1
 286 749 l 1,15,-1
 305 750 l 1,16,-1
 360 698 l 1,17,-1
 396 638 l 1,18,-1
 390 598 l 1,19,-1
 390 577 l 1,20,-1
 405 564 l 1,21,-1
 405 538 l 1,22,-1
 385 524 l 1,23,-1
 400 477 l 1,24,-1
 409 357 l 1,25,-1
 396 342 l 1,26,-1
 411 296 l 1,27,-1
 411 296 l 1,0,-1
326 462 m 1,28,-1
 324 522 l 1,29,-1
 323 555 l 1,30,-1
 322 608 l 1,31,-1
 289 642 l 1,32,-1
 268 642 l 1,33,-1
 249 649 l 1,34,-1
 201 613 l 1,35,-1
 202 559 l 1,36,-1
 192 494 l 1,37,-1
 189 326 l 1,38,-1
 191 231 l 1,39,-1
 193 145 l 1,40,-1
 213 103 l 1,41,-1
 262 93 l 1,42,-1
 308 119 l 1,43,-1
 304 268 l 1,44,-1
 315 294 l 1,45,-1
 313 387 l 1,46,-1
 326 462 l 1,47,-1
 326 462 l 1,28,-1
EndSplineSet
EndChar

StartChar: one
Encoding: 49 49 20
Width: 500
GlyphClass: 1
Flags: W
LayerCount: 2
Fore
SplineSet
338 39 m 1,0,-1
 314 10 l 1,1,-1
 260 9 l 1,2,-1
 231 55 l 1,3,-1
 233 571 l 1,4,-1
 212 571 l 1,5,-1
 187 552 l 1,6,-1
 134 555 l 1,7,-1
 112 583 l 1,8,-1
 118 629 l 1,9,-1
 145 669 l 1,10,-1
 198 699 l 1,11,-1
 236 739 l 1,12,-1
 257 746 l 1,13,-1
 304 740 l 1,14,-1
 323 715 l 1,15,-1
 318 641 l 1,16,-1
 318 620 l 1,17,-1
 334 527 l 1,18,-1
 338 39 l 1,19,-1
 338 39 l 1,0,-1
EndSplineSet
EndChar

StartChar: two
Encoding: 50 50 21
Width: 500
GlyphClass: 1
Flags: W
LayerCount: 2
Fore
SplineSet
419 592 m 1,0,-1
 406 552 l 1,1,-1
 367 449 l 1,2,-1
 264 254 l 1,3,-1
 260 226 l 1,4,-1
 233 200 l 1,5,-1
 206 145 l 1,6,-1
 202 117 l 1,7,-1
 214 106 l 1,8,-1
 374 110 l 1,9,-1
 410 83 l 1,10,-1
 411 29 l 1,11,-1
 377 0 l 1,12,-1
 116 -6 l 1,13,-1
 83 29 l 1,14,-1
 81 136 l 1,15,-1
 190 352 l 1,16,-1
 234 434 l 1,17,-1
 317 590 l 1,18,-1
 316 622 l 1,19,-1
 283 650 l 1,20,-1
 230 641 l 1,21,-1
 177 580 l 1,22,-1
 117 578 l 1,23,-1
 95 606 l 1,24,-1
 101 671 l 1,25,-1
 160 733 l 1,26,-1
 234 762 l 1,27,-1
 288 750 l 1,28,-1
 334 744 l 1,29,-1
 403 666 l 1,30,-1
 419 592 l 1,31,-1
 419 592 l 1,0,-1
EndSplineSet
EndChar

StartChar: three
Encoding: 51 51 22
Width: 500
GlyphClass: 1
Flags: W
LayerCount: 2
Fore
SplineSet
408 270 m 1,0,-1
 405 109 l 1,1,-1
 367 41 l 1,2,-1
 312 0 l 1,3,-1
 273 -15 l 1,4,-1
 180 -10 l 1,5,-1
 118 28 l 1,6,-1
 85 67 l 1,7,-1
 88 116 l 1,8,-1
 130 150 l 1,9,-1
 217 112 l 1,10,-1
 245 92 l 1,11,-1
 263 99 l 1,12,-1
 290 132 l 1,13,-1
 308 193 l 1,14,-1
 301 267 l 1,15,-1
 280 293 l 1,16,-1
 258 313 l 1,17,-1
 240 313 l 1,18,-1
 193 344 l 1,19,-1
 196 398 l 1,20,-1
 290 456 l 1,21,-1
 301 495 l 1,22,-1
 294 588 l 1,23,-1
 280 616 l 1,24,-1
 258 634 l 1,25,-1
 212 626 l 1,26,-1
 166 592 l 1,27,-1
 131 592 l 1,28,-1
 98 630 l 1,29,-1
 103 691 l 1,30,-1
 177 739 l 1,31,-1
 188 746 l 1,32,-1
 291 742 l 1,33,-1
 352 704 l 1,34,-1
 386 651 l 1,35,-1
 408 605 l 1,36,-1
 404 470 l 1,37,-1
 391 416 l 1,38,-1
 371 383 l 1,39,-1
 408 270 l 1,40,-1
 408 270 l 1,0,-1
EndSplineSet
EndChar

StartChar: four
Encoding: 52 52 23
Width: 500
GlyphClass: 1
Flags: W
LayerCount: 2
Fore
SplineSet
413 188 m 1,0,-1
 400 146 l 1,1,-1
 375 119 l 1,2,-1
 377 33 l 1,3,-1
 343 -2 l 1,4,-1
 317 4 l 1,5,-1
 296 4 l 1,6,-1
 263 35 l 1,7,-1
 254 96 l 1,8,-1
 240 116 l 1,9,-1
 140 121 l 1,10,-1
 104 153 l 1,11,-1
 102 260 l 1,12,-1
 134 363 l 1,13,-1
 144 442 l 1,14,-1
 149 524 l 1,15,-1
 149 542 l 1,16,-1
 169 578 l 1,17,-1
 175 610 l 1,18,-1
 196 632 l 1,19,-1
 195 650 l 1,20,-1
 213 686 l 1,21,-1
 226 739 l 1,22,-1
 246 754 l 1,23,-1
 293 748 l 1,24,-1
 312 721 l 1,25,-1
 303 599 l 1,26,-1
 291 546 l 1,27,-1
 240 398 l 1,28,-1
 227 377 l 1,29,-1
 222 304 l 1,30,-1
 204 262 l 1,31,-1
 205 237 l 1,32,-1
 230 237 l 1,33,-1
 261 298 l 1,34,-1
 273 399 l 1,35,-1
 307 432 l 1,36,-1
 340 426 l 1,37,-1
 368 394 l 1,38,-1
 384 227 l 1,39,-1
 413 188 l 1,40,-1
 413 188 l 1,0,-1
EndSplineSet
EndChar

StartChar: five
Encoding: 53 53 24
Width: 500
GlyphClass: 1
Flags: W
LayerCount: 2
Fore
SplineSet
415 248 m 1,0,-1
 403 127 l 1,1,-1
 379 66 l 1,2,-1
 306 18 l 1,3,-1
 199 15 l 1,4,-1
 138 46 l 1,5,-1
 126 67 l 1,6,-1
 97 106 l 1,7,-1
 96 152 l 1,8,-1
 123 181 l 1,9,-1
 170 175 l 1,10,-1
 236 109 l 1,11,-1
 285 124 l 1,12,-1
 309 164 l 1,13,-1
 307 271 l 1,14,-1
 298 366 l 1,15,-1
 265 391 l 1,16,-1
 225 390 l 1,17,-1
 184 350 l 1,18,-1
 145 342 l 1,19,-1
 124 341 l 1,20,-1
 98 380 l 1,21,-1
 103 462 l 1,22,-1
 109 502 l 1,23,-1
 107 569 l 1,24,-1
 93 587 l 1,25,-1
 91 683 l 1,26,-1
 104 729 l 1,27,-1
 157 752 l 1,28,-1
 257 740 l 1,29,-1
 277 754 l 1,30,-1
 310 767 l 1,31,-1
 331 760 l 1,32,-1
 335 760 l 1,33,-1
 357 742 l 1,34,-1
 358 696 l 1,35,-1
 344 681 l 1,36,-1
 258 679 l 1,37,-1
 198 678 l 1,38,-1
 177 657 l 1,39,-1
 174 510 l 1,40,-1
 195 490 l 1,41,-1
 283 492 l 1,42,-1
 337 467 l 1,43,-1
 397 387 l 1,44,-1
 415 248 l 1,45,-1
 415 248 l 1,0,-1
EndSplineSet
EndChar

StartChar: six
Encoding: 54 54 25
Width: 500
GlyphClass: 1
Flags: W
LayerCount: 2
Fore
SplineSet
435 281 m 1,0,-1
 427 139 l 1,1,-1
 393 70 l 1,2,-1
 362 30 l 1,3,-1
 281 10 l 1,4,-1
 201 19 l 1,5,-1
 154 53 l 1,6,-1
 104 131 l 1,7,-1
 96 480 l 1,8,-1
 109 508 l 1,9,-1
 100 580 l 1,10,-1
 88 626 l 1,11,-1
 91 661 l 1,12,-1
 139 735 l 1,13,-1
 150 749 l 1,14,-1
 210 771 l 1,15,-1
 291 766 l 1,16,-1
 371 728 l 1,17,-1
 393 694 l 1,18,-1
 387 661 l 1,19,-1
 362 633 l 1,20,-1
 313 638 l 1,21,-1
 287 666 l 1,22,-1
 254 665 l 1,23,-1
 199 624 l 1,24,-1
 183 535 l 1,25,-1
 198 496 l 1,26,-1
 316 485 l 1,27,-1
 359 465 l 1,28,-1
 407 406 l 1,29,-1
 435 281 l 1,30,-1
 435 281 l 1,0,-1
319 157 m 1,31,-1
 314 371 l 1,32,-1
 293 391 l 1,33,-1
 253 397 l 1,34,-1
 219 376 l 1,35,-1
 205 355 l 1,36,-1
 210 162 l 1,37,-1
 246 123 l 1,38,-1
 267 123 l 1,39,-1
 292 129 l 1,40,-1
 319 157 l 1,41,-1
 319 157 l 1,31,-1
EndSplineSet
EndChar

StartChar: seven
Encoding: 55 55 26
Width: 500
GlyphClass: 1
Flags: W
LayerCount: 2
Fore
SplineSet
412 740 m 1,0,-1
 407 654 l 1,1,-1
 393 625 l 1,2,-1
 377 511 l 1,3,-1
 364 485 l 1,4,-1
 358 425 l 1,5,-1
 338 403 l 1,6,-1
 314 317 l 1,7,-1
 281 255 l 1,8,-1
 251 127 l 1,9,-1
 207 26 l 1,10,-1
 193 11 l 1,11,-1
 154 11 l 1,12,-1
 125 38 l 1,13,-1
 131 105 l 1,14,-1
 164 178 l 1,15,-1
 207 328 l 1,16,-1
 238 415 l 1,17,-1
 237 443 l 1,18,-1
 264 483 l 1,19,-1
 274 544 l 1,20,-1
 294 598 l 1,21,-1
 321 624 l 1,22,-1
 325 666 l 1,23,-1
 306 684 l 1,24,-1
 232 664 l 1,25,-1
 187 602 l 1,26,-1
 126 601 l 1,27,-1
 105 626 l 1,28,-1
 103 721 l 1,29,-1
 116 740 l 1,30,-1
 151 762 l 1,31,-1
 298 744 l 1,32,-1
 337 745 l 1,33,-1
 358 760 l 1,34,-1
 390 760 l 1,35,-1
 412 740 l 1,36,-1
 412 740 l 1,0,-1
EndSplineSet
EndChar

StartChar: eight
Encoding: 56 56 27
Width: 500
GlyphClass: 1
Flags: W
LayerCount: 2
Fore
SplineSet
413 117 m 1,0,-1
 368 49 l 1,1,-1
 302 8 l 1,2,-1
 190 12 l 1,3,-1
 155 30 l 1,4,-1
 107 96 l 1,5,-1
 91 163 l 1,6,-1
 101 364 l 1,7,-1
 132 411 l 1,8,-1
 105 478 l 1,9,-1
 101 638 l 1,10,-1
 126 692 l 1,11,-1
 178 740 l 1,12,-1
 206 754 l 1,13,-1
 292 749 l 1,14,-1
 341 732 l 1,15,-1
 382 691 l 1,16,-1
 402 619 l 1,17,-1
 400 470 l 1,18,-1
 374 423 l 1,19,-1
 374 405 l 1,20,-1
 408 352 l 1,21,-1
 413 117 l 1,22,-1
 413 117 l 1,0,-1
308 322 m 1,23,-1
 294 354 l 1,24,-1
 240 360 l 1,25,-1
 201 326 l 1,26,-1
 205 152 l 1,27,-1
 220 113 l 1,28,-1
 234 113 l 1,29,-1
 241 106 l 1,30,-1
 294 121 l 1,31,-1
 306 140 l 1,32,-1
 308 322 l 1,33,-1
 308 322 l 1,23,-1
309 624 m 1,34,-1
 282 656 l 1,35,-1
 247 655 l 1,36,-1
 222 648 l 1,37,-1
 202 626 l 1,38,-1
 197 508 l 1,39,-1
 233 481 l 1,40,-1
 279 482 l 1,41,-1
 304 503 l 1,42,-1
 309 624 l 1,43,-1
 309 624 l 1,34,-1
EndSplineSet
EndChar

StartChar: nine
Encoding: 57 57 28
Width: 500
GlyphClass: 1
Flags: W
LayerCount: 2
Fore
SplineSet
433 203 m 1,0,-1
 419 189 l 1,1,-1
 421 121 l 1,2,-1
 389 74 l 1,3,-1
 343 33 l 1,4,-1
 283 11 l 1,5,-1
 216 17 l 1,6,-1
 162 43 l 1,7,-1
 119 96 l 1,8,-1
 125 135 l 1,9,-1
 159 162 l 1,10,-1
 192 158 l 1,11,-1
 227 131 l 1,12,-1
 281 118 l 1,13,-1
 313 154 l 1,14,-1
 317 293 l 1,15,-1
 316 307 l 1,16,-1
 195 312 l 1,17,-1
 141 336 l 1,18,-1
 100 409 l 1,19,-1
 99 463 l 1,20,-1
 96 584 l 1,21,-1
 95 637 l 1,22,-1
 146 718 l 1,23,-1
 199 747 l 1,24,-1
 267 748 l 1,25,-1
 271 755 l 1,26,-1
 320 742 l 1,27,-1
 387 683 l 1,28,-1
 401 658 l 1,29,-1
 404 537 l 1,30,-1
 425 242 l 1,31,-1
 432 222 l 1,32,-1
 433 203 l 1,33,-1
 433 203 l 1,0,-1
312 500 m 1,34,-1
 309 628 l 1,35,-1
 280 655 l 1,36,-1
 247 673 l 1,37,-1
 234 666 l 1,38,-1
 209 640 l 1,39,-1
 196 579 l 1,40,-1
 199 451 l 1,41,-1
 247 406 l 1,42,-1
 267 406 l 1,43,-1
 292 435 l 1,44,-1
 306 461 l 1,45,-1
 312 500 l 1,46,-1
 312 500 l 1,34,-1
EndSplineSet
EndChar

StartChar: colon
Encoding: 58 58 29
Width: 294
GlyphClass: 1
Flags: W
LayerCount: 2
Fore
SplineSet
215 88 m 1,0,-1
 209 42 l 1,1,-1
 177 8 l 1,2,-1
 117 14 l 1,3,-1
 76 66 l 1,4,-1
 93 120 l 1,5,-1
 139 147 l 1,6,-1
 193 130 l 1,7,-1
 215 88 l 1,8,-1
 215 88 l 1,0,-1
215 391 m 1,9,-1
 209 344 l 1,10,-1
 171 308 l 1,11,-1
 124 314 l 1,12,-1
 81 355 l 1,13,-1
 94 416 l 1,14,-1
 128 435 l 1,15,-1
 147 443 l 1,16,-1
 186 430 l 1,17,-1
 215 391 l 1,18,-1
 215 391 l 1,9,-1
EndSplineSet
EndChar

StartChar: semicolon
Encoding: 59 59 30
Width: 294
GlyphClass: 1
Flags: W
LayerCount: 2
Fore
SplineSet
197 35 m 1,0,-1
 159 -33 l 1,1,-1
 138 -55 l 1,2,-1
 99 -56 l 1,3,-1
 70 -28 l 1,4,-1
 76 11 l 1,5,-1
 110 73 l 1,6,-1
 116 119 l 1,7,-1
 134 141 l 1,8,-1
 169 141 l 1,9,-1
 195 114 l 1,10,-1
 197 35 l 1,11,-1
 197 35 l 1,0,-1
212 391 m 1,12,-1
 206 344 l 1,13,-1
 168 308 l 1,14,-1
 121 314 l 1,15,-1
 78 355 l 1,16,-1
 91 416 l 1,17,-1
 125 435 l 1,18,-1
 144 443 l 1,19,-1
 183 430 l 1,20,-1
 212 391 l 1,21,-1
 212 391 l 1,12,-1
EndSplineSet
EndChar

StartChar: less
Encoding: 60 60 31
Width: 500
GlyphClass: 1
Flags: W
LayerCount: 2
Fore
SplineSet
380 557 m 1,0,-1
 368 528 l 1,1,-1
 368 512 l 1,2,-1
 360 507 l 1,3,-1
 339 492 l 1,4,-1
 325 479 l 1,5,-1
 292 455 l 1,6,-1
 272 446 l 1,7,-1
 261 440 l 1,8,-1
 217 404 l 1,9,-1
 169 371 l 1,10,-1
 160 352 l 1,11,-1
 180 330 l 1,12,-1
 220 294 l 1,13,-1
 265 259 l 1,14,-1
 286 244 l 1,15,-1
 312 239 l 1,16,-1
 337 214 l 1,17,-1
 348 192 l 1,18,-1
 362 174 l 1,19,-1
 376 165 l 1,20,-1
 369 130 l 1,21,-1
 356 114 l 1,22,-1
 336 109 l 1,23,-1
 322 115 l 1,24,-1
 315 127 l 1,25,-1
 292 141 l 1,26,-1
 275 151 l 1,27,-1
 251 168 l 1,28,-1
 231 203 l 1,29,-1
 216 199 l 1,30,-1
 213 209 l 1,31,-1
 173 230 l 1,32,-1
 161 247 l 1,33,-1
 152 247 l 1,34,-1
 143 267 l 1,35,-1
 123 280 l 1,36,-1
 102 307 l 1,37,-1
 80 340 l 1,38,-1
 71 385 l 1,39,-1
 88 416 l 1,40,-1
 136 454 l 1,41,-1
 148 464 l 1,42,-1
 188 477 l 1,43,-1
 207 511 l 1,44,-1
 217 511 l 1,45,-1
 261 551 l 1,46,-1
 296 578 l 1,47,-1
 345 592 l 1,48,-1
 360 578 l 1,49,-1
 380 557 l 1,50,-1
 380 557 l 1,0,-1
EndSplineSet
EndChar

StartChar: equal
Encoding: 61 61 32
Width: 500
GlyphClass: 1
Flags: W
LayerCount: 2
Fore
SplineSet
434 265 m 1,0,-1
 420 246 l 1,1,-1
 349 231 l 1,2,-1
 120 239 l 1,3,-1
 99 251 l 1,4,-1
 85 264 l 1,5,-1
 91 306 l 1,6,-1
 137 333 l 1,7,-1
 258 329 l 1,8,-1
 288 328 l 1,9,-1
 360 331 l 1,10,-1
 407 332 l 1,11,-1
 433 307 l 1,12,-1
 434 265 l 1,13,-1
 434 265 l 1,0,-1
430 464 m 1,14,-1
 424 422 l 1,15,-1
 406 403 l 1,16,-1
 299 401 l 1,17,-1
 250 406 l 1,18,-1
 157 416 l 1,19,-1
 143 411 l 1,20,-1
 125 411 l 1,21,-1
 96 442 l 1,22,-1
 109 468 l 1,23,-1
 141 490 l 1,24,-1
 255 500 l 1,25,-1
 411 489 l 1,26,-1
 430 464 l 1,27,-1
 430 464 l 1,14,-1
EndSplineSet
EndChar

StartChar: greater
Encoding: 62 62 33
Width: 500
GlyphClass: 1
Flags: W
LayerCount: 2
Fore
SplineSet
401 319 m 1,0,-1
 384 288 l 1,1,-1
 336 250 l 1,2,-1
 324 240 l 1,3,-1
 284 227 l 1,4,-1
 265 193 l 1,5,-1
 255 193 l 1,6,-1
 211 153 l 1,7,-1
 176 126 l 1,8,-1
 127 112 l 1,9,-1
 112 126 l 1,10,-1
 92 147 l 1,11,-1
 104 176 l 1,12,-1
 104 192 l 1,13,-1
 112 197 l 1,14,-1
 133 212 l 1,15,-1
 147 225 l 1,16,-1
 180 249 l 1,17,-1
 200 258 l 1,18,-1
 211 264 l 1,19,-1
 253 308 l 1,20,-1
 298 334 l 1,21,-1
 312 352 l 1,22,-1
 281 366 l 1,23,-1
 241 409 l 1,24,-1
 209 436 l 1,25,-1
 183 453 l 1,26,-1
 160 465 l 1,27,-1
 135 490 l 1,28,-1
 124 512 l 1,29,-1
 110 530 l 1,30,-1
 96 539 l 1,31,-1
 103 574 l 1,32,-1
 116 590 l 1,33,-1
 136 595 l 1,34,-1
 150 589 l 1,35,-1
 157 577 l 1,36,-1
 180 563 l 1,37,-1
 197 553 l 1,38,-1
 221 536 l 1,39,-1
 230 520 l 1,40,-1
 256 505 l 1,41,-1
 259 495 l 1,42,-1
 299 474 l 1,43,-1
 311 457 l 1,44,-1
 320 457 l 1,45,-1
 329 437 l 1,46,-1
 349 424 l 1,47,-1
 370 397 l 1,48,-1
 390 352 l 1,49,-1
 401 319 l 1,50,-1
 401 319 l 1,0,-1
EndSplineSet
EndChar

StartChar: question
Encoding: 63 63 34
Width: 500
GlyphClass: 1
Flags: W
LayerCount: 2
Fore
SplineSet
285 31 m 1,0,-1
 253 5 l 1,1,-1
 206 4 l 1,2,-1
 185 29 l 1,3,-1
 184 76 l 1,4,-1
 211 104 l 1,5,-1
 229 112 l 1,6,-1
 251 105 l 1,7,-1
 284 64 l 1,8,-1
 285 31 l 1,9,-1
 285 31 l 1,0,-1
395 497 m 1,10,-1
 371 415 l 1,11,-1
 279 306 l 1,12,-1
 267 206 l 1,13,-1
 235 191 l 1,14,-1
 214 190 l 1,15,-1
 187 236 l 1,16,-1
 192 343 l 1,17,-1
 302 495 l 1,18,-1
 300 602 l 1,19,-1
 278 648 l 1,20,-1
 257 661 l 1,21,-1
 203 660 l 1,22,-1
 171 617 l 1,23,-1
 167 506 l 1,24,-1
 114 484 l 1,25,-1
 81 515 l 1,26,-1
 84 657 l 1,27,-1
 162 738 l 1,28,-1
 201 753 l 1,29,-1
 282 748 l 1,30,-1
 344 710 l 1,31,-1
 377 664 l 1,32,-1
 393 597 l 1,33,-1
 395 497 l 1,34,-1
 395 497 l 1,10,-1
EndSplineSet
EndChar

StartChar: at
Encoding: 64 64 35
Width: 744
GlyphClass: 1
Flags: W
LayerCount: 2
Fore
SplineSet
707 452 m 1,0,-1
 698 427 l 1,1,-1
 706 414 l 1,2,-1
 689 312 l 1,3,-1
 682 276 l 1,4,-1
 684 263 l 1,5,-1
 660 234 l 1,6,-1
 655 204 l 1,7,-1
 638 177 l 1,8,-1
 626 147 l 1,9,-1
 571 91 l 1,10,-1
 553 74 l 1,11,-1
 504 81 l 1,12,-1
 492 80 l 1,13,-1
 480 89 l 1,14,-1
 458 88 l 1,15,-1
 445 101 l 1,16,-1
 416 94 l 1,17,-1
 400 82 l 1,18,-1
 360 71 l 1,19,-1
 328 67 l 1,20,-1
 319 77 l 1,21,-1
 303 73 l 1,22,-1
 277 83 l 1,23,-1
 261 94 l 1,24,-1
 238 127 l 1,25,-1
 225 139 l 1,26,-1
 219 161 l 1,27,-1
 205 191 l 1,28,-1
 197 243 l 1,29,-1
 188 262 l 1,30,-1
 196 293 l 1,31,-1
 190 315 l 1,32,-1
 201 326 l 1,33,-1
 193 346 l 1,34,-1
 210 370 l 1,35,-1
 210 391 l 1,36,-1
 233 419 l 1,37,-1
 230 444 l 1,38,-1
 266 481 l 1,39,-1
 281 489 l 1,40,-1
 295 485 l 1,41,-1
 330 472 l 1,42,-1
 340 472 l 1,43,-1
 361 498 l 1,44,-1
 355 501 l 1,45,-1
 368 514 l 1,46,-1
 384 516 l 1,47,48
 384 516 384 516 389.5 513.5 c 128,-1,49
 395 511 395 511 401 507 c 0,50,51
 407 504 407 504 412.5 501 c 128,-1,52
 418 498 418 498 418 498 c 1,53,-1
 442 500 l 1,54,-1
 449 512 l 1,55,-1
 485 516 l 1,56,-1
 493 510 l 1,57,-1
 515 511 l 1,58,-1
 521 500 l 1,59,-1
 515 487 l 1,60,-1
 517 465 l 1,61,-1
 486 379 l 1,62,-1
 489 344 l 1,63,-1
 480 301 l 1,64,-1
 486 283 l 1,65,-1
 479 275 l 1,66,-1
 488 206 l 1,67,-1
 513 190 l 1,68,-1
 530 188 l 1,69,-1
 542 192 l 1,70,-1
 552 206 l 1,71,-1
 567 227 l 1,72,-1
 564 241 l 1,73,-1
 580 253 l 1,74,-1
 592 280 l 1,75,-1
 593 333 l 1,76,-1
 601 353 l 1,77,-1
 606 389 l 1,78,-1
 606 446 l 1,79,-1
 605 496 l 1,80,-1
 593 527 l 1,81,-1
 580 546 l 1,82,-1
 580 592 l 1,83,-1
 570 583 l 1,84,-1
 565 592 l 1,85,-1
 553 613 l 1,86,-1
 545 636 l 1,87,-1
 524 652 l 1,88,-1
 503 659 l 1,89,-1
 489 676 l 1,90,-1
 463 672 l 1,91,-1
 427 681 l 1,92,-1
 392 676 l 1,93,-1
 351 670 l 1,94,-1
 331 658 l 1,95,-1
 307 660 l 1,96,-1
 281 641 l 1,97,-1
 253 640 l 1,98,-1
 234 609 l 1,99,-1
 209 608 l 1,100,-1
 184 577 l 1,101,-1
 176 549 l 1,102,-1
 158 521 l 1,103,-1
 152 501 l 1,104,-1
 130 477 l 1,105,-1
 132 452 l 1,106,-1
 121 387 l 1,107,-1
 123 358 l 1,108,-1
 130 345 l 1,109,-1
 120 333 l 1,110,-1
 131 274 l 1,111,-1
 121 253 l 1,112,-1
 129 228 l 1,113,-1
 133 158 l 1,114,-1
 147 120 l 1,115,-1
 159 102 l 1,116,-1
 175 73 l 1,117,-1
 220 51 l 1,118,-1
 249 9 l 1,119,-1
 284 -6 l 1,120,-1
 336 -23 l 1,121,-1
 387 -16 l 1,122,-1
 460 -12 l 1,123,-1
 511 -8 l 1,124,-1
 577 -1 l 1,125,-1
 611 9 l 1,126,-1
 624 7 l 1,127,-1
 638 -15 l 1,128,-1
 638 -35 l 1,129,-1
 626 -51 l 1,130,-1
 602 -57 l 1,131,-1
 575 -70 l 1,132,-1
 553 -78 l 1,133,-1
 529 -94 l 1,134,-1
 506 -84 l 1,135,-1
 485 -84 l 1,136,-1
 433 -80 l 1,137,-1
 376 -91 l 1,138,-1
 346 -89 l 1,139,-1
 318 -75 l 1,140,-1
 289 -83 l 1,141,-1
 231 -69 l 1,142,-1
 220 -52 l 1,143,-1
 186 -34 l 1,144,-1
 149 -17 l 1,145,-1
 116 32 l 1,146,-1
 96 41 l 1,147,-1
 85 80 l 1,148,-1
 77 88 l 1,149,-1
 67 88 l 1,150,-1
 54 121 l 1,151,-1
 46 157 l 1,152,-1
 36 203 l 1,153,-1
 42 260 l 1,154,-1
 37 311 l 1,155,-1
 44 370 l 1,156,-1
 37 379 l 1,157,-1
 50 404 l 1,158,-1
 39 419 l 1,159,-1
 45 479 l 1,160,-1
 63 522 l 1,161,-1
 83 549 l 1,162,-1
 77 565 l 1,163,-1
 102 595 l 1,164,-1
 110 612 l 1,165,-1
 135 640 l 1,166,-1
 184 685 l 1,167,-1
 189 681 l 1,168,-1
 208 700 l 1,169,-1
 227 708 l 1,170,-1
 261 727 l 1,171,-1
 286 733 l 1,172,-1
 315 730 l 1,173,-1
 368 746 l 1,174,-1
 409 751 l 1,175,-1
 455 750 l 1,176,-1
 467 736 l 1,177,-1
 507 737 l 1,178,-1
 538 730 l 1,179,-1
 572 699 l 1,180,-1
 584 694 l 1,181,-1
 611 658 l 1,182,-1
 644 618 l 1,183,-1
 653 604 l 1,184,-1
 651 600 l 1,185,-1
 674 573 l 1,186,-1
 684 554 l 1,187,-1
 683 553 l 1,188,-1
 670 504 l 1,189,-1
 700 471 l 1,190,-1
 707 452 l 1,191,-1
 707 452 l 1,0,-1
412 262 m 1,192,-1
 412 304 l 1,193,-1
 409 357 l 1,194,-1
 410 404 l 1,195,-1
 395 416 l 1,196,-1
 394 427 l 1,197,-1
 369 437 l 1,198,-1
 368 454 l 1,199,-1
 322 428 l 1,200,-1
 299 376 l 1,201,-1
 295 338 l 1,202,-1
 287 337 l 1,203,-1
 290 282 l 1,204,-1
 284 252 l 1,205,-1
 294 234 l 1,206,-1
 301 213 l 1,207,-1
 311 193 l 1,208,-1
 317 166 l 1,209,-1
 336 171 l 1,210,-1
 369 203 l 1,211,-1
 388 199 l 1,212,-1
 392 210 l 1,213,-1
 406 228 l 1,214,-1
 409 245 l 1,215,-1
 412 262 l 1,216,-1
 412 262 l 1,192,-1
EndSplineSet
EndChar

StartChar: A
Encoding: 65 65 36
Width: 500
GlyphClass: 1
Flags: W
LayerCount: 2
Fore
SplineSet
489 69 m 1,0,-1
 469 29 l 1,1,-1
 451 7 l 1,2,-1
 397 6 l 1,3,-1
 360 86 l 1,4,-1
 351 158 l 1,5,-1
 325 185 l 1,6,-1
 279 184 l 1,7,-1
 264 198 l 1,8,-1
 183 182 l 1,9,-1
 152 146 l 1,10,-1
 140 66 l 1,11,-1
 127 38 l 1,12,-1
 88 5 l 1,13,-1
 55 11 l 1,14,-1
 26 43 l 1,15,-1
 32 103 l 1,16,-1
 45 124 l 1,17,-1
 57 192 l 1,18,-1
 81 265 l 1,19,-1
 87 312 l 1,20,-1
 113 380 l 1,21,-1
 116 433 l 1,22,-1
 153 630 l 1,23,-1
 176 730 l 1,24,-1
 210 764 l 1,25,-1
 289 761 l 1,26,-1
 318 713 l 1,27,-1
 319 695 l 1,28,-1
 331 681 l 1,29,-1
 332 628 l 1,30,-1
 354 600 l 1,31,-1
 369 535 l 1,32,-1
 386 447 l 1,33,-1
 398 429 l 1,34,-1
 407 341 l 1,35,-1
 422 316 l 1,36,-1
 430 256 l 1,37,-1
 445 235 l 1,38,-1
 446 202 l 1,39,-1
 465 182 l 1,40,-1
 466 122 l 1,41,-1
 489 69 l 1,42,-1
 489 69 l 1,0,-1
308 306 m 1,43,-1
 308 324 l 1,44,-1
 300 331 l 1,45,-1
 292 373 l 1,46,-1
 273 405 l 1,47,-1
 272 437 l 1,48,-1
 250 497 l 1,49,-1
 236 483 l 1,50,-1
 224 404 l 1,51,-1
 200 357 l 1,52,-1
 200 336 l 1,53,-1
 208 310 l 1,54,-1
 234 297 l 1,55,-1
 288 291 l 1,56,-1
 308 306 l 1,57,-1
 308 306 l 1,43,-1
EndSplineSet
EndChar

StartChar: B
Encoding: 66 66 37
Width: 500
GlyphClass: 1
Flags: W
LayerCount: 2
Fore
SplineSet
409 681 m 1,0,-1
 402 427 l 1,1,-1
 389 385 l 1,2,-1
 405 318 l 1,3,-1
 397 85 l 1,4,-1
 379 49 l 1,5,-1
 327 9 l 1,6,-1
 138 4 l 1,7,-1
 117 17 l 1,8,-1
 91 56 l 1,9,-1
 86 230 l 1,10,-1
 85 537 l 1,11,-1
 92 719 l 1,12,-1
 105 740 l 1,13,-1
 126 759 l 1,14,-1
 158 767 l 1,15,-1
 333 753 l 1,16,-1
 380 726 l 1,17,-1
 409 681 l 1,18,-1
 409 681 l 1,0,-1
305 310 m 1,19,-1
 244 327 l 1,20,-1
 205 319 l 1,21,-1
 192 279 l 1,22,-1
 187 179 l 1,23,-1
 203 105 l 1,24,-1
 296 115 l 1,25,-1
 302 143 l 1,26,-1
 305 310 l 1,27,-1
 305 310 l 1,19,-1
311 625 m 1,28,-1
 296 650 l 1,29,-1
 208 647 l 1,30,-1
 197 608 l 1,31,-1
 201 440 l 1,32,-1
 301 443 l 1,33,-1
 308 464 l 1,34,-1
 311 625 l 1,35,-1
 311 625 l 1,28,-1
EndSplineSet
EndChar

StartChar: C
Encoding: 67 67 38
Width: 500
GlyphClass: 1
Flags: W
LayerCount: 2
Fore
SplineSet
420 142 m 1,0,-1
 376 40 l 1,1,-1
 317 4 l 1,2,-1
 168 7 l 1,3,-1
 106 66 l 1,4,-1
 85 140 l 1,5,-1
 92 326 l 1,6,-1
 88 454 l 1,7,-1
 91 628 l 1,8,-1
 117 683 l 1,9,-1
 176 738 l 1,10,-1
 215 753 l 1,11,-1
 297 748 l 1,12,-1
 358 715 l 1,13,-1
 407 651 l 1,14,-1
 409 576 l 1,15,-1
 381 548 l 1,16,-1
 349 554 l 1,17,-1
 327 574 l 1,18,-1
 319 613 l 1,19,-1
 300 627 l 1,20,-1
 258 640 l 1,21,-1
 219 632 l 1,22,-1
 194 592 l 1,23,-1
 198 457 l 1,24,-1
 185 396 l 1,25,-1
 187 328 l 1,26,-1
 178 154 l 1,27,-1
 178 128 l 1,28,-1
 219 90 l 1,29,-1
 261 91 l 1,30,-1
 286 103 l 1,31,-1
 306 125 l 1,32,-1
 312 171 l 1,33,-1
 337 200 l 1,34,-1
 383 201 l 1,35,-1
 420 142 l 1,36,-1
 420 142 l 1,0,-1
EndSplineSet
EndChar

StartChar: D
Encoding: 68 68 39
Width: 500
GlyphClass: 1
Flags: W
LayerCount: 2
Fore
SplineSet
414 542 m 1,0,-1
 408 502 l 1,1,-1
 395 441 l 1,2,-1
 396 402 l 1,3,-1
 399 274 l 1,4,-1
 396 92 l 1,5,-1
 350 45 l 1,6,-1
 269 29 l 1,7,-1
 109 32 l 1,8,-1
 97 46 l 1,9,-1
 93 200 l 1,10,-1
 104 232 l 1,11,-1
 145 268 l 1,12,-1
 131 282 l 1,13,-1
 110 281 l 1,14,-1
 95 314 l 1,15,-1
 89 609 l 1,16,-1
 100 749 l 1,17,-1
 120 770 l 1,18,-1
 139 777 l 1,19,-1
 234 773 l 1,20,-1
 288 774 l 1,21,-1
 313 774 l 1,22,-1
 356 754 l 1,23,-1
 382 722 l 1,24,-1
 397 669 l 1,25,-1
 398 623 l 1,26,-1
 399 574 l 1,27,-1
 399 555 l 1,28,-1
 414 542 l 1,29,-1
 414 542 l 1,0,-1
331 614 m 1,30,-1
 330 647 l 1,31,-1
 297 681 l 1,32,-1
 250 685 l 1,33,-1
 196 697 l 1,34,-1
 176 683 l 1,35,-1
 176 664 l 1,36,-1
 170 643 l 1,37,-1
 184 623 l 1,38,-1
 187 497 l 1,39,-1
 190 330 l 1,40,-1
 178 276 l 1,41,-1
 180 162 l 1,42,-1
 195 120 l 1,43,-1
 281 118 l 1,44,-1
 309 137 l 1,45,-1
 318 225 l 1,46,-1
 317 279 l 1,47,-1
 311 579 l 1,48,-1
 331 614 l 1,49,-1
 331 614 l 1,30,-1
EndSplineSet
EndChar

StartChar: E
Encoding: 69 69 40
Width: 500
GlyphClass: 1
Flags: W
LayerCount: 2
Fore
SplineSet
426 62 m 1,0,-1
 422 36 l 1,1,-1
 395 7 l 1,2,-1
 141 1 l 1,3,-1
 113 35 l 1,4,-1
 104 363 l 1,5,-1
 113 570 l 1,6,-1
 110 677 l 1,7,-1
 123 717 l 1,8,-1
 134 738 l 1,9,-1
 168 760 l 1,10,-1
 261 748 l 1,11,-1
 343 751 l 1,12,-1
 362 718 l 1,13,-1
 383 719 l 1,14,-1
 384 698 l 1,15,-1
 363 683 l 1,16,-1
 217 666 l 1,17,-1
 203 654 l 1,18,-1
 200 526 l 1,19,-1
 201 486 l 1,20,-1
 216 445 l 1,21,-1
 230 433 l 1,22,-1
 351 430 l 1,23,-1
 378 395 l 1,24,-1
 365 349 l 1,25,-1
 340 334 l 1,26,-1
 212 326 l 1,27,-1
 199 284 l 1,28,-1
 215 198 l 1,29,-1
 209 158 l 1,30,-1
 211 103 l 1,31,-1
 225 91 l 1,32,-1
 332 101 l 1,33,-1
 378 102 l 1,34,-1
 407 89 l 1,35,-1
 426 62 l 1,36,-1
 426 62 l 1,0,-1
EndSplineSet
EndChar

StartChar: F
Encoding: 70 70 41
Width: 469
GlyphClass: 1
Flags: W
LayerCount: 2
Fore
SplineSet
422 682 m 1,0,-1
 383 660 l 1,1,-1
 336 680 l 1,2,-1
 288 658 l 1,3,-1
 209 649 l 1,4,-1
 196 609 l 1,5,-1
 204 549 l 1,6,-1
 205 517 l 1,7,-1
 207 435 l 1,8,-1
 228 424 l 1,9,-1
 307 426 l 1,10,-1
 342 413 l 1,11,-1
 362 378 l 1,12,-1
 356 339 l 1,13,-1
 344 324 l 1,14,-1
 217 315 l 1,15,-1
 196 295 l 1,16,-1
 195 33 l 1,17,-1
 163 -1 l 1,18,-1
 117 -2 l 1,19,-1
 88 37 l 1,20,-1
 98 233 l 1,21,-1
 93 433 l 1,22,-1
 106 486 l 1,23,-1
 103 621 l 1,24,-1
 114 722 l 1,25,-1
 133 736 l 1,26,-1
 168 737 l 1,27,-1
 200 758 l 1,28,-1
 321 754 l 1,29,-1
 361 741 l 1,30,-1
 407 735 l 1,31,-1
 422 715 l 1,32,-1
 422 682 l 1,33,-1
 422 682 l 1,0,-1
EndSplineSet
EndChar

StartChar: G
Encoding: 71 71 42
Width: 500
GlyphClass: 1
Flags: W
LayerCount: 2
Fore
SplineSet
416 382 m 1,0,-1
 414 161 l 1,1,-1
 408 121 l 1,2,-1
 382 46 l 1,3,-1
 322 -2 l 1,4,-1
 215 -4 l 1,5,-1
 147 47 l 1,6,-1
 113 86 l 1,7,-1
 98 139 l 1,8,-1
 108 328 l 1,9,-1
 90 495 l 1,10,-1
 107 649 l 1,11,-1
 145 710 l 1,12,-1
 205 751 l 1,13,-1
 244 759 l 1,14,-1
 312 747 l 1,15,-1
 359 722 l 1,16,-1
 410 656 l 1,17,-1
 410 616 l 1,18,-1
 376 581 l 1,19,-1
 330 594 l 1,20,-1
 308 628 l 1,21,-1
 275 653 l 1,22,-1
 228 652 l 1,23,-1
 194 605 l 1,24,-1
 198 463 l 1,25,-1
 187 404 l 1,26,-1
 201 291 l 1,27,-1
 190 263 l 1,28,-1
 193 135 l 1,29,-1
 220 96 l 1,30,-1
 241 82 l 1,31,-1
 287 104 l 1,32,-1
 326 145 l 1,33,-1
 322 293 l 1,34,-1
 289 325 l 1,35,-1
 254 331 l 1,36,-1
 242 364 l 1,37,-1
 248 385 l 1,38,-1
 248 399 l 1,39,-1
 280 418 l 1,40,-1
 373 420 l 1,41,-1
 416 382 l 1,42,-1
 416 382 l 1,0,-1
EndSplineSet
EndChar

StartChar: H
Encoding: 72 72 43
Width: 500
GlyphClass: 1
Flags: W
LayerCount: 2
Fore
SplineSet
428 70 m 1,0,-1
 417 24 l 1,1,-1
 383 2 l 1,2,-1
 350 8 l 1,3,-1
 322 35 l 1,4,-1
 319 149 l 1,5,-1
 330 310 l 1,6,-1
 275 355 l 1,7,-1
 201 326 l 1,8,-1
 190 314 l 1,9,-1
 195 72 l 1,10,-1
 182 25 l 1,11,-1
 148 -3 l 1,12,-1
 122 3 l 1,13,-1
 94 44 l 1,14,-1
 86 358 l 1,15,-1
 85 437 l 1,16,-1
 89 551 l 1,17,-1
 102 579 l 1,18,-1
 94 647 l 1,19,-1
 92 719 l 1,20,-1
 119 754 l 1,21,-1
 152 755 l 1,22,-1
 180 728 l 1,23,-1
 194 649 l 1,24,-1
 183 595 l 1,25,-1
 198 475 l 1,26,-1
 191 460 l 1,27,-1
 192 439 l 1,28,-1
 213 421 l 1,29,-1
 306 430 l 1,30,-1
 327 724 l 1,31,-1
 352 746 l 1,32,-1
 394 739 l 1,33,-1
 414 707 l 1,34,-1
 403 654 l 1,35,-1
 413 440 l 1,36,-1
 401 426 l 1,37,-1
 414 191 l 1,38,-1
 428 70 l 1,39,-1
 428 70 l 1,0,-1
EndSplineSet
EndChar

StartChar: I
Encoding: 73 73 44
Width: 318
GlyphClass: 1
Flags: W
LayerCount: 2
Fore
SplineSet
213 41 m 1,0,-1
 199 8 l 1,1,-1
 141 7 l 1,2,-1
 113 32 l 1,3,-1
 105 388 l 1,4,-1
 104 434 l 1,5,-1
 120 656 l 1,6,-1
 119 716 l 1,7,-1
 151 749 l 1,8,-1
 172 745 l 1,9,-1
 183 745 l 1,10,-1
 197 732 l 1,11,-1
 200 604 l 1,12,-1
 187 571 l 1,13,-1
 162 543 l 1,14,-1
 195 511 l 1,15,-1
 178 471 l 1,16,-1
 204 443 l 1,17,-1
 198 376 l 1,18,-1
 202 215 l 1,19,-1
 211 123 l 1,20,-1
 213 41 l 1,21,-1
 213 41 l 1,0,-1
EndSplineSet
EndChar

StartChar: J
Encoding: 74 74 45
Width: 345
GlyphClass: 1
Flags: W
LayerCount: 2
Fore
SplineSet
254 623 m 1,0,-1
 250 504 l 1,1,-1
 232 443 l 1,2,-1
 241 276 l 1,3,-1
 243 176 l 1,4,-1
 241 81 l 1,5,-1
 221 34 l 1,6,-1
 168 0 l 1,7,-1
 61 -3 l 1,8,-1
 32 29 l 1,9,-1
 38 69 l 1,10,-1
 59 90 l 1,11,-1
 131 99 l 1,12,-1
 144 113 l 1,13,-1
 145 395 l 1,14,-1
 152 716 l 1,15,-1
 183 756 l 1,16,-1
 204 757 l 1,17,-1
 231 725 l 1,18,-1
 254 623 l 1,19,-1
 254 623 l 1,0,-1
EndSplineSet
EndChar

StartChar: K
Encoding: 75 75 46
Width: 500
GlyphClass: 1
Flags: W
LayerCount: 2
Fore
SplineSet
434 48 m 1,0,-1
 421 22 l 1,1,-1
 382 0 l 1,2,-1
 349 13 l 1,3,-1
 313 77 l 1,4,-1
 262 239 l 1,5,-1
 241 271 l 1,6,-1
 234 278 l 1,7,-1
 222 264 l 1,8,-1
 217 189 l 1,9,-1
 219 96 l 1,10,-1
 220 64 l 1,11,-1
 193 2 l 1,12,-1
 140 8 l 1,13,-1
 113 40 l 1,14,-1
 108 289 l 1,15,-1
 105 408 l 1,16,-1
 111 650 l 1,17,-1
 123 731 l 1,18,-1
 144 750 l 1,19,-1
 176 751 l 1,20,-1
 205 726 l 1,21,-1
 215 573 l 1,22,-1
 227 552 l 1,23,-1
 255 578 l 1,24,-1
 286 654 l 1,25,-1
 337 736 l 1,26,-1
 365 744 l 1,27,-1
 386 744 l 1,28,-1
 398 731 l 1,29,-1
 393 656 l 1,30,-1
 337 534 l 1,31,-1
 297 461 l 1,32,-1
 305 394 l 1,33,-1
 320 380 l 1,34,-1
 328 341 l 1,35,-1
 342 320 l 1,36,-1
 348 280 l 1,37,-1
 362 260 l 1,38,-1
 377 193 l 1,39,-1
 434 48 l 1,40,-1
 434 48 l 1,0,-1
EndSplineSet
EndChar

StartChar: L
Encoding: 76 76 47
Width: 469
GlyphClass: 1
Flags: W
LayerCount: 2
Fore
SplineSet
434 30 m 1,0,-1
 428 -19 l 1,1,-1
 382 -38 l 1,2,-1
 146 -30 l 1,3,-1
 128 -18 l 1,4,-1
 113 -5 l 1,5,-1
 104 397 l 1,6,-1
 115 719 l 1,7,-1
 143 740 l 1,8,-1
 204 735 l 1,9,-1
 223 714 l 1,10,-1
 220 621 l 1,11,-1
 202 200 l 1,12,-1
 216 165 l 1,13,-1
 204 90 l 1,14,-1
 212 72 l 1,15,-1
 379 69 l 1,16,-1
 419 56 l 1,17,-1
 434 30 l 1,18,-1
 434 30 l 1,0,-1
EndSplineSet
EndChar

StartChar: M
Encoding: 77 77 48
Width: 500
GlyphClass: 1
Flags: W
LayerCount: 2
Fore
SplineSet
469 160 m 1,0,-1
 465 39 l 1,1,-1
 437 10 l 1,2,-1
 419 10 l 1,3,-1
 383 37 l 1,4,-1
 364 290 l 1,5,-1
 351 332 l 1,6,-1
 301 196 l 1,7,-1
 280 181 l 1,8,-1
 212 187 l 1,9,-1
 193 200 l 1,10,-1
 171 267 l 1,11,-1
 163 314 l 1,12,-1
 149 327 l 1,13,-1
 138 299 l 1,14,-1
 135 118 l 1,15,-1
 129 64 l 1,16,-1
 130 45 l 1,17,-1
 88 16 l 1,18,-1
 55 30 l 1,19,-1
 41 48 l 1,20,-1
 38 197 l 1,21,-1
 49 297 l 1,22,-1
 53 458 l 1,23,-1
 52 479 l 1,24,-1
 66 493 l 1,25,-1
 51 551 l 1,26,-1
 46 732 l 1,27,-1
 78 761 l 1,28,-1
 120 769 l 1,29,-1
 161 728 l 1,30,-1
 177 621 l 1,31,-1
 220 475 l 1,32,-1
 235 429 l 1,33,-1
 247 409 l 1,34,-1
 254 402 l 1,35,-1
 274 449 l 1,36,-1
 286 516 l 1,37,-1
 304 563 l 1,38,-1
 316 631 l 1,39,-1
 349 739 l 1,40,-1
 374 767 l 1,41,-1
 441 762 l 1,42,-1
 467 735 l 1,43,-1
 456 420 l 1,44,-1
 468 207 l 1,45,-1
 469 160 l 1,46,-1
 469 160 l 1,0,-1
EndSplineSet
EndChar

StartChar: N
Encoding: 78 78 49
Width: 500
GlyphClass: 1
Flags: W
LayerCount: 2
Fore
SplineSet
426 544 m 1,0,-1
 414 263 l 1,1,-1
 418 67 l 1,2,-1
 398 27 l 1,3,-1
 378 13 l 1,4,-1
 345 12 l 1,5,-1
 312 39 l 1,6,-1
 282 139 l 1,7,-1
 268 159 l 1,8,-1
 260 199 l 1,9,-1
 248 219 l 1,10,-1
 232 284 l 1,11,-1
 203 358 l 1,12,-1
 191 371 l 1,13,-1
 177 357 l 1,14,-1
 166 203 l 1,15,-1
 170 50 l 1,16,-1
 150 15 l 1,17,-1
 131 7 l 1,18,-1
 110 7 l 1,19,-1
 70 52 l 1,20,-1
 81 195 l 1,21,-1
 81 502 l 1,22,-1
 84 551 l 1,23,-1
 94 730 l 1,24,-1
 108 737 l 1,25,-1
 148 731 l 1,26,-1
 196 660 l 1,27,-1
 204 618 l 1,28,-1
 225 586 l 1,29,-1
 275 459 l 1,30,-1
 290 399 l 1,31,-1
 304 381 l 1,32,-1
 309 381 l 1,33,-1
 324 649 l 1,34,-1
 322 716 l 1,35,-1
 343 742 l 1,36,-1
 389 744 l 1,37,-1
 404 704 l 1,38,-1
 413 623 l 1,39,-1
 426 544 l 1,40,-1
 426 544 l 1,0,-1
EndSplineSet
EndChar

StartChar: O
Encoding: 79 79 50
Width: 500
GlyphClass: 1
Flags: W
LayerCount: 2
Fore
SplineSet
415 307 m 1,0,-1
 409 107 l 1,1,-1
 383 52 l 1,2,-1
 323 9 l 1,3,-1
 277 -4 l 1,4,-1
 216 1 l 1,5,-1
 155 32 l 1,6,-1
 114 85 l 1,7,-1
 98 159 l 1,8,-1
 112 185 l 1,9,-1
 116 266 l 1,10,-1
 134 313 l 1,11,-1
 133 339 l 1,12,-1
 105 441 l 1,13,-1
 101 573 l 1,14,-1
 121 613 l 1,15,-1
 120 662 l 1,16,-1
 204 729 l 1,17,-1
 237 737 l 1,18,-1
 304 732 l 1,19,-1
 366 701 l 1,20,-1
 407 648 l 1,21,-1
 412 442 l 1,22,-1
 413 388 l 1,23,-1
 415 307 l 1,24,-1
 415 307 l 1,0,-1
322 607 m 1,25,-1
 288 638 l 1,26,-1
 221 644 l 1,27,-1
 200 615 l 1,28,-1
 188 536 l 1,29,-1
 203 504 l 1,30,-1
 194 340 l 1,31,-1
 196 254 l 1,32,-1
 187 140 l 1,33,-1
 207 108 l 1,34,-1
 275 89 l 1,35,-1
 302 111 l 1,36,-1
 319 165 l 1,37,-1
 319 432 l 1,38,-1
 322 607 l 1,39,-1
 322 607 l 1,25,-1
EndSplineSet
EndChar

StartChar: P
Encoding: 80 80 51
Width: 500
GlyphClass: 1
Flags: W
LayerCount: 2
Fore
SplineSet
425 442 m 1,0,-1
 406 381 l 1,1,-1
 339 340 l 1,2,-1
 214 330 l 1,3,-1
 200 304 l 1,4,-1
 189 197 l 1,5,-1
 192 48 l 1,6,-1
 160 15 l 1,7,-1
 118 21 l 1,8,-1
 99 46 l 1,9,-1
 97 127 l 1,10,-1
 102 248 l 1,11,-1
 109 448 l 1,12,-1
 106 583 l 1,13,-1
 116 737 l 1,14,-1
 144 756 l 1,15,-1
 344 756 l 1,16,-1
 398 723 l 1,17,-1
 420 684 l 1,18,-1
 425 442 l 1,19,-1
 425 442 l 1,0,-1
323 539 m 1,20,-1
 320 649 l 1,21,-1
 213 658 l 1,22,-1
 206 651 l 1,23,-1
 211 444 l 1,24,-1
 223 430 l 1,25,-1
 272 431 l 1,26,-1
 311 446 l 1,27,-1
 317 486 l 1,28,-1
 323 539 l 1,29,-1
 323 539 l 1,20,-1
EndSplineSet
EndChar

StartChar: Q
Encoding: 81 81 52
Width: 500
GlyphClass: 1
Flags: W
LayerCount: 2
Fore
SplineSet
467 59 m 1,0,-1
 460 41 l 1,1,-1
 426 5 l 1,2,-1
 379 18 l 1,3,-1
 319 17 l 1,4,-1
 305 2 l 1,5,-1
 212 7 l 1,6,-1
 144 40 l 1,7,-1
 96 79 l 1,8,-1
 80 193 l 1,9,-1
 91 314 l 1,10,-1
 89 407 l 1,11,-1
 92 574 l 1,12,-1
 104 661 l 1,13,-1
 177 737 l 1,14,-1
 195 751 l 1,15,-1
 302 747 l 1,16,-1
 356 715 l 1,17,-1
 404 642 l 1,18,-1
 413 254 l 1,19,-1
 412 119 l 1,20,-1
 467 59 l 1,21,-1
 467 59 l 1,0,-1
312 619 m 1,22,-1
 290 646 l 1,23,-1
 225 652 l 1,24,-1
 211 644 l 1,25,-1
 191 602 l 1,26,-1
 186 341 l 1,27,-1
 190 149 l 1,28,-1
 223 107 l 1,29,-1
 249 101 l 1,30,-1
 291 123 l 1,31,-1
 301 191 l 1,32,-1
 306 244 l 1,33,-1
 302 458 l 1,34,-1
 312 619 l 1,35,-1
 312 619 l 1,22,-1
EndSplineSet
EndChar

StartChar: R
Encoding: 82 82 53
Width: 500
GlyphClass: 1
Flags: W
LayerCount: 2
Fore
SplineSet
434 55 m 1,0,-1
 421 13 l 1,1,-1
 375 -14 l 1,2,-1
 349 -8 l 1,3,-1
 327 25 l 1,4,-1
 312 99 l 1,5,-1
 304 145 l 1,6,-1
 289 191 l 1,7,-1
 275 279 l 1,8,-1
 260 312 l 1,9,-1
 232 332 l 1,10,-1
 213 331 l 1,11,-1
 193 310 l 1,12,-1
 198 75 l 1,13,-1
 199 29 l 1,14,-1
 186 8 l 1,15,-1
 174 -4 l 1,16,-1
 132 -5 l 1,17,-1
 106 34 l 1,18,-1
 104 436 l 1,19,-1
 103 469 l 1,20,-1
 106 664 l 1,21,-1
 117 711 l 1,22,-1
 124 718 l 1,23,-1
 170 738 l 1,24,-1
 204 745 l 1,25,-1
 326 734 l 1,26,-1
 366 716 l 1,27,-1
 387 696 l 1,28,-1
 407 610 l 1,29,-1
 409 529 l 1,30,-1
 412 396 l 1,31,-1
 360 321 l 1,32,-1
 375 268 l 1,33,-1
 419 73 l 1,34,-1
 434 55 l 1,35,-1
 434 55 l 1,0,-1
325 460 m 1,36,-1
 321 620 l 1,37,-1
 299 654 l 1,38,-1
 213 652 l 1,39,-1
 209 545 l 1,40,-1
 203 499 l 1,41,-1
 205 417 l 1,42,-1
 226 418 l 1,43,-1
 304 427 l 1,44,-1
 325 460 l 1,45,-1
 325 460 l 1,36,-1
EndSplineSet
EndChar

StartChar: S
Encoding: 83 83 54
Width: 500
GlyphClass: 1
Flags: W
LayerCount: 2
Fore
SplineSet
404 97 m 1,0,-1
 366 36 l 1,1,-1
 313 16 l 1,2,-1
 264 8 l 1,3,-1
 239 7 l 1,4,-1
 192 25 l 1,5,-1
 138 65 l 1,6,-1
 109 104 l 1,7,-1
 107 190 l 1,8,-1
 134 212 l 1,9,-1
 174 206 l 1,10,-1
 196 174 l 1,11,-1
 201 132 l 1,12,-1
 251 101 l 1,13,-1
 297 109 l 1,14,-1
 329 156 l 1,15,-1
 334 216 l 1,16,-1
 333 263 l 1,17,-1
 311 316 l 1,18,-1
 299 330 l 1,19,-1
 196 348 l 1,20,-1
 149 380 l 1,21,-1
 116 419 l 1,22,-1
 100 472 l 1,23,-1
 97 620 l 1,24,-1
 130 686 l 1,25,-1
 183 736 l 1,26,-1
 236 756 l 1,27,-1
 308 751 l 1,28,-1
 350 733 l 1,29,-1
 384 687 l 1,30,-1
 392 653 l 1,31,-1
 378 638 l 1,32,-1
 379 599 l 1,33,-1
 365 585 l 1,34,-1
 354 584 l 1,35,-1
 304 644 l 1,36,-1
 292 657 l 1,37,-1
 224 642 l 1,38,-1
 198 562 l 1,39,-1
 207 488 l 1,40,-1
 208 467 l 1,41,-1
 255 429 l 1,42,-1
 323 416 l 1,43,-1
 378 357 l 1,44,-1
 388 211 l 1,45,-1
 402 190 l 1,46,-1
 404 97 l 1,47,-1
 404 97 l 1,0,-1
EndSplineSet
EndChar

StartChar: T
Encoding: 84 84 55
Width: 423
GlyphClass: 1
Flags: W
LayerCount: 2
Fore
SplineSet
368 678 m 1,0,-1
 327 642 l 1,1,-1
 266 640 l 1,2,-1
 255 619 l 1,3,-1
 268 138 l 1,4,-1
 264 17 l 1,5,-1
 251 -2 l 1,6,-1
 237 -17 l 1,7,-1
 197 -11 l 1,8,-1
 175 35 l 1,9,-1
 171 196 l 1,10,-1
 170 217 l 1,11,-1
 168 289 l 1,12,-1
 164 477 l 1,13,-1
 167 617 l 1,14,-1
 141 637 l 1,15,-1
 87 643 l 1,16,-1
 51 674 l 1,17,-1
 57 716 l 1,18,-1
 96 743 l 1,19,-1
 338 731 l 1,20,-1
 360 717 l 1,21,-1
 367 696 l 1,22,-1
 368 678 l 1,23,-1
 368 678 l 1,0,-1
EndSplineSet
EndChar

StartChar: U
Encoding: 85 85 56
Width: 500
GlyphClass: 1
Flags: W
LayerCount: 2
Fore
SplineSet
425 184 m 1,0,-1
 413 109 l 1,1,-1
 389 55 l 1,2,-1
 336 7 l 1,3,-1
 302 -8 l 1,4,-1
 187 -3 l 1,5,-1
 162 10 l 1,6,-1
 112 63 l 1,7,-1
 92 102 l 1,8,-1
 86 376 l 1,9,-1
 86 657 l 1,10,-1
 97 718 l 1,11,-1
 131 740 l 1,12,-1
 152 740 l 1,13,-1
 185 699 l 1,14,-1
 190 485 l 1,15,-1
 178 399 l 1,16,-1
 195 292 l 1,17,-1
 181 271 l 1,18,-1
 196 218 l 1,19,-1
 199 125 l 1,20,-1
 225 98 l 1,21,-1
 299 106 l 1,22,-1
 312 128 l 1,23,-1
 324 221 l 1,24,-1
 315 623 l 1,25,-1
 320 702 l 1,26,-1
 325 723 l 1,27,-1
 359 738 l 1,28,-1
 385 739 l 1,29,-1
 420 712 l 1,30,-1
 421 351 l 1,31,-1
 402 290 l 1,32,-1
 425 184 l 1,33,-1
 425 184 l 1,0,-1
EndSplineSet
EndChar

StartChar: V
Encoding: 86 86 57
Width: 500
GlyphClass: 1
Flags: W
LayerCount: 2
Fore
SplineSet
441 692 m 1,0,-1
 436 631 l 1,1,-1
 411 496 l 1,2,-1
 400 463 l 1,3,-1
 382 355 l 1,4,-1
 382 327 l 1,5,-1
 369 313 l 1,6,-1
 356 234 l 1,7,-1
 346 199 l 1,8,-1
 347 127 l 1,9,-1
 315 12 l 1,10,-1
 290 -17 l 1,11,-1
 222 -11 l 1,12,-1
 208 2 l 1,13,-1
 193 63 l 1,14,-1
 187 130 l 1,15,-1
 164 222 l 1,16,-1
 155 283 l 1,17,-1
 131 422 l 1,18,-1
 119 449 l 1,19,-1
 109 556 l 1,20,-1
 80 623 l 1,21,-1
 85 702 l 1,22,-1
 119 731 l 1,23,-1
 152 725 l 1,24,-1
 179 686 l 1,25,-1
 210 519 l 1,26,-1
 218 473 l 1,27,-1
 219 452 l 1,28,-1
 238 424 l 1,29,-1
 239 385 l 1,30,-1
 254 345 l 1,31,-1
 254 338 l 1,32,-1
 261 332 l 1,33,-1
 288 379 l 1,34,-1
 298 433 l 1,35,-1
 310 528 l 1,36,-1
 343 629 l 1,37,-1
 346 696 l 1,38,-1
 373 723 l 1,39,-1
 413 724 l 1,40,-1
 441 692 l 1,41,-1
 441 692 l 1,0,-1
EndSplineSet
EndChar

StartChar: W
Encoding: 87 87 58
Width: 500
GlyphClass: 1
Flags: W
LayerCount: 2
Fore
SplineSet
475 664 m 1,0,-1
 469 603 l 1,1,-1
 459 549 l 1,2,-1
 460 489 l 1,3,-1
 447 470 l 1,4,-1
 448 402 l 1,5,-1
 435 363 l 1,6,-1
 430 267 l 1,7,-1
 417 241 l 1,8,-1
 415 120 l 1,9,-1
 397 -8 l 1,10,-1
 384 -27 l 1,11,-1
 337 -42 l 1,12,-1
 309 -36 l 1,13,-1
 276 3 l 1,14,-1
 267 84 l 1,15,-1
 253 103 l 1,16,-1
 230 -5 l 1,17,-1
 223 -26 l 1,18,-1
 209 -38 l 1,19,-1
 137 -33 l 1,20,-1
 108 20 l 1,21,-1
 107 85 l 1,22,-1
 74 401 l 1,23,-1
 58 468 l 1,24,-1
 50 547 l 1,25,-1
 35 574 l 1,26,-1
 34 628 l 1,27,-1
 26 667 l 1,28,-1
 25 688 l 1,29,-1
 60 722 l 1,30,-1
 99 722 l 1,31,-1
 125 697 l 1,32,-1
 141 630 l 1,33,-1
 150 510 l 1,34,-1
 166 442 l 1,35,-1
 167 410 l 1,36,-1
 174 403 l 1,37,-1
 185 417 l 1,38,-1
 191 476 l 1,39,-1
 232 518 l 1,40,-1
 278 519 l 1,41,-1
 312 478 l 1,42,-1
 320 406 l 1,43,-1
 327 400 l 1,44,-1
 341 400 l 1,45,-1
 352 440 l 1,46,-1
 369 622 l 1,47,-1
 382 682 l 1,48,-1
 381 689 l 1,49,-1
 413 709 l 1,50,-1
 448 705 l 1,51,-1
 475 664 l 1,52,-1
 475 664 l 1,0,-1
EndSplineSet
EndChar

StartChar: X
Encoding: 88 88 59
Width: 500
GlyphClass: 1
Flags: W
LayerCount: 2
Fore
SplineSet
441 38 m 1,0,-1
 437 12 l 1,1,-1
 410 -10 l 1,2,-1
 382 -10 l 1,3,-1
 348 22 l 1,4,-1
 326 70 l 1,5,-1
 299 155 l 1,6,-1
 270 215 l 1,7,-1
 269 222 l 1,8,-1
 265 229 l 1,9,-1
 251 229 l 1,10,-1
 211 153 l 1,11,-1
 200 93 l 1,12,-1
 160 6 l 1,13,-1
 149 -9 l 1,14,-1
 102 -3 l 1,15,-1
 88 11 l 1,16,-1
 94 76 l 1,17,-1
 151 198 l 1,18,-1
 175 287 l 1,19,-1
 202 328 l 1,20,-1
 193 402 l 1,21,-1
 137 519 l 1,22,-1
 122 568 l 1,23,-1
 80 674 l 1,24,-1
 86 706 l 1,25,-1
 104 728 l 1,26,-1
 132 728 l 1,27,-1
 173 676 l 1,28,-1
 215 577 l 1,29,-1
 244 543 l 1,30,-1
 257 543 l 1,31,-1
 295 611 l 1,32,-1
 301 658 l 1,33,-1
 312 698 l 1,34,-1
 353 747 l 1,35,-1
 378 748 l 1,36,-1
 414 714 l 1,37,-1
 402 646 l 1,38,-1
 338 491 l 1,39,-1
 332 445 l 1,40,-1
 314 416 l 1,41,-1
 314 398 l 1,42,-1
 294 376 l 1,43,-1
 421 105 l 1,44,-1
 429 65 l 1,45,-1
 441 38 l 1,46,-1
 441 38 l 1,0,-1
EndSplineSet
EndChar

StartChar: Y
Encoding: 89 89 60
Width: 419
GlyphClass: 1
Flags: W
LayerCount: 2
Fore
SplineSet
366 719 m 1,0,-1
 354 612 l 1,1,-1
 331 491 l 1,2,-1
 298 397 l 1,3,-1
 279 315 l 1,4,-1
 268 289 l 1,5,-1
 256 235 l 1,6,-1
 270 215 l 1,7,-1
 275 15 l 1,8,-1
 247 -14 l 1,9,-1
 208 -8 l 1,10,-1
 186 20 l 1,11,-1
 189 213 l 1,12,-1
 188 248 l 1,13,-1
 131 400 l 1,14,-1
 122 493 l 1,15,-1
 88 539 l 1,16,-1
 88 560 l 1,17,-1
 73 573 l 1,18,-1
 65 633 l 1,19,-1
 57 687 l 1,20,-1
 56 705 l 1,21,-1
 84 727 l 1,22,-1
 110 721 l 1,23,-1
 146 661 l 1,24,-1
 154 601 l 1,25,-1
 166 589 l 1,26,-1
 190 469 l 1,27,-1
 204 448 l 1,28,-1
 211 441 l 1,29,-1
 218 442 l 1,30,-1
 255 563 l 1,31,-1
 261 603 l 1,32,-1
 285 671 l 1,33,-1
 291 711 l 1,34,-1
 330 740 l 1,35,-1
 351 733 l 1,36,-1
 366 719 l 1,37,-1
 366 719 l 1,0,-1
EndSplineSet
EndChar

StartChar: Z
Encoding: 90 90 61
Width: 465
GlyphClass: 1
Flags: W
LayerCount: 2
Fore
SplineSet
386 57 m 1,0,-1
 383 15 l 1,1,-1
 362 3 l 1,2,-1
 120 -3 l 1,3,-1
 94 8 l 1,4,-1
 80 22 l 1,5,-1
 85 122 l 1,6,-1
 135 244 l 1,7,-1
 179 352 l 1,8,-1
 193 392 l 1,9,-1
 210 434 l 1,10,-1
 280 622 l 1,11,-1
 287 636 l 1,12,-1
 287 657 l 1,13,-1
 272 670 l 1,14,-1
 240 656 l 1,15,-1
 105 660 l 1,16,-1
 86 692 l 1,17,-1
 117 739 l 1,18,-1
 217 734 l 1,19,-1
 352 730 l 1,20,-1
 371 705 l 1,21,-1
 369 631 l 1,22,-1
 336 509 l 1,23,-1
 292 415 l 1,24,-1
 272 354 l 1,25,-1
 198 166 l 1,26,-1
 165 84 l 1,27,-1
 179 70 l 1,28,-1
 360 75 l 1,29,-1
 386 57 l 1,30,-1
 386 57 l 1,0,-1
EndSplineSet
EndChar

StartChar: bracketleft
Encoding: 91 91 62
Width: 414
GlyphClass: 1
Flags: W
LayerCount: 2
Fore
SplineSet
338 685 m 1,0,-1
 336 651 l 1,1,-1
 320 636 l 1,2,-1
 297 631 l 1,3,-1
 280 632 l 1,4,-1
 254 636 l 1,5,-1
 225 637 l 1,6,-1
 201 620 l 1,7,-1
 195 574 l 1,8,-1
 195 544 l 1,9,-1
 189 462 l 1,10,-1
 199 383 l 1,11,-1
 186 345 l 1,12,-1
 186 332 l 1,13,-1
 189 303 l 1,14,-1
 198 250 l 1,15,-1
 185 218 l 1,16,-1
 195 207 l 1,17,-1
 195 165 l 1,18,-1
 188 170 l 1,19,-1
 194 98 l 1,20,-1
 194 81 l 1,21,-1
 189 66 l 1,22,-1
 189 46 l 1,23,-1
 211 27 l 1,24,-1
 257 26 l 1,25,-1
 296 27 l 1,26,-1
 325 17 l 1,27,-1
 336 -22 l 1,28,-1
 329 -45 l 1,29,-1
 307 -59 l 1,30,-1
 270 -67 l 1,31,-1
 248 -64 l 1,32,-1
 237 -56 l 1,33,-1
 202 -56 l 1,34,-1
 174 -51 l 1,35,-1
 151 -60 l 1,36,-1
 130 -56 l 1,37,-1
 118 -49 l 1,38,-1
 118 -31 l 1,39,-1
 112 -25 l 1,40,-1
 106 -10 l 1,41,-1
 115 1 l 1,42,-1
 110 13 l 1,43,-1
 120 26 l 1,44,-1
 104 53 l 1,45,-1
 107 95 l 1,46,-1
 95 114 l 1,47,-1
 101 171 l 1,48,-1
 104 177 l 1,49,-1
 104 187 l 1,50,-1
 101 193 l 1,51,-1
 95 249 l 1,52,-1
 96 308 l 1,53,-1
 108 334 l 1,54,-1
 101 360 l 1,55,-1
 104 458 l 1,56,-1
 108 483 l 1,57,-1
 102 497 l 1,58,-1
 102 535 l 1,59,-1
 103 535 l 1,60,-1
 113 615 l 1,61,-1
 107 659 l 1,62,-1
 120 694 l 1,63,-1
 138 723 l 1,64,-1
 176 725 l 1,65,-1
 214 733 l 1,66,-1
 235 723 l 1,67,-1
 254 730 l 1,68,-1
 286 728 l 1,69,-1
 311 725 l 1,70,-1
 330 714 l 1,71,-1
 338 685 l 1,72,-1
 338 685 l 1,0,-1
EndSplineSet
EndChar

StartChar: backslash
Encoding: 92 92 63
Width: 500
GlyphClass: 1
Flags: W
LayerCount: 2
Fore
SplineSet
377 53 m 1,0,-1
 375 -7 l 1,1,-1
 326 -18 l 1,2,-1
 294 2 l 1,3,-1
 275 69 l 1,4,-1
 251 144 l 1,5,-1
 207 278 l 1,6,-1
 157 435 l 1,7,-1
 151 475 l 1,8,-1
 114 569 l 1,9,-1
 102 657 l 1,10,-1
 88 683 l 1,11,-1
 117 717 l 1,12,-1
 143 717 l 1,13,-1
 170 695 l 1,14,-1
 201 613 l 1,15,-1
 220 527 l 1,16,-1
 237 487 l 1,17,-1
 243 440 l 1,18,-1
 264 419 l 1,19,-1
 263 391 l 1,20,-1
 287 311 l 1,21,-1
 327 210 l 1,22,-1
 377 53 l 1,23,-1
 377 53 l 1,0,-1
EndSplineSet
EndChar

StartChar: bracketright
Encoding: 93 93 64
Width: 414
GlyphClass: 1
Flags: W
LayerCount: 2
Fore
SplineSet
322 368 m 1,0,-1
 309 341 l 1,1,-1
 316 314 l 1,2,-1
 313 217 l 1,3,-1
 309 191 l 1,4,-1
 316 177 l 1,5,-1
 316 138 l 1,6,-1
 314 138 l 1,7,-1
 304 58 l 1,8,-1
 310 15 l 1,9,-1
 297 -20 l 1,10,-1
 279 -49 l 1,11,-1
 241 -52 l 1,12,-1
 204 -59 l 1,13,-1
 183 -49 l 1,14,-1
 163 -56 l 1,15,-1
 130 -54 l 1,16,-1
 106 -52 l 1,17,-1
 87 -41 l 1,18,-1
 79 -11 l 1,19,-1
 81 23 l 1,20,-1
 97 38 l 1,21,-1
 120 43 l 1,22,-1
 136 42 l 1,23,-1
 162 38 l 1,24,-1
 192 38 l 1,25,-1
 217 54 l 1,26,-1
 222 101 l 1,27,-1
 222 131 l 1,28,-1
 228 212 l 1,29,-1
 218 290 l 1,30,-1
 231 329 l 1,31,-1
 228 372 l 1,32,-1
 219 424 l 1,33,-1
 234 456 l 1,34,-1
 223 467 l 1,35,-1
 223 509 l 1,36,-1
 230 505 l 1,37,-1
 223 577 l 1,38,-1
 223 595 l 1,39,-1
 228 609 l 1,40,-1
 229 628 l 1,41,-1
 205 647 l 1,42,-1
 160 647 l 1,43,-1
 122 647 l 1,44,-1
 92 657 l 1,45,-1
 81 696 l 1,46,-1
 88 718 l 1,47,-1
 110 733 l 1,48,-1
 147 741 l 1,49,-1
 169 738 l 1,50,-1
 179 730 l 1,51,-1
 215 730 l 1,52,-1
 243 725 l 1,53,-1
 266 734 l 1,54,-1
 287 730 l 1,55,-1
 300 723 l 1,56,-1
 300 704 l 1,57,-1
 305 699 l 1,58,-1
 311 684 l 1,59,-1
 303 674 l 1,60,-1
 307 661 l 1,61,-1
 298 649 l 1,62,-1
 313 621 l 1,63,-1
 309 580 l 1,64,-1
 322 559 l 1,65,-1
 316 501 l 1,66,-1
 313 498 l 1,67,-1
 313 487 l 1,68,-1
 316 481 l 1,69,-1
 322 426 l 1,70,-1
 322 368 l 1,71,-1
 322 368 l 1,0,-1
EndSplineSet
EndChar

StartChar: asciicircum
Encoding: 94 94 65
Width: 500
GlyphClass: 1
Flags: W
LayerCount: 2
Fore
SplineSet
363 664 m 1,0,-1
 359 649 l 1,1,-1
 331 633 l 1,2,-1
 302 643 l 1,3,-1
 273 662 l 1,4,-1
 256 679 l 1,5,-1
 231 678 l 1,6,-1
 194 657 l 1,7,-1
 160 637 l 1,8,-1
 140 644 l 1,9,-1
 136 660 l 1,10,-1
 139 683 l 1,11,-1
 152 700 l 1,12,-1
 206 735 l 1,13,-1
 230 748 l 1,14,-1
 273 745 l 1,15,-1
 299 729 l 1,16,-1
 323 715 l 1,17,-1
 354 689 l 1,18,-1
 363 664 l 1,19,-1
 363 664 l 1,0,-1
EndSplineSet
EndChar

StartChar: underscore
Encoding: 95 95 66
Width: 500
GlyphClass: 1
Flags: W
LayerCount: 2
Fore
SplineSet
508 -66 m 1,0,-1
 487 -88 l 1,1,-1
 64 -93 l 1,2,-1
 17 -87 l 1,3,-1
 10 -87 l 1,4,-1
 -12 -67 l 1,5,-1
 -12 -34 l 1,6,-1
 8 -13 l 1,7,-1
 89 3 l 1,8,-1
 485 -6 l 1,9,-1
 507 -20 l 1,10,-1
 508 -66 l 1,11,-1
 508 -66 l 1,0,-1
EndSplineSet
EndChar

StartChar: grave
Encoding: 96 96 67
Width: 500
GlyphClass: 1
Flags: W
LayerCount: 2
Fore
SplineSet
348 649 m 1,0,-1
 320 633 l 1,1,-1
 291 643 l 1,2,-1
 262 662 l 1,3,-1
 216 689 l 1,4,-1
 176 704 l 1,5,-1
 152 737 l 1,6,-1
 149 758 l 1,7,-1
 161 769 l 1,8,-1
 203 775 l 1,9,-1
 249 745 l 1,10,-1
 288 729 l 1,11,-1
 343 689 l 1,12,-1
 348 649 l 1,13,-1
 348 649 l 1,0,-1
EndSplineSet
EndChar

StartChar: a
Encoding: 97 97 68
Width: 500
GlyphClass: 1
Flags: W
LayerCount: 2
Fore
SplineSet
372 303 m 1,0,-1
 358 291 l 1,1,-1
 359 237 l 1,2,-1
 294 229 l 1,3,-1
 260 214 l 1,4,-1
 167 212 l 1,5,-1
 133 137 l 1,6,-1
 130 98 l 1,7,-1
 124 37 l 1,8,-1
 103 23 l 1,9,-1
 82 29 l 1,10,-1
 77 29 l 1,11,-1
 63 43 l 1,12,-1
 78 218 l 1,13,-1
 112 272 l 1,14,-1
 118 339 l 1,15,-1
 135 407 l 1,16,-1
 149 426 l 1,17,-1
 134 465 l 1,18,-1
 154 514 l 1,19,-1
 174 540 l 1,20,-1
 177 629 l 1,21,-1
 184 629 l 1,22,-1
 198 641 l 1,23,-1
 197 676 l 1,24,-1
 211 676 l 1,25,-1
 205 609 l 1,26,-1
 220 595 l 1,27,-1
 213 562 l 1,28,-1
 214 548 l 1,29,-1
 207 548 l 1,30,-1
 193 534 l 1,31,-1
 193 515 l 1,32,-1
 207 502 l 1,33,-1
 202 448 l 1,34,-1
 196 394 l 1,35,-1
 163 380 l 1,36,-1
 150 354 l 1,37,-1
 165 312 l 1,38,-1
 165 294 l 1,39,-1
 184 273 l 1,40,-1
 245 274 l 1,41,-1
 279 275 l 1,42,-1
 305 276 l 1,43,-1
 339 309 l 1,44,-1
 339 330 l 1,45,-1
 357 330 l 1,46,-1
 372 303 l 1,47,-1
 372 303 l 1,0,-1
451 90 m 1,48,-1
 444 64 l 1,49,-1
 416 57 l 1,50,-1
 431 36 l 1,51,-1
 405 43 l 1,52,-1
 391 56 l 1,53,-1
 376 103 l 1,54,-1
 361 177 l 1,55,-1
 374 210 l 1,56,-1
 395 191 l 1,57,-1
 422 131 l 1,58,-1
 423 103 l 1,59,-1
 451 90 l 1,60,-1
 451 90 l 1,48,-1
412 271 m 1,61,-1
 408 264 l 1,62,-1
 386 291 l 1,63,-1
 393 303 l 1,64,-1
 412 285 l 1,65,-1
 412 271 l 1,66,-1
 412 271 l 1,61,-1
392 331 m 1,67,-1
 378 331 l 1,68,-1
 364 344 l 1,69,-1
 364 358 l 1,70,-1
 385 370 l 1,71,-1
 392 352 l 1,72,-1
 392 331 l 1,73,-1
 392 331 l 1,67,-1
348 465 m 1,74,-1
 338 376 l 1,75,-1
 331 369 l 1,76,-1
 309 411 l 1,77,-1
 290 468 l 1,78,-1
 287 578 l 1,79,-1
 292 582 l 1,80,-1
 320 583 l 1,81,-1
 335 544 l 1,82,-1
 348 465 l 1,83,-1
 348 465 l 1,74,-1
280 617 m 1,84,-1
 265 631 l 1,85,-1
 244 630 l 1,86,-1
 232 690 l 1,87,-1
 211 690 l 1,88,-1
 196 701 l 1,89,-1
 203 729 l 1,90,-1
 224 730 l 1,91,-1
 231 702 l 1,92,-1
 250 691 l 1,93,-1
 272 670 l 1,94,-1
 280 617 l 1,95,-1
 280 617 l 1,84,-1
325 692 m 1,96,-1
 311 664 l 1,97,-1
 311 678 l 1,98,-1
 311 697 l 1,99,-1
 318 697 l 1,100,-1
 325 692 l 1,101,-1
 325 692 l 1,96,-1
EndSplineSet
EndChar

StartChar: b
Encoding: 98 98 69
Width: 500
GlyphClass: 1
Flags: W
LayerCount: 2
Fore
SplineSet
410 288 m 1,0,-1
 403 81 l 1,1,-1
 344 19 l 1,2,-1
 116 14 l 1,3,-1
 101 35 l 1,4,-1
 107 102 l 1,5,-1
 79 113 l 1,6,-1
 67 127 l 1,7,-1
 84 202 l 1,8,-1
 111 228 l 1,9,-1
 94 369 l 1,10,-1
 90 544 l 1,11,-1
 100 737 l 1,12,-1
 125 765 l 1,13,-1
 281 776 l 1,14,-1
 334 763 l 1,15,-1
 382 729 l 1,16,-1
 401 704 l 1,17,-1
 406 462 l 1,18,-1
 395 436 l 1,19,-1
 397 362 l 1,20,-1
 410 288 l 1,21,-1
 410 288 l 1,0,-1
310 300 m 1,22,-1
 295 327 l 1,23,-1
 209 330 l 1,24,-1
 188 318 l 1,25,-1
 189 304 l 1,26,-1
 178 236 l 1,27,-1
 212 184 l 1,28,-1
 205 176 l 1,29,-1
 180 143 l 1,30,-1
 181 122 l 1,31,-1
 193 104 l 1,32,-1
 295 111 l 1,33,-1
 305 172 l 1,34,-1
 310 300 l 1,35,-1
 310 300 l 1,22,-1
309 649 m 1,36,-1
 287 674 l 1,37,-1
 201 672 l 1,38,-1
 195 665 l 1,39,-1
 193 444 l 1,40,-1
 292 446 l 1,41,-1
 306 460 l 1,42,-1
 306 481 l 1,43,-1
 296 588 l 1,44,-1
 309 649 l 1,45,-1
 309 649 l 1,36,-1
EndSplineSet
EndChar

StartChar: c
Encoding: 99 99 70
Width: 500
GlyphClass: 1
Flags: W
LayerCount: 2
Fore
SplineSet
412 642 m 1,0,-1
 401 609 l 1,1,-1
 387 595 l 1,2,-1
 359 602 l 1,3,-1
 326 661 l 1,4,-1
 285 700 l 1,5,-1
 244 692 l 1,6,-1
 218 678 l 1,7,-1
 191 645 l 1,8,-1
 181 563 l 1,9,-1
 186 551 l 1,10,-1
 186 531 l 1,11,-1
 168 509 l 1,12,-1
 183 477 l 1,13,-1
 189 417 l 1,14,-1
 157 369 l 1,15,-1
 171 349 l 1,16,-1
 175 188 l 1,17,-1
 175 163 l 1,18,-1
 201 128 l 1,19,-1
 223 110 l 1,20,-1
 283 98 l 1,21,-1
 322 138 l 1,22,-1
 349 206 l 1,23,-1
 360 213 l 1,24,-1
 381 213 l 1,25,-1
 410 179 l 1,26,-1
 397 114 l 1,27,-1
 352 59 l 1,28,-1
 331 59 l 1,29,-1
 299 30 l 1,30,-1
 197 21 l 1,31,-1
 149 55 l 1,32,-1
 108 127 l 1,33,-1
 107 215 l 1,34,-1
 108 482 l 1,35,-1
 111 671 l 1,36,-1
 196 752 l 1,37,-1
 235 766 l 1,38,-1
 317 761 l 1,39,-1
 371 723 l 1,40,-1
 412 642 l 1,41,-1
 412 642 l 1,0,-1
EndSplineSet
EndChar

StartChar: d
Encoding: 100 100 71
Width: 500
GlyphClass: 1
Flags: W
LayerCount: 2
Fore
SplineSet
400 133 m 1,0,-1
 387 84 l 1,1,-1
 367 51 l 1,2,-1
 328 22 l 1,3,-1
 186 8 l 1,4,-1
 114 25 l 1,5,-1
 92 52 l 1,6,-1
 94 273 l 1,7,-1
 92 380 l 1,8,-1
 90 473 l 1,9,-1
 104 487 l 1,10,-1
 89 533 l 1,11,-1
 101 594 l 1,12,-1
 99 687 l 1,13,-1
 117 709 l 1,14,-1
 145 702 l 1,15,-1
 159 716 l 1,16,-1
 137 744 l 1,17,-1
 151 763 l 1,18,-1
 211 764 l 1,19,-1
 226 750 l 1,20,-1
 219 718 l 1,21,-1
 220 697 l 1,22,-1
 160 684 l 1,23,-1
 139 655 l 1,24,-1
 172 635 l 1,25,-1
 187 589 l 1,26,-1
 170 549 l 1,27,-1
 172 449 l 1,28,-1
 167 375 l 1,29,-1
 153 360 l 1,30,-1
 175 314 l 1,31,-1
 179 128 l 1,32,-1
 205 108 l 1,33,-1
 293 110 l 1,34,-1
 311 131 l 1,35,-1
 316 257 l 1,36,-1
 328 311 l 1,37,-1
 328 332 l 1,38,-1
 342 318 l 1,39,-1
 347 325 l 1,40,-1
 346 346 l 1,41,-1
 341 353 l 1,42,-1
 328 353 l 1,43,-1
 312 417 l 1,44,-1
 315 585 l 1,45,-1
 354 621 l 1,46,-1
 354 628 l 1,47,-1
 321 646 l 1,48,-1
 321 659 l 1,49,-1
 285 687 l 1,50,-1
 253 691 l 1,51,-1
 238 704 l 1,52,-1
 252 725 l 1,53,-1
 244 746 l 1,54,-1
 244 758 l 1,55,-1
 291 752 l 1,56,-1
 333 741 l 1,57,-1
 352 728 l 1,58,-1
 380 728 l 1,59,-1
 394 694 l 1,60,-1
 395 668 l 1,61,-1
 375 647 l 1,62,-1
 390 601 l 1,63,-1
 398 547 l 1,64,-1
 399 473 l 1,65,-1
 386 454 l 1,66,-1
 379 447 l 1,67,-1
 394 408 l 1,68,-1
 387 379 l 1,69,-1
 374 340 l 1,70,-1
 396 301 l 1,71,-1
 400 133 l 1,72,-1
 400 133 l 1,0,-1
285 719 m 1,73,-1
 284 733 l 1,74,-1
 259 733 l 1,75,-1
 285 719 l 1,76,-1
 285 719 l 1,73,-1
EndSplineSet
EndChar

StartChar: e
Encoding: 101 101 72
Width: 500
GlyphClass: 1
Flags: W
LayerCount: 2
Fore
SplineSet
417 71 m 1,0,-1
 404 31 l 1,1,-1
 365 2 l 1,2,-1
 158 11 l 1,3,-1
 116 24 l 1,4,-1
 96 84 l 1,5,-1
 108 196 l 1,6,-1
 104 352 l 1,7,-1
 115 378 l 1,8,-1
 114 420 l 1,9,-1
 121 420 l 1,10,-1
 135 432 l 1,11,-1
 101 473 l 1,12,-1
 119 532 l 1,13,-1
 124 599 l 1,14,-1
 129 713 l 1,15,-1
 209 757 l 1,16,-1
 288 770 l 1,17,-1
 381 765 l 1,18,-1
 402 754 l 1,19,-1
 417 726 l 1,20,-1
 410 705 l 1,21,-1
 379 672 l 1,22,-1
 276 677 l 1,23,-1
 236 690 l 1,24,-1
 169 695 l 1,25,-1
 137 667 l 1,26,-1
 163 642 l 1,27,-1
 184 621 l 1,28,-1
 195 468 l 1,29,-1
 174 447 l 1,30,-1
 174 433 l 1,31,-1
 189 421 l 1,32,-1
 235 427 l 1,33,-1
 349 430 l 1,34,-1
 370 411 l 1,35,-1
 364 365 l 1,36,-1
 330 343 l 1,37,-1
 297 342 l 1,38,-1
 250 362 l 1,39,-1
 190 361 l 1,40,-1
 176 347 l 1,41,-1
 180 172 l 1,42,-1
 189 112 l 1,43,-1
 210 99 l 1,44,-1
 391 103 l 1,45,-1
 417 71 l 1,46,-1
 417 71 l 1,0,-1
EndSplineSet
EndChar

StartChar: f
Encoding: 102 102 73
Width: 450
GlyphClass: 1
Flags: W
LayerCount: 2
Fore
SplineSet
398 702 m 1,0,-1
 384 687 l 1,1,-1
 330 700 l 1,2,-1
 277 692 l 1,3,-1
 244 678 l 1,4,-1
 195 684 l 1,5,-1
 177 683 l 1,6,-1
 163 669 l 1,7,-1
 157 615 l 1,8,-1
 172 604 l 1,9,-1
 158 569 l 1,10,-1
 173 543 l 1,11,-1
 175 441 l 1,12,-1
 168 436 l 1,13,-1
 189 416 l 1,14,-1
 250 424 l 1,15,-1
 310 425 l 1,16,-1
 329 405 l 1,17,-1
 330 379 l 1,18,-1
 311 358 l 1,19,-1
 258 357 l 1,20,-1
 230 377 l 1,21,-1
 163 348 l 1,22,-1
 156 327 l 1,23,-1
 178 295 l 1,24,-1
 173 202 l 1,25,-1
 175 95 l 1,26,-1
 197 53 l 1,27,-1
 155 20 l 1,28,-1
 123 19 l 1,29,-1
 108 40 l 1,30,-1
 114 126 l 1,31,-1
 110 326 l 1,32,-1
 112 568 l 1,33,-1
 125 582 l 1,34,-1
 104 614 l 1,35,-1
 117 661 l 1,36,-1
 156 690 l 1,37,-1
 156 697 l 1,38,-1
 109 710 l 1,39,-1
 109 714 l 1,40,-1
 122 729 l 1,41,-1
 162 729 l 1,42,-1
 169 723 l 1,43,-1
 208 758 l 1,44,-1
 229 766 l 1,45,-1
 315 739 l 1,46,-1
 357 740 l 1,47,-1
 397 741 l 1,48,-1
 398 702 l 1,49,-1
 398 702 l 1,0,-1
EndSplineSet
EndChar

StartChar: g
Encoding: 103 103 74
Width: 500
GlyphClass: 1
Flags: W
LayerCount: 2
Fore
SplineSet
404 175 m 1,0,-1
 383 163 l 1,1,-1
 376 156 l 1,2,-1
 383 149 l 1,3,-1
 397 149 l 1,4,-1
 384 95 l 1,5,-1
 305 19 l 1,6,-1
 218 18 l 1,7,-1
 164 56 l 1,8,-1
 135 97 l 1,9,-1
 127 165 l 1,10,-1
 162 165 l 1,11,-1
 217 92 l 1,12,-1
 217 78 l 1,13,-1
 224 71 l 1,14,-1
 243 72 l 1,15,-1
 257 86 l 1,16,-1
 296 94 l 1,17,-1
 349 141 l 1,18,-1
 343 188 l 1,19,-1
 329 201 l 1,20,-1
 334 288 l 1,21,-1
 340 336 l 1,22,-1
 340 348 l 1,23,-1
 258 360 l 1,24,-1
 257 400 l 1,25,-1
 285 421 l 1,26,-1
 311 415 l 1,27,-1
 358 369 l 1,28,-1
 365 377 l 1,29,-1
 379 377 l 1,30,-1
 386 370 l 1,31,-1
 386 349 l 1,32,-1
 373 337 l 1,33,-1
 395 284 l 1,34,-1
 381 263 l 1,35,-1
 403 189 l 1,36,-1
 404 175 l 1,37,-1
 404 175 l 1,0,-1
189 447 m 1,38,-1
 176 419 l 1,39,-1
 178 305 l 1,40,-1
 180 212 l 1,41,-1
 169 177 l 1,42,-1
 126 218 l 1,43,-1
 124 325 l 1,44,-1
 144 372 l 1,45,-1
 143 398 l 1,46,-1
 136 405 l 1,47,-1
 117 458 l 1,48,-1
 127 532 l 1,49,-1
 147 586 l 1,50,-1
 153 593 l 1,51,-1
 172 594 l 1,52,-1
 174 505 l 1,53,-1
 174 480 l 1,54,-1
 189 447 l 1,55,-1
 189 447 l 1,38,-1
374 623 m 1,56,-1
 353 618 l 1,57,-1
 339 618 l 1,58,-1
 338 644 l 1,59,-1
 298 671 l 1,60,-1
 226 688 l 1,61,-1
 185 633 l 1,62,-1
 160 619 l 1,63,-1
 131 653 l 1,64,-1
 145 686 l 1,65,-1
 183 726 l 1,66,-1
 197 727 l 1,67,-1
 212 694 l 1,68,-1
 230 702 l 1,69,-1
 237 723 l 1,70,-1
 236 741 l 1,71,-1
 264 749 l 1,72,-1
 304 750 l 1,73,-1
 358 704 l 1,74,-1
 358 690 l 1,75,-1
 338 676 l 1,76,-1
 338 664 l 1,77,-1
 352 651 l 1,78,-1
 373 651 l 1,79,-1
 374 623 l 1,80,-1
 374 623 l 1,56,-1
EndSplineSet
EndChar

StartChar: h
Encoding: 104 104 75
Width: 500
GlyphClass: 1
Flags: W
LayerCount: 2
Fore
SplineSet
420 79 m 1,0,-1
 407 39 l 1,1,-1
 367 24 l 1,2,-1
 339 38 l 1,3,-1
 325 51 l 1,4,-1
 341 252 l 1,5,-1
 347 298 l 1,6,-1
 365 334 l 1,7,-1
 393 334 l 1,8,-1
 407 321 l 1,9,-1
 404 153 l 1,10,-1
 405 118 l 1,11,-1
 420 79 l 1,12,-1
 420 79 l 1,0,-1
402 574 m 1,13,-1
 390 481 l 1,14,-1
 345 387 l 1,15,-1
 292 372 l 1,16,-1
 257 371 l 1,17,-1
 224 396 l 1,18,-1
 196 390 l 1,19,-1
 179 355 l 1,20,-1
 180 281 l 1,21,-1
 195 242 l 1,22,-1
 183 167 l 1,23,-1
 198 102 l 1,24,-1
 192 48 l 1,25,-1
 172 27 l 1,26,-1
 125 26 l 1,27,-1
 104 53 l 1,28,-1
 110 107 l 1,29,-1
 105 307 l 1,30,-1
 119 328 l 1,31,-1
 144 329 l 1,32,-1
 151 334 l 1,33,-1
 118 368 l 1,34,-1
 103 400 l 1,35,-1
 108 521 l 1,36,-1
 107 561 l 1,37,-1
 106 582 l 1,38,-1
 112 628 l 1,39,-1
 145 636 l 1,40,-1
 151 643 l 1,41,-1
 112 656 l 1,42,-1
 111 689 l 1,43,-1
 124 703 l 1,44,-1
 124 717 l 1,45,-1
 103 728 l 1,46,-1
 109 756 l 1,47,-1
 163 757 l 1,48,-1
 184 737 l 1,49,-1
 178 690 l 1,50,-1
 144 664 l 1,51,-1
 144 650 l 1,52,-1
 151 643 l 1,53,-1
 172 643 l 1,54,-1
 188 562 l 1,55,-1
 176 476 l 1,56,-1
 209 444 l 1,57,-1
 245 424 l 1,58,-1
 284 446 l 1,59,-1
 323 447 l 1,60,-1
 337 459 l 1,61,-1
 350 505 l 1,62,-1
 368 520 l 1,63,-1
 375 527 l 1,64,-1
 334 566 l 1,65,-1
 334 601 l 1,66,-1
 332 661 l 1,67,-1
 345 733 l 1,68,-1
 363 755 l 1,69,-1
 370 755 l 1,70,-1
 385 702 l 1,71,-1
 387 595 l 1,72,-1
 402 574 l 1,73,-1
 402 574 l 1,13,-1
EndSplineSet
EndChar

StartChar: i
Encoding: 105 105 76
Width: 329
GlyphClass: 1
Flags: W
LayerCount: 2
Fore
SplineSet
218 39 m 1,0,-1
 191 11 l 1,1,-1
 152 9 l 1,2,-1
 123 37 l 1,3,-1
 120 144 l 1,4,-1
 131 263 l 1,5,-1
 121 383 l 1,6,-1
 141 426 l 1,7,-1
 126 458 l 1,8,-1
 129 611 l 1,9,-1
 128 646 l 1,10,-1
 126 718 l 1,11,-1
 140 740 l 1,12,-1
 160 747 l 1,13,-1
 179 748 l 1,14,-1
 208 714 l 1,15,-1
 209 655 l 1,16,-1
 175 620 l 1,17,-1
 197 606 l 1,18,-1
 211 595 l 1,19,-1
 211 574 l 1,20,-1
 184 559 l 1,21,-1
 179 499 l 1,22,-1
 179 480 l 1,23,-1
 208 453 l 1,24,-1
 208 420 l 1,25,-1
 174 399 l 1,26,-1
 203 367 l 1,27,-1
 198 299 l 1,28,-1
 198 278 l 1,29,-1
 178 264 l 1,30,-1
 173 259 l 1,31,-1
 186 217 l 1,32,-1
 175 205 l 1,33,-1
 175 192 l 1,34,-1
 208 158 l 1,35,-1
 217 97 l 1,36,-1
 218 39 l 1,37,-1
 218 39 l 1,0,-1
EndSplineSet
EndChar

StartChar: j
Encoding: 106 106 77
Width: 329
GlyphClass: 1
Flags: W
LayerCount: 2
Fore
SplineSet
256 244 m 1,0,-1
 230 116 l 1,1,-1
 231 76 l 1,2,-1
 172 14 l 1,3,-1
 72 19 l 1,4,-1
 51 30 l 1,5,-1
 46 37 l 1,6,-1
 45 91 l 1,7,-1
 77 119 l 1,8,-1
 130 113 l 1,9,-1
 151 135 l 1,10,-1
 152 307 l 1,11,-1
 161 523 l 1,12,-1
 160 577 l 1,13,-1
 163 751 l 1,14,-1
 177 763 l 1,15,-1
 216 771 l 1,16,-1
 223 771 l 1,17,-1
 237 758 l 1,18,-1
 224 704 l 1,19,-1
 218 697 l 1,20,-1
 239 679 l 1,21,-1
 227 571 l 1,22,-1
 249 544 l 1,23,-1
 223 436 l 1,24,-1
 224 411 l 1,25,-1
 245 390 l 1,26,-1
 239 351 l 1,27,-1
 226 322 l 1,28,-1
 227 269 l 1,29,-1
 256 244 l 1,30,-1
 256 244 l 1,0,-1
EndSplineSet
EndChar

StartChar: k
Encoding: 107 107 78
Width: 469
GlyphClass: 1
Flags: W
LayerCount: 2
Fore
SplineSet
395 85 m 1,0,-1
 382 50 l 1,1,-1
 378 45 l 1,2,-1
 357 45 l 1,3,-1
 323 84 l 1,4,-1
 316 123 l 1,5,-1
 301 137 l 1,6,-1
 286 211 l 1,7,-1
 278 264 l 1,8,-1
 259 283 l 1,9,-1
 244 336 l 1,10,-1
 197 335 l 1,11,-1
 177 316 l 1,12,-1
 192 235 l 1,13,-1
 179 221 l 1,14,-1
 201 168 l 1,15,-1
 187 149 l 1,16,-1
 189 42 l 1,17,-1
 176 27 l 1,18,-1
 150 27 l 1,19,-1
 122 45 l 1,20,-1
 125 213 l 1,21,-1
 123 315 l 1,22,-1
 123 347 l 1,23,-1
 135 422 l 1,24,-1
 114 454 l 1,25,-1
 126 554 l 1,26,-1
 123 661 l 1,27,-1
 137 683 l 1,28,-1
 129 729 l 1,29,-1
 143 743 l 1,30,-1
 175 744 l 1,31,-1
 197 723 l 1,32,-1
 183 691 l 1,33,-1
 186 537 l 1,34,-1
 180 523 l 1,35,-1
 180 502 l 1,36,-1
 201 484 l 1,37,-1
 234 503 l 1,38,-1
 247 517 l 1,39,-1
 240 545 l 1,40,-1
 260 564 l 1,41,-1
 271 618 l 1,42,-1
 316 693 l 1,43,-1
 336 715 l 1,44,-1
 343 715 l 1,45,-1
 358 680 l 1,46,-1
 370 680 l 1,47,-1
 370 673 l 1,48,-1
 365 673 l 1,49,-1
 351 687 l 1,50,-1
 337 673 l 1,51,-1
 332 600 l 1,52,-1
 294 511 l 1,53,-1
 288 465 l 1,54,-1
 274 450 l 1,55,-1
 289 411 l 1,56,-1
 264 383 l 1,57,-1
 264 378 l 1,58,-1
 269 371 l 1,59,-1
 283 383 l 1,60,-1
 304 365 l 1,61,-1
 319 319 l 1,62,-1
 339 259 l 1,63,-1
 339 212 l 1,64,-1
 375 171 l 1,65,-1
 377 104 l 1,66,-1
 395 85 l 1,67,-1
 395 85 l 1,0,-1
EndSplineSet
EndChar

StartChar: l
Encoding: 108 108 79
Width: 458
GlyphClass: 1
Flags: W
LayerCount: 2
Fore
SplineSet
415 87 m 1,0,-1
 409 40 l 1,1,-1
 391 19 l 1,2,-1
 142 13 l 1,3,-1
 121 27 l 1,4,-1
 109 40 l 1,5,-1
 112 201 l 1,6,-1
 123 241 l 1,7,-1
 111 268 l 1,8,-1
 114 361 l 1,9,-1
 112 422 l 1,10,-1
 100 447 l 1,11,-1
 110 508 l 1,12,-1
 112 736 l 1,13,-1
 133 757 l 1,14,-1
 179 751 l 1,15,-1
 194 724 l 1,16,-1
 198 545 l 1,17,-1
 199 510 l 1,18,-1
 193 463 l 1,19,-1
 179 437 l 1,20,-1
 181 377 l 1,21,-1
 196 310 l 1,22,-1
 191 214 l 1,23,-1
 178 202 l 1,24,-1
 185 175 l 1,25,-1
 193 121 l 1,26,-1
 193 114 l 1,27,-1
 215 96 l 1,28,-1
 301 98 l 1,29,-1
 401 100 l 1,30,-1
 415 87 l 1,31,-1
 415 87 l 1,0,-1
EndSplineSet
EndChar

StartChar: m
Encoding: 109 109 80
Width: 500
GlyphClass: 1
Flags: W
LayerCount: 2
Fore
SplineSet
454 188 m 1,0,-1
 429 141 l 1,1,-1
 449 102 l 1,2,-1
 438 74 l 1,3,-1
 438 49 l 1,4,-1
 418 34 l 1,5,-1
 385 40 l 1,6,-1
 378 40 l 1,7,-1
 364 54 l 1,8,-1
 361 207 l 1,9,-1
 355 461 l 1,10,-1
 348 468 l 1,11,-1
 335 449 l 1,12,-1
 329 374 l 1,13,-1
 311 334 l 1,14,-1
 306 267 l 1,15,-1
 286 225 l 1,16,-1
 254 191 l 1,17,-1
 233 198 l 1,18,-1
 200 211 l 1,19,-1
 185 237 l 1,20,-1
 177 318 l 1,21,-1
 135 410 l 1,22,-1
 128 417 l 1,23,-1
 115 384 l 1,24,-1
 121 82 l 1,25,-1
 108 54 l 1,26,-1
 96 49 l 1,27,-1
 75 48 l 1,28,-1
 54 87 l 1,29,-1
 50 262 l 1,30,-1
 64 276 l 1,31,-1
 55 362 l 1,32,-1
 48 376 l 1,33,-1
 47 394 l 1,34,-1
 74 437 l 1,35,-1
 81 444 l 1,36,-1
 60 462 l 1,37,-1
 45 529 l 1,38,-1
 86 555 l 1,39,-1
 97 570 l 1,40,-1
 78 616 l 1,41,-1
 71 623 l 1,42,-1
 78 630 l 1,43,-1
 92 630 l 1,44,-1
 92 611 l 1,45,-1
 97 605 l 1,46,-1
 118 605 l 1,47,-1
 117 638 l 1,48,-1
 90 690 l 1,49,-1
 82 744 l 1,50,-1
 107 765 l 1,51,-1
 121 766 l 1,52,-1
 155 720 l 1,53,-1
 157 631 l 1,54,-1
 186 578 l 1,55,-1
 180 525 l 1,56,-1
 201 504 l 1,57,-1
 209 458 l 1,58,-1
 243 387 l 1,59,-1
 250 387 l 1,60,-1
 264 399 l 1,61,-1
 267 459 l 1,62,-1
 281 473 l 1,63,-1
 286 555 l 1,64,-1
 323 674 l 1,65,-1
 337 702 l 1,66,-1
 343 710 l 1,67,-1
 329 723 l 1,68,-1
 329 749 l 1,69,-1
 363 777 l 1,70,-1
 417 771 l 1,71,-1
 443 737 l 1,72,-1
 444 677 l 1,73,-1
 431 658 l 1,74,-1
 398 676 l 1,75,-1
 391 683 l 1,76,-1
 365 656 l 1,77,-1
 406 604 l 1,78,-1
 431 618 l 1,79,-1
 438 618 l 1,80,-1
 445 612 l 1,81,-1
 432 590 l 1,82,-1
 407 562 l 1,83,-1
 422 523 l 1,84,-1
 430 476 l 1,85,-1
 435 444 l 1,86,-1
 435 423 l 1,87,-1
 410 395 l 1,88,-1
 418 355 l 1,89,-1
 427 234 l 1,90,-1
 454 188 l 1,91,-1
 454 188 l 1,0,-1
EndSplineSet
EndChar

StartChar: n
Encoding: 110 110 81
Width: 500
GlyphClass: 1
Flags: W
LayerCount: 2
Fore
SplineSet
412 192 m 1,0,-1
 408 52 l 1,1,-1
 387 31 l 1,2,-1
 348 30 l 1,3,-1
 306 131 l 1,4,-1
 292 157 l 1,5,-1
 283 224 l 1,6,-1
 249 302 l 1,7,-1
 219 404 l 1,8,-1
 218 458 l 1,9,-1
 197 490 l 1,10,-1
 192 497 l 1,11,-1
 185 496 l 1,12,-1
 179 450 l 1,13,-1
 179 75 l 1,14,-1
 159 33 l 1,15,-1
 141 19 l 1,16,-1
 120 25 l 1,17,-1
 98 60 l 1,18,-1
 101 281 l 1,19,-1
 97 462 l 1,20,-1
 111 474 l 1,21,-1
 117 516 l 1,22,-1
 137 542 l 1,23,-1
 148 596 l 1,24,-1
 155 603 l 1,25,-1
 141 616 l 1,26,-1
 140 642 l 1,27,-1
 135 649 l 1,28,-1
 128 649 l 1,29,-1
 146 684 l 1,30,-1
 139 702 l 1,31,-1
 166 731 l 1,32,-1
 180 731 l 1,33,-1
 181 703 l 1,34,-1
 188 696 l 1,35,-1
 201 636 l 1,36,-1
 194 631 l 1,37,-1
 215 604 l 1,38,-1
 230 565 l 1,39,-1
 256 537 l 1,40,-1
 272 466 l 1,41,-1
 293 424 l 1,42,-1
 301 378 l 1,43,-1
 309 345 l 1,44,-1
 328 325 l 1,45,-1
 335 325 l 1,46,-1
 338 525 l 1,47,-1
 351 546 l 1,48,-1
 350 600 l 1,49,-1
 361 653 l 1,50,-1
 389 628 l 1,51,-1
 369 586 l 1,52,-1
 405 522 l 1,53,-1
 409 326 l 1,54,-1
 397 252 l 1,55,-1
 412 192 l 1,56,-1
 412 192 l 1,0,-1
367 700 m 1,57,-1
 355 700 l 1,58,-1
 355 728 l 1,59,-1
 359 742 l 1,60,-1
 366 721 l 1,61,-1
 367 700 l 1,62,-1
 367 700 l 1,57,-1
EndSplineSet
EndChar

StartChar: o
Encoding: 111 111 82
Width: 500
GlyphClass: 1
Flags: W
LayerCount: 2
Fore
SplineSet
405 293 m 1,0,-1
 392 271 l 1,1,-1
 396 111 l 1,2,-1
 369 57 l 1,3,-1
 317 9 l 1,4,-1
 285 -6 l 1,5,-1
 185 -2 l 1,6,-1
 108 71 l 1,7,-1
 88 135 l 1,8,-1
 98 196 l 1,9,-1
 98 217 l 1,10,-1
 105 217 l 1,11,-1
 125 239 l 1,12,-1
 131 285 l 1,13,-1
 124 292 l 1,14,-1
 110 292 l 1,15,-1
 109 331 l 1,16,-1
 129 339 l 1,17,-1
 171 266 l 1,18,-1
 173 166 l 1,19,-1
 153 144 l 1,20,-1
 196 113 l 1,21,-1
 215 92 l 1,22,-1
 275 94 l 1,23,-1
 314 141 l 1,24,-1
 323 330 l 1,25,-1
 312 483 l 1,26,-1
 304 490 l 1,27,-1
 304 511 l 1,28,-1
 318 525 l 1,29,-1
 330 572 l 1,30,-1
 308 618 l 1,31,-1
 246 684 l 1,32,-1
 252 703 l 1,33,-1
 252 724 l 1,34,-1
 233 737 l 1,35,-1
 259 724 l 1,36,-1
 286 739 l 1,37,-1
 333 719 l 1,38,-1
 389 646 l 1,39,-1
 404 600 l 1,40,-1
 405 293 l 1,41,-1
 405 293 l 1,0,-1
207 655 m 1,42,-1
 182 622 l 1,43,-1
 156 561 l 1,44,-1
 157 540 l 1,45,-1
 178 515 l 1,46,-1
 174 412 l 1,47,-1
 147 358 l 1,48,-1
 122 357 l 1,49,-1
 115 364 l 1,50,-1
 114 392 l 1,51,-1
 113 411 l 1,52,-1
 99 431 l 1,53,-1
 104 524 l 1,54,-1
 117 539 l 1,55,-1
 102 573 l 1,56,-1
 102 578 l 1,57,-1
 116 592 l 1,58,-1
 134 593 l 1,59,-1
 148 607 l 1,60,-1
 128 653 l 1,61,-1
 191 722 l 1,62,-1
 205 722 l 1,63,-1
 207 655 l 1,64,-1
 207 655 l 1,42,-1
EndSplineSet
EndChar

StartChar: p
Encoding: 112 112 83
Width: 500
GlyphClass: 1
Flags: W
LayerCount: 2
Fore
SplineSet
437 650 m 1,0,-1
 430 650 l 1,1,-1
 419 636 l 1,2,-1
 432 536 l 1,3,-1
 433 508 l 1,4,-1
 421 494 l 1,5,-1
 415 440 l 1,6,-1
 395 400 l 1,7,-1
 343 360 l 1,8,-1
 201 350 l 1,9,-1
 190 336 l 1,10,-1
 195 54 l 1,11,-1
 168 28 l 1,12,-1
 149 21 l 1,13,-1
 121 46 l 1,14,-1
 125 174 l 1,15,-1
 124 220 l 1,16,-1
 124 260 l 1,17,-1
 129 321 l 1,18,-1
 129 348 l 1,19,-1
 126 502 l 1,20,-1
 137 623 l 1,21,-1
 122 690 l 1,22,-1
 128 751 l 1,23,-1
 281 773 l 1,24,-1
 349 760 l 1,25,-1
 410 722 l 1,26,-1
 418 682 l 1,27,-1
 437 662 l 1,28,-1
 437 650 l 1,29,-1
 437 650 l 1,0,-1
330 660 m 1,30,-1
 315 673 l 1,31,-1
 269 679 l 1,32,-1
 255 693 l 1,33,-1
 194 692 l 1,34,-1
 190 678 l 1,35,-1
 203 597 l 1,36,-1
 205 478 l 1,37,-1
 220 429 l 1,38,-1
 313 438 l 1,39,-1
 327 452 l 1,40,-1
 330 660 l 1,41,-1
 330 660 l 1,30,-1
EndSplineSet
EndChar

StartChar: q
Encoding: 113 113 84
Width: 500
GlyphClass: 1
Flags: W
LayerCount: 2
Fore
SplineSet
422 67 m 1,0,-1
 412 -1 l 1,1,-1
 391 -1 l 1,2,-1
 358 26 l 1,3,-1
 337 25 l 1,4,-1
 323 11 l 1,5,-1
 170 14 l 1,6,-1
 100 80 l 1,7,-1
 86 112 l 1,8,-1
 98 187 l 1,9,-1
 118 199 l 1,10,-1
 115 306 l 1,11,-1
 129 320 l 1,12,-1
 162 288 l 1,13,-1
 173 154 l 1,14,-1
 188 108 l 1,15,-1
 243 69 l 1,16,-1
 289 78 l 1,17,-1
 309 111 l 1,18,-1
 324 246 l 1,19,-1
 324 265 l 1,20,-1
 323 293 l 1,21,-1
 321 346 l 1,22,-1
 335 367 l 1,23,-1
 313 399 l 1,24,-1
 308 592 l 1,25,-1
 267 640 l 1,26,-1
 200 638 l 1,27,-1
 168 617 l 1,28,-1
 169 584 l 1,29,-1
 148 562 l 1,30,-1
 109 568 l 1,31,-1
 108 594 l 1,32,-1
 128 615 l 1,33,-1
 113 655 l 1,34,-1
 131 690 l 1,35,-1
 165 716 l 1,36,-1
 211 739 l 1,37,-1
 279 733 l 1,38,-1
 340 702 l 1,39,-1
 388 629 l 1,40,-1
 403 595 l 1,41,-1
 400 434 l 1,42,-1
 387 415 l 1,43,-1
 388 380 l 1,44,-1
 402 113 l 1,45,-1
 422 67 l 1,46,-1
 422 67 l 1,0,-1
164 488 m 1,47,-1
 160 363 l 1,48,-1
 154 356 l 1,49,-1
 121 366 l 1,50,-1
 92 400 l 1,51,-1
 111 455 l 1,52,-1
 97 468 l 1,53,-1
 96 508 l 1,54,-1
 123 529 l 1,55,-1
 164 488 l 1,56,-1
 164 488 l 1,47,-1
EndSplineSet
EndChar

StartChar: r
Encoding: 114 114 85
Width: 500
GlyphClass: 1
Flags: W
LayerCount: 2
Fore
SplineSet
408 464 m 1,0,-1
 382 463 l 1,1,-1
 369 451 l 1,2,-1
 369 437 l 1,3,-1
 390 424 l 1,4,-1
 384 384 l 1,5,-1
 357 349 l 1,6,-1
 358 290 l 1,7,-1
 382 196 l 1,8,-1
 404 29 l 1,9,-1
 379 3 l 1,10,-1
 339 2 l 1,11,-1
 303 61 l 1,12,-1
 286 186 l 1,13,-1
 274 200 l 1,14,-1
 265 300 l 1,15,-1
 244 320 l 1,16,-1
 211 327 l 1,17,-1
 191 298 l 1,18,-1
 193 219 l 1,19,-1
 197 38 l 1,20,-1
 158 -3 l 1,21,-1
 104 3 l 1,22,-1
 90 22 l 1,23,-1
 92 243 l 1,24,-1
 104 338 l 1,25,-1
 102 403 l 1,26,-1
 107 706 l 1,27,-1
 155 753 l 1,28,-1
 269 742 l 1,29,-1
 309 724 l 1,30,-1
 335 690 l 1,31,-1
 336 683 l 1,32,-1
 297 657 l 1,33,-1
 218 655 l 1,34,-1
 204 641 l 1,35,-1
 200 508 l 1,36,-1
 201 440 l 1,37,-1
 216 420 l 1,38,-1
 323 422 l 1,39,-1
 336 444 l 1,40,-1
 326 571 l 1,41,-1
 325 625 l 1,42,-1
 343 644 l 1,43,-1
 378 638 l 1,44,-1
 398 612 l 1,45,-1
 392 566 l 1,46,-1
 367 537 l 1,47,-1
 374 516 l 1,48,-1
 374 505 l 1,49,-1
 408 478 l 1,50,-1
 408 464 l 1,51,-1
 408 464 l 1,0,-1
EndSplineSet
EndChar

StartChar: s
Encoding: 115 115 86
Width: 500
GlyphClass: 1
Flags: W
LayerCount: 2
Fore
SplineSet
384 593 m 1,0,-1
 371 581 l 1,1,-1
 345 585 l 1,2,-1
 337 627 l 1,3,-1
 337 646 l 1,4,-1
 301 680 l 1,5,-1
 254 697 l 1,6,-1
 254 718 l 1,7,-1
 247 725 l 1,8,-1
 233 711 l 1,9,-1
 233 704 l 1,10,-1
 240 697 l 1,11,-1
 215 697 l 1,12,-1
 181 663 l 1,13,-1
 156 595 l 1,14,-1
 165 528 l 1,15,-1
 192 464 l 1,16,-1
 246 411 l 1,17,-1
 295 391 l 1,18,-1
 314 392 l 1,19,-1
 343 364 l 1,20,-1
 368 365 l 1,21,-1
 362 325 l 1,22,-1
 351 311 l 1,23,-1
 354 125 l 1,24,-1
 334 90 l 1,25,-1
 321 50 l 1,26,-1
 303 36 l 1,27,-1
 275 35 l 1,28,-1
 261 21 l 1,29,-1
 182 26 l 1,30,-1
 139 53 l 1,31,-1
 106 99 l 1,32,-1
 104 206 l 1,33,-1
 125 213 l 1,34,-1
 143 214 l 1,35,-1
 157 200 l 1,36,-1
 158 147 l 1,37,-1
 241 88 l 1,38,-1
 260 81 l 1,39,-1
 274 81 l 1,40,-1
 326 150 l 1,41,-1
 338 246 l 1,42,-1
 330 285 l 1,43,-1
 315 338 l 1,44,-1
 315 352 l 1,45,-1
 301 363 l 1,46,-1
 296 356 l 1,47,-1
 215 355 l 1,48,-1
 168 375 l 1,49,-1
 128 402 l 1,50,-1
 106 427 l 1,51,-1
 102 662 l 1,52,-1
 175 738 l 1,53,-1
 221 750 l 1,54,-1
 274 747 l 1,55,-1
 293 747 l 1,56,-1
 321 727 l 1,57,-1
 314 720 l 1,58,-1
 315 713 l 1,59,-1
 354 706 l 1,60,-1
 369 667 l 1,61,-1
 384 621 l 1,62,-1
 384 593 l 1,63,-1
 384 593 l 1,0,-1
EndSplineSet
EndChar

StartChar: t
Encoding: 116 116 87
Width: 399
GlyphClass: 1
Flags: W
LayerCount: 2
Fore
SplineSet
321 711 m 1,0,-1
 304 671 l 1,1,-1
 255 649 l 1,2,-1
 245 623 l 1,3,-1
 240 534 l 1,4,-1
 233 527 l 1,5,-1
 252 502 l 1,6,-1
 250 413 l 1,7,-1
 236 401 l 1,8,-1
 257 328 l 1,9,-1
 249 174 l 1,10,-1
 263 114 l 1,11,-1
 254 13 l 1,12,-1
 219 -8 l 1,13,-1
 186 5 l 1,14,-1
 172 37 l 1,15,-1
 169 411 l 1,16,-1
 174 486 l 1,17,-1
 172 560 l 1,18,-1
 163 646 l 1,19,-1
 88 658 l 1,20,-1
 76 658 l 1,21,-1
 55 683 l 1,22,-1
 79 732 l 1,23,-1
 207 729 l 1,24,-1
 281 724 l 1,25,-1
 314 718 l 1,26,-1
 321 711 l 1,27,-1
 321 711 l 1,0,-1
EndSplineSet
EndChar

StartChar: u
Encoding: 117 117 88
Width: 500
GlyphClass: 1
Flags: W
LayerCount: 2
Fore
SplineSet
414 429 m 1,0,-1
 407 389 l 1,1,-1
 389 289 l 1,2,-1
 375 275 l 1,3,-1
 397 235 l 1,4,-1
 399 140 l 1,5,-1
 371 140 l 1,6,-1
 371 100 l 1,7,-1
 379 93 l 1,8,-1
 368 60 l 1,9,-1
 294 10 l 1,10,-1
 220 9 l 1,11,-1
 152 42 l 1,12,-1
 118 81 l 1,13,-1
 95 180 l 1,14,-1
 100 288 l 1,15,-1
 103 483 l 1,16,-1
 102 537 l 1,17,-1
 100 623 l 1,18,-1
 105 725 l 1,19,-1
 130 751 l 1,20,-1
 165 745 l 1,21,-1
 187 713 l 1,22,-1
 167 666 l 1,23,-1
 181 645 l 1,24,-1
 174 317 l 1,25,-1
 185 136 l 1,26,-1
 211 111 l 1,27,-1
 292 112 l 1,28,-1
 324 153 l 1,29,-1
 337 199 l 1,30,-1
 320 366 l 1,31,-1
 317 501 l 1,32,-1
 329 569 l 1,33,-1
 313 708 l 1,34,-1
 326 748 l 1,35,-1
 393 742 l 1,36,-1
 408 717 l 1,37,-1
 409 682 l 1,38,-1
 395 670 l 1,39,-1
 399 449 l 1,40,-1
 414 429 l 1,41,-1
 414 429 l 1,0,-1
EndSplineSet
EndChar

StartChar: v
Encoding: 118 118 89
Width: 500
GlyphClass: 1
Flags: W
LayerCount: 2
Fore
SplineSet
336 208 m 1,0,-1
 323 189 l 1,1,-1
 325 89 l 1,2,-1
 302 14 l 1,3,-1
 274 -15 l 1,4,-1
 235 -9 l 1,5,-1
 220 5 l 1,6,-1
 212 79 l 1,7,-1
 211 98 l 1,8,-1
 184 139 l 1,9,-1
 187 204 l 1,10,-1
 187 225 l 1,11,-1
 175 239 l 1,12,-1
 166 306 l 1,13,-1
 143 391 l 1,14,-1
 134 452 l 1,15,-1
 121 519 l 1,16,-1
 105 579 l 1,17,-1
 82 664 l 1,18,-1
 88 704 l 1,19,-1
 134 733 l 1,20,-1
 155 727 l 1,21,-1
 181 702 l 1,22,-1
 190 634 l 1,23,-1
 205 607 l 1,24,-1
 207 500 l 1,25,-1
 230 440 l 1,26,-1
 244 340 l 1,27,-1
 245 313 l 1,28,-1
 260 287 l 1,29,-1
 268 241 l 1,30,-1
 275 234 l 1,31,-1
 282 234 l 1,32,-1
 300 256 l 1,33,-1
 288 274 l 1,34,-1
 287 288 l 1,35,-1
 299 302 l 1,36,-1
 320 303 l 1,37,-1
 334 268 l 1,38,-1
 322 228 l 1,39,-1
 336 208 l 1,40,-1
 336 208 l 1,0,-1
432 641 m 1,41,-1
 405 605 l 1,42,-1
 399 552 l 1,43,-1
 369 472 l 1,44,-1
 345 390 l 1,45,-1
 345 383 l 1,46,-1
 350 376 l 1,47,-1
 346 371 l 1,48,-1
 332 371 l 1,49,-1
 310 403 l 1,50,-1
 350 671 l 1,51,-1
 370 707 l 1,52,-1
 390 719 l 1,53,-1
 409 719 l 1,54,-1
 430 701 l 1,55,-1
 432 641 l 1,56,-1
 432 641 l 1,41,-1
EndSplineSet
EndChar

StartChar: w
Encoding: 119 119 90
Width: 500
GlyphClass: 1
Flags: W
LayerCount: 2
Fore
SplineSet
309 484 m 1,0,-1
 306 431 l 1,1,-1
 292 402 l 1,2,-1
 271 402 l 1,3,-1
 247 369 l 1,4,-1
 249 294 l 1,5,-1
 228 273 l 1,6,-1
 223 226 l 1,7,-1
 226 80 l 1,8,-1
 234 47 l 1,9,-1
 235 26 l 1,10,-1
 215 -2 l 1,11,-1
 203 -14 l 1,12,-1
 150 -15 l 1,13,-1
 114 16 l 1,14,-1
 93 283 l 1,15,-1
 106 311 l 1,16,-1
 90 390 l 1,17,-1
 90 411 l 1,18,-1
 89 437 l 1,19,-1
 54 517 l 1,20,-1
 36 677 l 1,21,-1
 63 717 l 1,22,-1
 117 714 l 1,23,-1
 131 701 l 1,24,-1
 157 434 l 1,25,-1
 144 385 l 1,26,-1
 113 319 l 1,27,-1
 154 271 l 1,28,-1
 154 252 l 1,29,-1
 169 239 l 1,30,-1
 176 239 l 1,31,-1
 189 253 l 1,32,-1
 189 272 l 1,33,-1
 200 286 l 1,34,-1
 188 307 l 1,35,-1
 203 428 l 1,36,-1
 191 453 l 1,37,-1
 201 500 l 1,38,-1
 229 522 l 1,39,-1
 289 516 l 1,40,-1
 309 484 l 1,41,-1
 309 484 l 1,0,-1
348 43 m 1,42,-1
 343 -6 l 1,43,-1
 296 -7 l 1,44,-1
 267 41 l 1,45,-1
 286 121 l 1,46,-1
 307 121 l 1,47,-1
 326 89 l 1,48,-1
 327 61 l 1,49,-1
 348 43 l 1,50,-1
 348 43 l 1,42,-1
384 205 m 1,51,-1
 370 197 l 1,52,-1
 351 197 l 1,53,-1
 344 218 l 1,54,-1
 357 230 l 1,55,-1
 376 230 l 1,56,-1
 383 223 l 1,57,-1
 384 205 l 1,58,-1
 384 205 l 1,51,-1
289 256 m 1,59,-1
 276 241 l 1,60,-1
 262 241 l 1,61,-1
 261 269 l 1,62,-1
 275 269 l 1,63,-1
 289 256 l 1,64,-1
 289 256 l 1,59,-1
313 342 m 1,65,-1
 280 342 l 1,66,-1
 280 349 l 1,67,-1
 273 355 l 1,68,-1
 286 370 l 1,69,-1
 307 370 l 1,70,-1
 312 363 l 1,71,-1
 313 342 l 1,72,-1
 313 342 l 1,65,-1
448 588 m 1,73,-1
 428 534 l 1,74,-1
 418 506 l 1,75,-1
 412 440 l 1,76,-1
 392 398 l 1,77,-1
 372 391 l 1,78,-1
 365 390 l 1,79,-1
 352 432 l 1,80,-1
 361 532 l 1,81,-1
 358 632 l 1,82,-1
 371 686 l 1,83,-1
 398 715 l 1,84,-1
 445 709 l 1,85,-1
 448 588 l 1,86,-1
 448 588 l 1,73,-1
EndSplineSet
EndChar

StartChar: x
Encoding: 120 120 91
Width: 500
GlyphClass: 1
Flags: W
LayerCount: 2
Fore
SplineSet
420 27 m 1,0,-1
 395 6 l 1,1,-1
 367 5 l 1,2,-1
 334 37 l 1,3,-1
 277 192 l 1,4,-1
 256 224 l 1,5,-1
 255 245 l 1,6,-1
 248 251 l 1,7,-1
 241 251 l 1,8,-1
 203 176 l 1,9,-1
 153 28 l 1,10,-1
 132 7 l 1,11,-1
 86 20 l 1,12,-1
 71 45 l 1,13,-1
 77 85 l 1,14,-1
 116 128 l 1,15,-1
 122 188 l 1,16,-1
 135 207 l 1,17,-1
 166 296 l 1,18,-1
 186 322 l 1,19,-1
 213 351 l 1,20,-1
 199 364 l 1,21,-1
 191 404 l 1,22,-1
 134 563 l 1,23,-1
 120 577 l 1,24,-1
 119 637 l 1,25,-1
 146 649 l 1,26,-1
 172 638 l 1,27,-1
 166 596 l 1,28,-1
 209 537 l 1,29,-1
 216 532 l 1,30,-1
 235 533 l 1,31,-1
 269 573 l 1,32,-1
 280 620 l 1,33,-1
 313 681 l 1,34,-1
 331 735 l 1,35,-1
 351 756 l 1,36,-1
 379 757 l 1,37,-1
 405 722 l 1,38,-1
 399 704 l 1,39,-1
 399 683 l 1,40,-1
 381 650 l 1,41,-1
 329 493 l 1,42,-1
 317 481 l 1,43,-1
 305 420 l 1,44,-1
 291 399 l 1,45,-1
 307 332 l 1,46,-1
 341 272 l 1,47,-1
 364 173 l 1,48,-1
 398 120 l 1,49,-1
 420 53 l 1,50,-1
 420 27 l 1,51,-1
 420 27 l 1,0,-1
153 677 m 1,52,-1
 132 677 l 1,53,-1
 131 702 l 1,54,-1
 145 703 l 1,55,-1
 152 698 l 1,56,-1
 153 677 l 1,57,-1
 153 677 l 1,52,-1
EndSplineSet
EndChar

StartChar: y
Encoding: 121 121 92
Width: 434
GlyphClass: 1
Flags: W
LayerCount: 2
Fore
SplineSet
340 680 m 1,0,-1
 320 659 l 1,1,-1
 335 606 l 1,2,-1
 331 491 l 1,3,-1
 312 426 l 1,4,-1
 294 404 l 1,5,-1
 296 351 l 1,6,-1
 275 322 l 1,7,-1
 277 276 l 1,8,-1
 257 222 l 1,9,-1
 279 183 l 1,10,-1
 276 15 l 1,11,-1
 256 -6 l 1,12,-1
 224 -7 l 1,13,-1
 197 27 l 1,14,-1
 195 95 l 1,15,-1
 190 281 l 1,16,-1
 161 340 l 1,17,-1
 160 380 l 1,18,-1
 146 394 l 1,19,-1
 136 493 l 1,20,-1
 143 493 l 1,21,-1
 157 508 l 1,22,-1
 156 529 l 1,23,-1
 177 529 l 1,24,-1
 189 516 l 1,25,-1
 191 448 l 1,26,-1
 219 423 l 1,27,-1
 233 424 l 1,28,-1
 271 471 l 1,29,-1
 278 478 l 1,30,-1
 257 496 l 1,31,-1
 269 585 l 1,32,-1
 306 658 l 1,33,-1
 305 707 l 1,34,-1
 312 719 l 1,35,-1
 339 720 l 1,36,-1
 340 680 l 1,37,-1
 340 680 l 1,0,-1
126 607 m 1,38,-1
 107 607 l 1,39,-1
 114 628 l 1,40,-1
 121 628 l 1,41,-1
 126 621 l 1,42,-1
 126 607 l 1,43,-1
 126 607 l 1,38,-1
112 709 m 1,44,-1
 106 674 l 1,45,-1
 85 666 l 1,46,-1
 78 666 l 1,47,-1
 66 680 l 1,48,-1
 70 720 l 1,49,-1
 97 720 l 1,50,-1
 112 709 l 1,51,-1
 112 709 l 1,44,-1
EndSplineSet
EndChar

StartChar: z
Encoding: 122 122 93
Width: 438
GlyphClass: 1
Flags: W
LayerCount: 2
Fore
SplineSet
376 62 m 1,0,-1
 370 13 l 1,1,-1
 349 12 l 1,2,-1
 335 26 l 1,3,-1
 323 26 l 1,4,-1
 309 0 l 1,5,-1
 235 17 l 1,6,-1
 216 5 l 1,7,-1
 107 -11 l 1,8,-1
 88 2 l 1,9,-1
 74 28 l 1,10,-1
 86 116 l 1,11,-1
 104 156 l 1,12,-1
 110 196 l 1,13,-1
 162 297 l 1,14,-1
 174 358 l 1,15,-1
 188 372 l 1,16,-1
 207 447 l 1,17,-1
 232 494 l 1,18,-1
 252 562 l 1,19,-1
 304 635 l 1,20,-1
 303 656 l 1,21,-1
 282 669 l 1,22,-1
 168 660 l 1,23,-1
 101 659 l 1,24,-1
 82 684 l 1,25,-1
 88 726 l 1,26,-1
 127 745 l 1,27,-1
 220 728 l 1,28,-1
 355 724 l 1,29,-1
 363 717 l 1,30,-1
 342 682 l 1,31,-1
 349 678 l 1,32,-1
 356 678 l 1,33,-1
 336 635 l 1,34,-1
 337 582 l 1,35,-1
 344 575 l 1,36,-1
 324 535 l 1,37,-1
 320 496 l 1,38,-1
 293 448 l 1,39,-1
 263 346 l 1,40,-1
 236 298 l 1,41,-1
 236 287 l 1,42,-1
 216 272 l 1,43,-1
 212 212 l 1,44,-1
 199 198 l 1,45,-1
 192 165 l 1,46,-1
 165 137 l 1,47,-1
 161 90 l 1,48,-1
 194 70 l 1,49,-1
 362 73 l 1,50,-1
 376 62 l 1,51,-1
 376 62 l 1,0,-1
EndSplineSet
EndChar

StartChar: braceleft
Encoding: 123 123 94
Width: 355
GlyphClass: 1
Flags: W
LayerCount: 2
Fore
SplineSet
312 -30 m 1,0,-1
 296 -58 l 1,1,-1
 239 -63 l 1,2,-1
 189 -50 l 1,3,-1
 128 -12 l 1,4,-1
 120 28 l 1,5,-1
 101 48 l 1,6,-1
 101 60 l 1,7,-1
 112 73 l 1,8,-1
 108 168 l 1,9,-1
 115 300 l 1,10,-1
 101 314 l 1,11,-1
 86 319 l 1,12,-1
 76 318 l 1,13,-1
 35 330 l 1,14,-1
 27 354 l 1,15,-1
 30 377 l 1,16,-1
 44 395 l 1,17,-1
 67 396 l 1,18,-1
 101 404 l 1,19,-1
 115 418 l 1,20,-1
 108 508 l 1,21,-1
 112 603 l 1,22,-1
 101 616 l 1,23,-1
 101 628 l 1,24,-1
 120 648 l 1,25,-1
 128 688 l 1,26,-1
 189 726 l 1,27,-1
 239 739 l 1,28,-1
 296 734 l 1,29,-1
 312 706 l 1,30,-1
 296 660 l 1,31,-1
 265 659 l 1,32,-1
 251 645 l 1,33,-1
 223 639 l 1,34,-1
 208 626 l 1,35,-1
 207 566 l 1,36,-1
 210 506 l 1,37,-1
 211 478 l 1,38,-1
 199 464 l 1,39,-1
 203 406 l 1,40,-1
 181 372 l 1,41,-1
 172 363 l 1,42,-1
 181 349 l 1,43,-1
 203 312 l 1,44,-1
 199 212 l 1,45,-1
 211 198 l 1,46,-1
 210 170 l 1,47,-1
 207 110 l 1,48,-1
 208 50 l 1,49,-1
 223 37 l 1,50,-1
 251 31 l 1,51,-1
 265 17 l 1,52,-1
 296 16 l 1,53,-1
 312 -30 l 1,54,-1
 312 -30 l 1,0,-1
EndSplineSet
EndChar

StartChar: bar
Encoding: 124 124 95
Width: 362
GlyphClass: 1
Flags: W
LayerCount: 2
Fore
SplineSet
243 29 m 1,0,-1
 225 -27 l 1,1,-1
 175 -25 l 1,2,-1
 150 3 l 1,3,-1
 151 73 l 1,4,-1
 148 152 l 1,5,-1
 142 292 l 1,6,-1
 138 458 l 1,7,-1
 143 497 l 1,8,-1
 133 598 l 1,9,-1
 145 685 l 1,10,-1
 140 715 l 1,11,-1
 176 739 l 1,12,-1
 203 732 l 1,13,-1
 222 704 l 1,14,-1
 229 616 l 1,15,-1
 224 528 l 1,16,-1
 229 485 l 1,17,-1
 222 438 l 1,18,-1
 237 412 l 1,19,-1
 227 386 l 1,20,-1
 229 303 l 1,21,-1
 239 194 l 1,22,-1
 243 29 l 1,23,-1
 243 29 l 1,0,-1
EndSplineSet
EndChar

StartChar: braceright
Encoding: 125 125 96
Width: 355
GlyphClass: 1
Flags: W
LayerCount: 2
Fore
SplineSet
321 354 m 1,0,-1
 313 330 l 1,1,-1
 272 318 l 1,2,-1
 262 319 l 1,3,-1
 247 314 l 1,4,-1
 233 300 l 1,5,-1
 240 168 l 1,6,-1
 236 73 l 1,7,-1
 247 60 l 1,8,-1
 247 48 l 1,9,-1
 228 28 l 1,10,-1
 220 -12 l 1,11,-1
 159 -50 l 1,12,-1
 109 -63 l 1,13,-1
 52 -58 l 1,14,-1
 36 -30 l 1,15,-1
 52 16 l 1,16,-1
 83 17 l 1,17,-1
 97 31 l 1,18,-1
 125 37 l 1,19,-1
 140 50 l 1,20,-1
 141 110 l 1,21,-1
 138 170 l 1,22,-1
 137 198 l 1,23,-1
 149 212 l 1,24,-1
 145 312 l 1,25,-1
 167 349 l 1,26,-1
 176 363 l 1,27,-1
 167 372 l 1,28,-1
 145 406 l 1,29,-1
 149 464 l 1,30,-1
 137 478 l 1,31,-1
 138 506 l 1,32,-1
 141 566 l 1,33,-1
 140 626 l 1,34,-1
 125 639 l 1,35,-1
 97 645 l 1,36,-1
 83 659 l 1,37,-1
 52 660 l 1,38,-1
 36 706 l 1,39,-1
 52 734 l 1,40,-1
 109 739 l 1,41,-1
 159 726 l 1,42,-1
 220 688 l 1,43,-1
 228 648 l 1,44,-1
 247 628 l 1,45,-1
 247 616 l 1,46,-1
 236 603 l 1,47,-1
 240 508 l 1,48,-1
 233 418 l 1,49,-1
 247 404 l 1,50,-1
 281 396 l 1,51,-1
 304 395 l 1,52,-1
 318 377 l 1,53,-1
 321 354 l 1,54,-1
 321 354 l 1,0,-1
EndSplineSet
EndChar

StartChar: asciitilde
Encoding: 126 126 97
Width: 500
GlyphClass: 1
Flags: W
LayerCount: 2
Fore
SplineSet
390 656 m 1,0,-1
 366 623 l 1,1,-1
 326 608 l 1,2,-1
 259 613 l 1,3,-1
 238 619 l 1,4,-1
 219 619 l 1,5,-1
 192 597 l 1,6,-1
 159 596 l 1,7,-1
 131 624 l 1,8,-1
 134 677 l 1,9,-1
 189 711 l 1,10,-1
 228 726 l 1,11,-1
 275 713 l 1,12,-1
 296 695 l 1,13,-1
 317 696 l 1,14,-1
 335 715 l 1,15,-1
 377 709 l 1,16,-1
 389 698 l 1,17,-1
 390 656 l 1,18,-1
 390 656 l 1,0,-1
EndSplineSet
EndChar

StartChar: Adieresis
Encoding: 196 196 98
Width: 500
GlyphClass: 1
Flags: W
LayerCount: 2
Fore
SplineSet
466 1 m 1,0,-1
 445 -18 l 1,1,-1
 398 -12 l 1,2,-1
 371 47 l 1,3,-1
 371 73 l 1,4,-1
 331 105 l 1,5,-1
 203 102 l 1,6,-1
 182 83 l 1,7,-1
 170 8 l 1,8,-1
 131 -26 l 1,9,-1
 110 -19 l 1,10,-1
 91 -1 l 1,11,-1
 113 142 l 1,12,-1
 139 235 l 1,13,-1
 169 350 l 1,14,-1
 175 396 l 1,15,-1
 201 465 l 1,16,-1
 207 525 l 1,17,-1
 246 566 l 1,18,-1
 260 573 l 1,19,-1
 299 560 l 1,20,-1
 348 475 l 1,21,-1
 349 421 l 1,22,-1
 378 369 l 1,23,-1
 391 294 l 1,24,-1
 414 227 l 1,25,-1
 436 195 l 1,26,-1
 464 49 l 1,27,-1
 466 1 l 1,28,-1
 466 1 l 1,0,-1
321 207 m 1,29,-1
 321 214 l 1,30,-1
 306 285 l 1,31,-1
 269 345 l 1,32,-1
 258 324 l 1,33,-1
 226 198 l 1,34,-1
 247 198 l 1,35,-1
 308 192 l 1,36,-1
 321 207 l 1,37,-1
 321 207 l 1,29,-1
429 691 m 1,38,-1
 418 644 l 1,39,-1
 398 623 l 1,40,-1
 344 635 l 1,41,-1
 330 649 l 1,42,-1
 329 695 l 1,43,-1
 356 722 l 1,44,-1
 417 711 l 1,45,-1
 429 691 l 1,46,-1
 429 691 l 1,38,-1
209 653 m 1,47,-1
 170 624 l 1,48,-1
 144 624 l 1,49,-1
 109 656 l 1,50,-1
 115 705 l 1,51,-1
 149 724 l 1,52,-1
 189 713 l 1,53,-1
 208 686 l 1,54,-1
 209 653 l 1,55,-1
 209 653 l 1,47,-1
EndSplineSet
EndChar

StartChar: Aring
Encoding: 197 197 99
Width: 500
GlyphClass: 1
Flags: W
LayerCount: 2
Fore
SplineSet
457 3 m 1,0,-1
 432 -12 l 1,1,-1
 396 1 l 1,2,-1
 370 47 l 1,3,-1
 362 86 l 1,4,-1
 341 100 l 1,5,-1
 208 97 l 1,6,-1
 175 36 l 1,7,-1
 161 -4 l 1,8,-1
 136 -26 l 1,9,-1
 104 -26 l 1,10,-1
 82 1 l 1,11,-1
 87 115 l 1,12,-1
 104 162 l 1,13,-1
 145 223 l 1,14,-1
 150 310 l 1,15,-1
 167 352 l 1,16,-1
 179 445 l 1,17,-1
 198 527 l 1,18,-1
 216 560 l 1,19,-1
 168 626 l 1,20,-1
 167 673 l 1,21,-1
 187 713 l 1,22,-1
 212 741 l 1,23,-1
 258 749 l 1,24,-1
 301 736 l 1,25,-1
 334 702 l 1,26,-1
 349 649 l 1,27,-1
 336 616 l 1,28,-1
 304 583 l 1,29,-1
 304 569 l 1,30,-1
 338 530 l 1,31,-1
 339 474 l 1,32,-1
 378 296 l 1,33,-1
 412 230 l 1,34,-1
 428 123 l 1,35,-1
 455 84 l 1,36,-1
 457 3 l 1,37,-1
 457 3 l 1,0,-1
319 213 m 1,38,-1
 318 260 l 1,39,-1
 274 366 l 1,40,-1
 262 366 l 1,41,-1
 256 333 l 1,42,-1
 236 312 l 1,43,-1
 217 225 l 1,44,-1
 231 204 l 1,45,-1
 266 198 l 1,46,-1
 319 213 l 1,47,-1
 319 213 l 1,38,-1
EndSplineSet
EndChar

StartChar: Ccedilla
Encoding: 199 199 100
Width: 500
GlyphClass: 1
Flags: W
LayerCount: 2
Fore
SplineSet
426 614 m 1,0,-1
 405 588 l 1,1,-1
 385 566 l 1,2,-1
 366 580 l 1,3,-1
 318 658 l 1,4,-1
 257 656 l 1,5,-1
 212 608 l 1,6,-1
 202 454 l 1,7,-1
 214 266 l 1,8,-1
 275 221 l 1,9,-1
 308 229 l 1,10,-1
 353 270 l 1,11,-1
 359 305 l 1,12,-1
 373 319 l 1,13,-1
 392 320 l 1,14,-1
 413 292 l 1,15,-1
 408 225 l 1,16,-1
 384 178 l 1,17,-1
 317 136 l 1,18,-1
 318 122 l 1,19,-1
 332 109 l 1,20,-1
 365 103 l 1,21,-1
 380 64 l 1,22,-1
 374 17 l 1,23,-1
 328 -17 l 1,24,-1
 254 -19 l 1,25,-1
 228 -8 l 1,26,-1
 213 20 l 1,27,-1
 220 38 l 1,28,-1
 252 67 l 1,29,-1
 229 148 l 1,30,-1
 162 200 l 1,31,-1
 126 257 l 1,32,-1
 124 592 l 1,33,-1
 143 653 l 1,34,-1
 182 696 l 1,35,-1
 214 697 l 1,36,-1
 220 722 l 1,37,-1
 227 730 l 1,38,-1
 334 725 l 1,39,-1
 377 701 l 1,40,-1
 397 641 l 1,41,-1
 426 614 l 1,42,-1
 426 614 l 1,0,-1
EndSplineSet
EndChar

StartChar: Eacute
Encoding: 201 201 101
Width: 500
GlyphClass: 1
Flags: W
LayerCount: 2
Fore
SplineSet
422 48 m 1,0,-1
 418 28 l 1,1,-1
 391 5 l 1,2,-1
 140 1 l 1,3,-1
 112 27 l 1,4,-1
 103 283 l 1,5,-1
 112 444 l 1,6,-1
 109 527 l 1,7,-1
 122 558 l 1,8,-1
 133 575 l 1,9,-1
 166 592 l 1,10,-1
 259 582 l 1,11,-1
 340 585 l 1,12,-1
 359 559 l 1,13,-1
 379 560 l 1,14,-1
 380 544 l 1,15,-1
 360 532 l 1,16,-1
 215 519 l 1,17,-1
 201 509 l 1,18,-1
 198 410 l 1,19,-1
 199 378 l 1,20,-1
 214 347 l 1,21,-1
 228 337 l 1,22,-1
 348 335 l 1,23,-1
 374 308 l 1,24,-1
 362 272 l 1,25,-1
 337 260 l 1,26,-1
 210 254 l 1,27,-1
 197 221 l 1,28,-1
 213 154 l 1,29,-1
 207 123 l 1,30,-1
 209 80 l 1,31,-1
 223 71 l 1,32,-1
 329 79 l 1,33,-1
 374 79 l 1,34,-1
 403 69 l 1,35,-1
 422 48 l 1,36,-1
 422 48 l 1,0,-1
366 748 m 1,37,-1
 361 706 l 1,38,-1
 337 685 l 1,39,-1
 297 670 l 1,40,-1
 251 643 l 1,41,-1
 222 624 l 1,42,-1
 189 617 l 1,43,-1
 167 639 l 1,44,-1
 172 679 l 1,45,-1
 227 719 l 1,46,-1
 266 735 l 1,47,-1
 312 765 l 1,48,-1
 354 759 l 1,49,-1
 366 748 l 1,50,-1
 366 748 l 1,37,-1
EndSplineSet
EndChar

StartChar: Ntilde
Encoding: 209 209 102
Width: 500
GlyphClass: 1
Flags: W
LayerCount: 2
Fore
SplineSet
435 14 m 1,0,-1
 394 -20 l 1,1,-1
 361 -14 l 1,2,-1
 333 18 l 1,3,-1
 264 177 l 1,4,-1
 212 311 l 1,5,-1
 207 318 l 1,6,-1
 187 283 l 1,7,-1
 186 15 l 1,8,-1
 154 -11 l 1,9,-1
 119 -12 l 1,10,-1
 100 20 l 1,11,-1
 98 101 l 1,12,-1
 124 388 l 1,13,-1
 128 551 l 1,14,-1
 160 556 l 1,15,-1
 181 557 l 1,16,-1
 222 486 l 1,17,-1
 222 472 l 1,18,-1
 258 433 l 1,19,-1
 293 345 l 1,20,-1
 323 260 l 1,21,-1
 335 246 l 1,22,-1
 342 247 l 1,23,-1
 342 549 l 1,24,-1
 374 575 l 1,25,-1
 409 569 l 1,26,-1
 428 551 l 1,27,-1
 431 423 l 1,28,-1
 430 242 l 1,29,-1
 432 149 l 1,30,-1
 435 14 l 1,31,-1
 435 14 l 1,0,-1
392 690 m 1,32,-1
 386 657 l 1,33,-1
 340 609 l 1,34,-1
 273 608 l 1,35,-1
 240 626 l 1,36,-1
 212 625 l 1,37,-1
 187 606 l 1,38,-1
 152 612 l 1,39,-1
 140 630 l 1,40,-1
 146 670 l 1,41,-1
 191 713 l 1,42,-1
 210 720 l 1,43,-1
 285 701 l 1,44,-1
 313 702 l 1,45,-1
 338 723 l 1,46,-1
 366 724 l 1,47,-1
 392 690 l 1,48,-1
 392 690 l 1,32,-1
EndSplineSet
EndChar

StartChar: Odieresis
Encoding: 214 214 103
Width: 500
GlyphClass: 1
Flags: W
LayerCount: 2
Fore
SplineSet
435 106 m 1,0,-1
 408 45 l 1,1,-1
 356 -10 l 1,2,-1
 291 -23 l 1,3,-1
 202 -6 l 1,4,-1
 155 28 l 1,5,-1
 121 87 l 1,6,-1
 113 434 l 1,7,-1
 137 495 l 1,8,-1
 197 543 l 1,9,-1
 229 557 l 1,10,-1
 318 552 l 1,11,-1
 358 535 l 1,12,-1
 413 462 l 1,13,-1
 429 369 l 1,14,-1
 435 106 l 1,15,-1
 435 106 l 1,0,-1
327 427 m 1,16,-1
 299 459 l 1,17,-1
 238 458 l 1,18,-1
 207 424 l 1,19,-1
 211 229 l 1,20,-1
 227 148 l 1,21,-1
 214 115 l 1,22,-1
 241 48 l 1,23,-1
 283 49 l 1,24,-1
 321 85 l 1,25,-1
 327 427 l 1,26,-1
 327 427 l 1,16,-1
195 638 m 1,27,-1
 167 609 l 1,28,-1
 121 615 l 1,29,-1
 109 629 l 1,30,-1
 94 647 l 1,31,-1
 107 690 l 1,32,-1
 139 716 l 1,33,-1
 172 703 l 1,34,-1
 194 685 l 1,35,-1
 195 638 l 1,36,-1
 195 638 l 1,27,-1
408 668 m 1,37,-1
 395 636 l 1,38,-1
 377 614 l 1,39,-1
 323 620 l 1,40,-1
 309 641 l 1,41,-1
 315 687 l 1,42,-1
 340 706 l 1,43,-1
 375 707 l 1,44,-1
 408 668 l 1,45,-1
 408 668 l 1,37,-1
EndSplineSet
EndChar

StartChar: Udieresis
Encoding: 220 220 104
Width: 500
GlyphClass: 1
Flags: W
LayerCount: 2
Fore
SplineSet
410 267 m 1,0,-1
 391 178 l 1,1,-1
 392 131 l 1,2,-1
 373 64 l 1,3,-1
 349 16 l 1,4,-1
 296 -10 l 1,5,-1
 235 -12 l 1,6,-1
 189 -13 l 1,7,-1
 167 -2 l 1,8,-1
 113 58 l 1,9,-1
 91 99 l 1,10,-1
 82 499 l 1,11,-1
 108 553 l 1,12,-1
 162 547 l 1,13,-1
 177 522 l 1,14,-1
 183 220 l 1,15,-1
 187 73 l 1,16,-1
 248 42 l 1,17,-1
 280 48 l 1,18,-1
 319 90 l 1,19,-1
 304 450 l 1,20,-1
 302 525 l 1,21,-1
 315 551 l 1,22,-1
 348 558 l 1,23,-1
 369 559 l 1,24,-1
 397 527 l 1,25,-1
 395 320 l 1,26,-1
 396 285 l 1,27,-1
 410 267 l 1,28,-1
 410 267 l 1,0,-1
173 657 m 1,29,-1
 167 636 l 1,30,-1
 133 602 l 1,31,-1
 100 606 l 1,32,-1
 79 634 l 1,33,-1
 84 687 l 1,34,-1
 119 709 l 1,35,-1
 151 703 l 1,36,-1
 173 657 l 1,37,-1
 173 657 l 1,29,-1
387 666 m 1,38,-1
 374 634 l 1,39,-1
 354 612 l 1,40,-1
 314 611 l 1,41,-1
 288 646 l 1,42,-1
 291 692 l 1,43,-1
 319 714 l 1,44,-1
 358 708 l 1,45,-1
 387 666 l 1,46,-1
 387 666 l 1,38,-1
EndSplineSet
EndChar

StartChar: aacute
Encoding: 225 225 105
Width: 500
GlyphClass: 1
Flags: W
LayerCount: 2
Fore
SplineSet
386 238 m 1,0,-1
 372 228 l 1,1,-1
 373 182 l 1,2,-1
 309 175 l 1,3,-1
 276 162 l 1,4,-1
 184 160 l 1,5,-1
 150 96 l 1,6,-1
 147 63 l 1,7,-1
 141 11 l 1,8,-1
 121 -1 l 1,9,-1
 100 4 l 1,10,-1
 95 4 l 1,11,-1
 81 16 l 1,12,-1
 96 166 l 1,13,-1
 129 212 l 1,14,-1
 135 269 l 1,15,-1
 152 327 l 1,16,-1
 166 344 l 1,17,-1
 151 377 l 1,18,-1
 171 419 l 1,19,-1
 191 441 l 1,20,-1
 194 517 l 1,21,-1
 201 517 l 1,22,-1
 214 528 l 1,23,-1
 213 557 l 1,24,-1
 227 557 l 1,25,-1
 221 500 l 1,26,-1
 236 488 l 1,27,-1
 229 460 l 1,28,-1
 230 448 l 1,29,-1
 223 448 l 1,30,-1
 209 436 l 1,31,-1
 209 420 l 1,32,-1
 223 409 l 1,33,-1
 218 362 l 1,34,-1
 212 316 l 1,35,-1
 180 304 l 1,36,-1
 167 282 l 1,37,-1
 182 246 l 1,38,-1
 182 231 l 1,39,-1
 201 213 l 1,40,-1
 261 213 l 1,41,-1
 294 214 l 1,42,-1
 320 215 l 1,43,-1
 353 243 l 1,44,-1
 353 261 l 1,45,-1
 371 261 l 1,46,-1
 386 238 l 1,47,-1
 386 238 l 1,0,-1
464 56 m 1,48,-1
 457 34 l 1,49,-1
 429 28 l 1,50,-1
 444 10 l 1,51,-1
 419 16 l 1,52,-1
 405 27 l 1,53,-1
 390 67 l 1,54,-1
 375 130 l 1,55,-1
 388 159 l 1,56,-1
 409 142 l 1,57,-1
 435 91 l 1,58,-1
 436 67 l 1,59,-1
 464 56 l 1,60,-1
 464 56 l 1,48,-1
425 211 m 1,61,-1
 422 205 l 1,62,-1
 400 228 l 1,63,-1
 407 238 l 1,64,-1
 425 223 l 1,65,-1
 425 211 l 1,66,-1
 425 211 l 1,61,-1
406 262 m 1,67,-1
 392 262 l 1,68,-1
 378 273 l 1,69,-1
 378 285 l 1,70,-1
 399 296 l 1,71,-1
 406 280 l 1,72,-1
 406 262 l 1,73,-1
 406 262 l 1,67,-1
362 377 m 1,74,-1
 352 301 l 1,75,-1
 346 295 l 1,76,-1
 324 331 l 1,77,-1
 305 379 l 1,78,-1
 302 474 l 1,79,-1
 307 477 l 1,80,-1
 335 478 l 1,81,-1
 349 445 l 1,82,-1
 362 377 l 1,83,-1
 362 377 l 1,74,-1
295 507 m 1,84,-1
 280 519 l 1,85,-1
 260 518 l 1,86,-1
 248 569 l 1,87,-1
 227 569 l 1,88,-1
 212 579 l 1,89,-1
 219 603 l 1,90,-1
 240 604 l 1,91,-1
 247 580 l 1,92,-1
 266 570 l 1,93,-1
 287 552 l 1,94,-1
 295 507 l 1,95,-1
 295 507 l 1,84,-1
340 571 m 1,96,-1
 326 547 l 1,97,-1
 326 559 l 1,98,-1
 326 575 l 1,99,-1
 333 575 l 1,100,-1
 340 571 l 1,101,-1
 340 571 l 1,96,-1
354 748 m 1,102,-1
 349 706 l 1,103,-1
 325 685 l 1,104,-1
 285 670 l 1,105,-1
 239 643 l 1,106,-1
 210 624 l 1,107,-1
 177 617 l 1,108,-1
 155 639 l 1,109,-1
 160 679 l 1,110,-1
 215 719 l 1,111,-1
 254 735 l 1,112,-1
 300 765 l 1,113,-1
 342 759 l 1,114,-1
 354 748 l 1,115,-1
 354 748 l 1,102,-1
EndSplineSet
EndChar

StartChar: agrave
Encoding: 224 224 106
Width: 500
GlyphClass: 1
Flags: W
LayerCount: 2
Fore
SplineSet
386 238 m 1,0,-1
 372 228 l 1,1,-1
 373 182 l 1,2,-1
 309 175 l 1,3,-1
 276 162 l 1,4,-1
 184 160 l 1,5,-1
 150 96 l 1,6,-1
 147 63 l 1,7,-1
 141 11 l 1,8,-1
 121 -1 l 1,9,-1
 100 4 l 1,10,-1
 95 4 l 1,11,-1
 81 16 l 1,12,-1
 96 166 l 1,13,-1
 129 212 l 1,14,-1
 135 269 l 1,15,-1
 152 327 l 1,16,-1
 166 344 l 1,17,-1
 151 377 l 1,18,-1
 171 419 l 1,19,-1
 191 441 l 1,20,-1
 194 517 l 1,21,-1
 201 517 l 1,22,-1
 214 528 l 1,23,-1
 213 557 l 1,24,-1
 227 557 l 1,25,-1
 221 500 l 1,26,-1
 236 488 l 1,27,-1
 229 460 l 1,28,-1
 230 448 l 1,29,-1
 223 448 l 1,30,-1
 209 436 l 1,31,-1
 209 420 l 1,32,-1
 223 409 l 1,33,-1
 218 362 l 1,34,-1
 212 316 l 1,35,-1
 180 304 l 1,36,-1
 167 282 l 1,37,-1
 182 246 l 1,38,-1
 182 231 l 1,39,-1
 201 213 l 1,40,-1
 261 213 l 1,41,-1
 294 214 l 1,42,-1
 320 215 l 1,43,-1
 353 243 l 1,44,-1
 353 261 l 1,45,-1
 371 261 l 1,46,-1
 386 238 l 1,47,-1
 386 238 l 1,0,-1
464 56 m 1,48,-1
 457 34 l 1,49,-1
 429 28 l 1,50,-1
 444 10 l 1,51,-1
 419 16 l 1,52,-1
 405 27 l 1,53,-1
 390 67 l 1,54,-1
 375 130 l 1,55,-1
 388 159 l 1,56,-1
 409 142 l 1,57,-1
 435 91 l 1,58,-1
 436 67 l 1,59,-1
 464 56 l 1,60,-1
 464 56 l 1,48,-1
425 211 m 1,61,-1
 422 205 l 1,62,-1
 400 228 l 1,63,-1
 407 238 l 1,64,-1
 425 223 l 1,65,-1
 425 211 l 1,66,-1
 425 211 l 1,61,-1
406 262 m 1,67,-1
 392 262 l 1,68,-1
 378 273 l 1,69,-1
 378 285 l 1,70,-1
 399 296 l 1,71,-1
 406 280 l 1,72,-1
 406 262 l 1,73,-1
 406 262 l 1,67,-1
362 377 m 1,74,-1
 352 301 l 1,75,-1
 346 295 l 1,76,-1
 324 331 l 1,77,-1
 305 379 l 1,78,-1
 302 474 l 1,79,-1
 307 477 l 1,80,-1
 335 478 l 1,81,-1
 349 445 l 1,82,-1
 362 377 l 1,83,-1
 362 377 l 1,74,-1
295 507 m 1,84,-1
 280 519 l 1,85,-1
 260 518 l 1,86,-1
 248 569 l 1,87,-1
 227 569 l 1,88,-1
 212 579 l 1,89,-1
 219 603 l 1,90,-1
 240 604 l 1,91,-1
 247 580 l 1,92,-1
 266 570 l 1,93,-1
 287 552 l 1,94,-1
 295 507 l 1,95,-1
 295 507 l 1,84,-1
340 571 m 1,96,-1
 326 547 l 1,97,-1
 326 559 l 1,98,-1
 326 575 l 1,99,-1
 333 575 l 1,100,-1
 340 571 l 1,101,-1
 340 571 l 1,96,-1
348 649 m 1,102,-1
 320 633 l 1,103,-1
 291 643 l 1,104,-1
 262 662 l 1,105,-1
 216 689 l 1,106,-1
 176 704 l 1,107,-1
 152 737 l 1,108,-1
 149 758 l 1,109,-1
 161 769 l 1,110,-1
 203 775 l 1,111,-1
 249 745 l 1,112,-1
 288 729 l 1,113,-1
 343 689 l 1,114,-1
 348 649 l 1,115,-1
 348 649 l 1,102,-1
EndSplineSet
EndChar

StartChar: acircumflex
Encoding: 226 226 107
Width: 500
GlyphClass: 1
Flags: W
LayerCount: 2
Fore
SplineSet
386 238 m 1,0,-1
 372 228 l 1,1,-1
 373 182 l 1,2,-1
 309 175 l 1,3,-1
 276 162 l 1,4,-1
 184 160 l 1,5,-1
 150 96 l 1,6,-1
 147 63 l 1,7,-1
 141 11 l 1,8,-1
 121 -1 l 1,9,-1
 100 4 l 1,10,-1
 95 4 l 1,11,-1
 81 16 l 1,12,-1
 96 166 l 1,13,-1
 129 212 l 1,14,-1
 135 269 l 1,15,-1
 152 327 l 1,16,-1
 166 344 l 1,17,-1
 151 377 l 1,18,-1
 171 419 l 1,19,-1
 191 441 l 1,20,-1
 194 517 l 1,21,-1
 201 517 l 1,22,-1
 214 528 l 1,23,-1
 213 557 l 1,24,-1
 227 557 l 1,25,-1
 221 500 l 1,26,-1
 236 488 l 1,27,-1
 229 460 l 1,28,-1
 230 448 l 1,29,-1
 223 448 l 1,30,-1
 209 436 l 1,31,-1
 209 420 l 1,32,-1
 223 409 l 1,33,-1
 218 362 l 1,34,-1
 212 316 l 1,35,-1
 180 304 l 1,36,-1
 167 282 l 1,37,-1
 182 246 l 1,38,-1
 182 231 l 1,39,-1
 201 213 l 1,40,-1
 261 213 l 1,41,-1
 294 214 l 1,42,-1
 320 215 l 1,43,-1
 353 243 l 1,44,-1
 353 261 l 1,45,-1
 371 261 l 1,46,-1
 386 238 l 1,47,-1
 386 238 l 1,0,-1
464 56 m 1,48,-1
 457 34 l 1,49,-1
 429 28 l 1,50,-1
 444 10 l 1,51,-1
 419 16 l 1,52,-1
 405 27 l 1,53,-1
 390 67 l 1,54,-1
 375 130 l 1,55,-1
 388 159 l 1,56,-1
 409 142 l 1,57,-1
 435 91 l 1,58,-1
 436 67 l 1,59,-1
 464 56 l 1,60,-1
 464 56 l 1,48,-1
425 211 m 1,61,-1
 422 205 l 1,62,-1
 400 228 l 1,63,-1
 407 238 l 1,64,-1
 425 223 l 1,65,-1
 425 211 l 1,66,-1
 425 211 l 1,61,-1
406 262 m 1,67,-1
 392 262 l 1,68,-1
 378 273 l 1,69,-1
 378 285 l 1,70,-1
 399 296 l 1,71,-1
 406 280 l 1,72,-1
 406 262 l 1,73,-1
 406 262 l 1,67,-1
362 377 m 1,74,-1
 352 301 l 1,75,-1
 346 295 l 1,76,-1
 324 331 l 1,77,-1
 305 379 l 1,78,-1
 302 474 l 1,79,-1
 307 477 l 1,80,-1
 335 478 l 1,81,-1
 349 445 l 1,82,-1
 362 377 l 1,83,-1
 362 377 l 1,74,-1
295 507 m 1,84,-1
 280 519 l 1,85,-1
 260 518 l 1,86,-1
 248 569 l 1,87,-1
 227 569 l 1,88,-1
 212 579 l 1,89,-1
 219 603 l 1,90,-1
 240 604 l 1,91,-1
 247 580 l 1,92,-1
 266 570 l 1,93,-1
 287 552 l 1,94,-1
 295 507 l 1,95,-1
 295 507 l 1,84,-1
340 571 m 1,96,-1
 326 547 l 1,97,-1
 326 559 l 1,98,-1
 326 575 l 1,99,-1
 333 575 l 1,100,-1
 340 571 l 1,101,-1
 340 571 l 1,96,-1
363 664 m 1,102,-1
 359 649 l 1,103,-1
 331 633 l 1,104,-1
 302 643 l 1,105,-1
 273 662 l 1,106,-1
 256 679 l 1,107,-1
 231 678 l 1,108,-1
 194 657 l 1,109,-1
 160 637 l 1,110,-1
 140 644 l 1,111,-1
 136 660 l 1,112,-1
 139 683 l 1,113,-1
 152 700 l 1,114,-1
 206 735 l 1,115,-1
 230 748 l 1,116,-1
 273 745 l 1,117,-1
 299 729 l 1,118,-1
 323 715 l 1,119,-1
 354 689 l 1,120,-1
 363 664 l 1,121,-1
 363 664 l 1,102,-1
EndSplineSet
EndChar

StartChar: adieresis
Encoding: 228 228 108
Width: 500
GlyphClass: 1
Flags: W
LayerCount: 2
Fore
SplineSet
421 72 m 1,0,-1
 417 37 l 1,1,-1
 389 36 l 1,2,-1
 375 50 l 1,3,-1
 388 90 l 1,4,-1
 381 104 l 1,5,-1
 362 124 l 1,6,-1
 248 115 l 1,7,-1
 188 107 l 1,8,-1
 175 46 l 1,9,-1
 148 6 l 1,10,-1
 137 -8 l 1,11,-1
 116 -9 l 1,12,-1
 94 17 l 1,13,-1
 101 52 l 1,14,-1
 107 52 l 1,15,-1
 120 119 l 1,16,-1
 119 192 l 1,17,-1
 163 281 l 1,18,-1
 163 313 l 1,19,-1
 190 353 l 1,20,-1
 189 381 l 1,21,-1
 201 396 l 1,22,-1
 206 463 l 1,23,-1
 220 482 l 1,24,-1
 218 549 l 1,25,-1
 244 576 l 1,26,-1
 278 576 l 1,27,-1
 312 537 l 1,28,-1
 320 484 l 1,29,-1
 341 459 l 1,30,-1
 342 424 l 1,31,-1
 361 399 l 1,32,-1
 357 352 l 1,33,-1
 377 311 l 1,34,-1
 378 271 l 1,35,-1
 386 211 l 1,36,-1
 419 179 l 1,37,-1
 415 151 l 1,38,-1
 409 118 l 1,39,-1
 402 111 l 1,40,-1
 402 90 l 1,41,-1
 421 72 l 1,42,-1
 421 72 l 1,0,-1
333 196 m 1,43,-1
 316 310 l 1,44,-1
 275 397 l 1,45,-1
 237 343 l 1,46,-1
 232 201 l 1,47,-1
 333 196 l 1,48,-1
 333 196 l 1,43,-1
423 688 m 1,49,-1
 384 639 l 1,50,-1
 356 638 l 1,51,-1
 330 680 l 1,52,-1
 336 712 l 1,53,-1
 361 727 l 1,54,-1
 403 721 l 1,55,-1
 423 688 l 1,56,-1
 423 688 l 1,49,-1
216 689 m 1,57,-1
 209 663 l 1,58,-1
 177 642 l 1,59,-1
 156 648 l 1,60,-1
 142 648 l 1,61,-1
 123 682 l 1,62,-1
 161 723 l 1,63,-1
 201 717 l 1,64,-1
 216 689 l 1,65,-1
 216 689 l 1,57,-1
EndSplineSet
EndChar

StartChar: atilde
Encoding: 227 227 109
Width: 500
GlyphClass: 1
Flags: W
LayerCount: 2
Fore
SplineSet
467 9 m 1,0,-1
 456 -12 l 1,1,-1
 435 -18 l 1,2,-1
 414 -18 l 1,3,-1
 372 60 l 1,4,-1
 365 87 l 1,5,-1
 346 106 l 1,6,-1
 204 95 l 1,7,-1
 180 48 l 1,8,-1
 174 8 l 1,9,-1
 140 -25 l 1,10,-1
 93 -22 l 1,11,-1
 67 5 l 1,12,-1
 83 92 l 1,13,-1
 103 134 l 1,14,-1
 122 200 l 1,15,-1
 159 315 l 1,16,-1
 165 357 l 1,17,-1
 201 458 l 1,18,-1
 220 544 l 1,19,-1
 259 573 l 1,20,-1
 306 561 l 1,21,-1
 320 540 l 1,22,-1
 349 427 l 1,23,-1
 414 242 l 1,24,-1
 438 143 l 1,25,-1
 447 55 l 1,26,-1
 467 9 l 1,27,-1
 467 9 l 1,0,-1
321 233 m 1,28,-1
 300 258 l 1,29,-1
 299 279 l 1,30,-1
 291 325 l 1,31,-1
 272 353 l 1,32,-1
 258 331 l 1,33,-1
 259 313 l 1,34,-1
 235 245 l 1,35,-1
 236 203 l 1,36,-1
 315 212 l 1,37,-1
 321 233 l 1,38,-1
 321 233 l 1,28,-1
396 656 m 1,39,-1
 372 623 l 1,40,-1
 332 608 l 1,41,-1
 265 613 l 1,42,-1
 244 619 l 1,43,-1
 225 619 l 1,44,-1
 198 597 l 1,45,-1
 165 596 l 1,46,-1
 137 624 l 1,47,-1
 140 677 l 1,48,-1
 195 711 l 1,49,-1
 234 726 l 1,50,-1
 281 713 l 1,51,-1
 302 695 l 1,52,-1
 323 696 l 1,53,-1
 341 715 l 1,54,-1
 383 709 l 1,55,-1
 395 698 l 1,56,-1
 396 656 l 1,57,-1
 396 656 l 1,39,-1
EndSplineSet
EndChar

StartChar: aring
Encoding: 229 229 110
Width: 500
GlyphClass: 1
Flags: W
LayerCount: 2
Fore
SplineSet
436 29 m 1,0,-1
 430 3 l 1,1,-1
 412 -4 l 1,2,-1
 405 -5 l 1,3,-1
 391 7 l 1,4,-1
 389 67 l 1,5,-1
 417 49 l 1,6,-1
 436 29 l 1,7,-1
 436 29 l 1,0,-1
434 117 m 1,8,-1
 428 96 l 1,9,-1
 381 95 l 1,10,-1
 320 119 l 1,11,-1
 274 106 l 1,12,-1
 188 104 l 1,13,-1
 175 68 l 1,14,-1
 154 56 l 1,15,-1
 149 0 l 1,16,-1
 109 -1 l 1,17,-1
 95 20 l 1,18,-1
 99 134 l 1,19,-1
 137 256 l 1,20,-1
 137 288 l 1,21,-1
 161 324 l 1,22,-1
 167 385 l 1,23,-1
 186 439 l 1,24,-1
 192 485 l 1,25,-1
 209 546 l 1,26,-1
 229 565 l 1,27,-1
 181 632 l 1,28,-1
 179 699 l 1,29,-1
 218 740 l 1,30,-1
 285 741 l 1,31,-1
 340 682 l 1,32,-1
 335 622 l 1,33,-1
 283 567 l 1,34,-1
 324 507 l 1,35,-1
 326 435 l 1,36,-1
 312 414 l 1,37,-1
 335 354 l 1,38,-1
 369 302 l 1,39,-1
 360 201 l 1,40,-1
 372 195 l 1,41,-1
 393 195 l 1,42,-1
 387 148 l 1,43,-1
 434 117 l 1,44,-1
 434 117 l 1,8,-1
332 201 m 1,45,-1
 316 261 l 1,46,-1
 290 299 l 1,47,-1
 288 353 l 1,48,-1
 267 373 l 1,49,-1
 260 366 l 1,50,-1
 230 265 l 1,51,-1
 232 198 l 1,52,-1
 332 201 l 1,53,-1
 332 201 l 1,45,-1
EndSplineSet
EndChar

StartChar: ccedilla
Encoding: 231 231 111
Width: 500
GlyphClass: 1
Flags: W
LayerCount: 2
Fore
SplineSet
397 298 m 1,0,-1
 392 212 l 1,1,-1
 328 143 l 1,2,-1
 308 136 l 1,3,-1
 301 136 l 1,4,-1
 294 128 l 1,5,-1
 337 76 l 1,6,-1
 339 4 l 1,7,-1
 304 -32 l 1,8,-1
 218 -34 l 1,9,-1
 183 -14 l 1,10,-1
 182 19 l 1,11,-1
 217 48 l 1,12,-1
 194 115 l 1,13,-1
 180 140 l 1,14,-1
 125 192 l 1,15,-1
 105 245 l 1,16,-1
 99 513 l 1,17,-1
 104 608 l 1,18,-1
 128 676 l 1,19,-1
 194 717 l 1,20,-1
 227 725 l 1,21,-1
 301 719 l 1,22,-1
 377 661 l 1,23,-1
 397 615 l 1,24,-1
 391 561 l 1,25,-1
 366 540 l 1,26,-1
 345 539 l 1,27,-1
 319 559 l 1,28,-1
 304 606 l 1,29,-1
 264 630 l 1,30,-1
 243 637 l 1,31,-1
 222 636 l 1,32,-1
 176 589 l 1,33,-1
 179 456 l 1,34,-1
 184 254 l 1,35,-1
 224 215 l 1,36,-1
 273 223 l 1,37,-1
 291 235 l 1,38,-1
 305 250 l 1,39,-1
 311 285 l 1,40,-1
 343 318 l 1,41,-1
 378 319 l 1,42,-1
 397 298 l 1,43,-1
 397 298 l 1,0,-1
EndSplineSet
EndChar

StartChar: eacute
Encoding: 233 233 112
Width: 500
GlyphClass: 1
Flags: W
LayerCount: 2
Fore
SplineSet
417 54 m 1,0,-1
 404 24 l 1,1,-1
 365 2 l 1,2,-1
 158 8 l 1,3,-1
 116 18 l 1,4,-1
 96 64 l 1,5,-1
 108 150 l 1,6,-1
 104 270 l 1,7,-1
 115 289 l 1,8,-1
 114 322 l 1,9,-1
 121 322 l 1,10,-1
 135 331 l 1,11,-1
 101 362 l 1,12,-1
 119 407 l 1,13,-1
 124 459 l 1,14,-1
 129 546 l 1,15,-1
 209 580 l 1,16,-1
 288 590 l 1,17,-1
 381 586 l 1,18,-1
 402 577 l 1,19,-1
 417 556 l 1,20,-1
 410 540 l 1,21,-1
 379 515 l 1,22,-1
 276 518 l 1,23,-1
 236 528 l 1,24,-1
 169 532 l 1,25,-1
 137 511 l 1,26,-1
 163 492 l 1,27,-1
 184 475 l 1,28,-1
 195 358 l 1,29,-1
 174 342 l 1,30,-1
 174 332 l 1,31,-1
 189 322 l 1,32,-1
 235 327 l 1,33,-1
 349 329 l 1,34,-1
 370 315 l 1,35,-1
 364 279 l 1,36,-1
 330 263 l 1,37,-1
 297 262 l 1,38,-1
 250 277 l 1,39,-1
 190 276 l 1,40,-1
 176 266 l 1,41,-1
 180 132 l 1,42,-1
 189 86 l 1,43,-1
 210 76 l 1,44,-1
 391 79 l 1,45,-1
 417 54 l 1,46,-1
 417 54 l 1,0,-1
366 748 m 1,47,-1
 361 706 l 1,48,-1
 337 685 l 1,49,-1
 297 670 l 1,50,-1
 251 643 l 1,51,-1
 222 624 l 1,52,-1
 189 617 l 1,53,-1
 167 639 l 1,54,-1
 172 679 l 1,55,-1
 227 719 l 1,56,-1
 266 735 l 1,57,-1
 312 765 l 1,58,-1
 354 759 l 1,59,-1
 366 748 l 1,60,-1
 366 748 l 1,47,-1
EndSplineSet
EndChar

StartChar: egrave
Encoding: 232 232 113
Width: 500
GlyphClass: 1
Flags: W
LayerCount: 2
Fore
SplineSet
417 54 m 1,0,-1
 404 24 l 1,1,-1
 365 2 l 1,2,-1
 158 8 l 1,3,-1
 116 18 l 1,4,-1
 96 64 l 1,5,-1
 108 150 l 1,6,-1
 104 270 l 1,7,-1
 115 289 l 1,8,-1
 114 322 l 1,9,-1
 121 322 l 1,10,-1
 135 331 l 1,11,-1
 101 362 l 1,12,-1
 119 407 l 1,13,-1
 124 459 l 1,14,-1
 129 546 l 1,15,-1
 209 580 l 1,16,-1
 288 590 l 1,17,-1
 381 586 l 1,18,-1
 402 577 l 1,19,-1
 417 556 l 1,20,-1
 410 540 l 1,21,-1
 379 515 l 1,22,-1
 276 518 l 1,23,-1
 236 528 l 1,24,-1
 169 532 l 1,25,-1
 137 511 l 1,26,-1
 163 492 l 1,27,-1
 184 475 l 1,28,-1
 195 358 l 1,29,-1
 174 342 l 1,30,-1
 174 332 l 1,31,-1
 189 322 l 1,32,-1
 235 327 l 1,33,-1
 349 329 l 1,34,-1
 370 315 l 1,35,-1
 364 279 l 1,36,-1
 330 263 l 1,37,-1
 297 262 l 1,38,-1
 250 277 l 1,39,-1
 190 276 l 1,40,-1
 176 266 l 1,41,-1
 180 132 l 1,42,-1
 189 86 l 1,43,-1
 210 76 l 1,44,-1
 391 79 l 1,45,-1
 417 54 l 1,46,-1
 417 54 l 1,0,-1
348 649 m 1,47,-1
 320 633 l 1,48,-1
 291 643 l 1,49,-1
 262 662 l 1,50,-1
 216 689 l 1,51,-1
 176 704 l 1,52,-1
 152 737 l 1,53,-1
 149 758 l 1,54,-1
 161 769 l 1,55,-1
 203 775 l 1,56,-1
 249 745 l 1,57,-1
 288 729 l 1,58,-1
 343 689 l 1,59,-1
 348 649 l 1,60,-1
 348 649 l 1,47,-1
EndSplineSet
EndChar

StartChar: ecircumflex
Encoding: 234 234 114
Width: 500
GlyphClass: 1
Flags: W
LayerCount: 2
Fore
SplineSet
417 54 m 1,0,-1
 404 24 l 1,1,-1
 365 2 l 1,2,-1
 158 8 l 1,3,-1
 116 18 l 1,4,-1
 96 64 l 1,5,-1
 108 150 l 1,6,-1
 104 270 l 1,7,-1
 115 289 l 1,8,-1
 114 322 l 1,9,-1
 121 322 l 1,10,-1
 135 331 l 1,11,-1
 101 362 l 1,12,-1
 119 407 l 1,13,-1
 124 459 l 1,14,-1
 129 546 l 1,15,-1
 209 580 l 1,16,-1
 288 590 l 1,17,-1
 381 586 l 1,18,-1
 402 577 l 1,19,-1
 417 556 l 1,20,-1
 410 540 l 1,21,-1
 379 515 l 1,22,-1
 276 518 l 1,23,-1
 236 528 l 1,24,-1
 169 532 l 1,25,-1
 137 511 l 1,26,-1
 163 492 l 1,27,-1
 184 475 l 1,28,-1
 195 358 l 1,29,-1
 174 342 l 1,30,-1
 174 332 l 1,31,-1
 189 322 l 1,32,-1
 235 327 l 1,33,-1
 349 329 l 1,34,-1
 370 315 l 1,35,-1
 364 279 l 1,36,-1
 330 263 l 1,37,-1
 297 262 l 1,38,-1
 250 277 l 1,39,-1
 190 276 l 1,40,-1
 176 266 l 1,41,-1
 180 132 l 1,42,-1
 189 86 l 1,43,-1
 210 76 l 1,44,-1
 391 79 l 1,45,-1
 417 54 l 1,46,-1
 417 54 l 1,0,-1
363 664 m 1,47,-1
 359 649 l 1,48,-1
 331 633 l 1,49,-1
 302 643 l 1,50,-1
 273 662 l 1,51,-1
 256 679 l 1,52,-1
 231 678 l 1,53,-1
 194 657 l 1,54,-1
 160 637 l 1,55,-1
 140 644 l 1,56,-1
 136 660 l 1,57,-1
 139 683 l 1,58,-1
 152 700 l 1,59,-1
 206 735 l 1,60,-1
 230 748 l 1,61,-1
 273 745 l 1,62,-1
 299 729 l 1,63,-1
 323 715 l 1,64,-1
 354 689 l 1,65,-1
 363 664 l 1,66,-1
 363 664 l 1,47,-1
EndSplineSet
EndChar

StartChar: edieresis
Encoding: 235 235 115
Width: 500
GlyphClass: 1
Flags: W
LayerCount: 2
Fore
SplineSet
417 54 m 1,0,-1
 404 24 l 1,1,-1
 365 2 l 1,2,-1
 158 8 l 1,3,-1
 116 18 l 1,4,-1
 96 64 l 1,5,-1
 108 150 l 1,6,-1
 104 270 l 1,7,-1
 115 289 l 1,8,-1
 114 322 l 1,9,-1
 121 322 l 1,10,-1
 135 331 l 1,11,-1
 101 362 l 1,12,-1
 119 407 l 1,13,-1
 124 459 l 1,14,-1
 129 546 l 1,15,-1
 209 580 l 1,16,-1
 288 590 l 1,17,-1
 381 586 l 1,18,-1
 402 577 l 1,19,-1
 417 556 l 1,20,-1
 410 540 l 1,21,-1
 379 515 l 1,22,-1
 276 518 l 1,23,-1
 236 528 l 1,24,-1
 169 532 l 1,25,-1
 137 511 l 1,26,-1
 163 492 l 1,27,-1
 184 475 l 1,28,-1
 195 358 l 1,29,-1
 174 342 l 1,30,-1
 174 332 l 1,31,-1
 189 322 l 1,32,-1
 235 327 l 1,33,-1
 349 329 l 1,34,-1
 370 315 l 1,35,-1
 364 279 l 1,36,-1
 330 263 l 1,37,-1
 297 262 l 1,38,-1
 250 277 l 1,39,-1
 190 276 l 1,40,-1
 176 266 l 1,41,-1
 180 132 l 1,42,-1
 189 86 l 1,43,-1
 210 76 l 1,44,-1
 391 79 l 1,45,-1
 417 54 l 1,46,-1
 417 54 l 1,0,-1
213 664 m 1,47,-1
 174 637 l 1,48,-1
 153 644 l 1,49,-1
 127 669 l 1,50,-1
 126 709 l 1,51,-1
 151 730 l 1,52,-1
 184 731 l 1,53,-1
 212 699 l 1,54,-1
 213 664 l 1,55,-1
 213 664 l 1,47,-1
413 696 m 1,56,-1
 406 656 l 1,57,-1
 395 642 l 1,58,-1
 348 648 l 1,59,-1
 327 680 l 1,60,-1
 333 701 l 1,61,-1
 365 734 l 1,62,-1
 393 728 l 1,63,-1
 413 696 l 1,64,-1
 413 696 l 1,56,-1
EndSplineSet
EndChar

StartChar: iacute
Encoding: 237 237 116
Width: 329
GlyphClass: 1
Flags: W
LayerCount: 2
Fore
SplineSet
217 32 m 1,0,-1
 191 11 l 1,1,-1
 153 9 l 1,2,-1
 125 31 l 1,3,-1
 122 114 l 1,4,-1
 133 207 l 1,5,-1
 123 301 l 1,6,-1
 143 335 l 1,7,-1
 128 360 l 1,8,-1
 131 479 l 1,9,-1
 130 506 l 1,10,-1
 128 563 l 1,11,-1
 142 580 l 1,12,-1
 161 585 l 1,13,-1
 180 586 l 1,14,-1
 208 559 l 1,15,-1
 209 513 l 1,16,-1
 176 486 l 1,17,-1
 197 475 l 1,18,-1
 211 467 l 1,19,-1
 211 450 l 1,20,-1
 184 438 l 1,21,-1
 180 392 l 1,22,-1
 180 377 l 1,23,-1
 208 356 l 1,24,-1
 208 330 l 1,25,-1
 175 314 l 1,26,-1
 203 289 l 1,27,-1
 198 235 l 1,28,-1
 198 219 l 1,29,-1
 179 208 l 1,30,-1
 174 204 l 1,31,-1
 186 171 l 1,32,-1
 176 162 l 1,33,-1
 176 152 l 1,34,-1
 208 125 l 1,35,-1
 216 78 l 1,36,-1
 217 32 l 1,37,-1
 217 32 l 1,0,-1
285 748 m 1,38,-1
 280 706 l 1,39,-1
 256 685 l 1,40,-1
 216 670 l 1,41,-1
 170 643 l 1,42,-1
 141 624 l 1,43,-1
 108 617 l 1,44,-1
 86 639 l 1,45,-1
 91 679 l 1,46,-1
 146 719 l 1,47,-1
 185 735 l 1,48,-1
 231 765 l 1,49,-1
 273 759 l 1,50,-1
 285 748 l 1,51,-1
 285 748 l 1,38,-1
EndSplineSet
EndChar

StartChar: igrave
Encoding: 236 236 117
Width: 329
GlyphClass: 1
Flags: W
LayerCount: 2
Fore
SplineSet
217 32 m 1,0,-1
 191 11 l 1,1,-1
 153 9 l 1,2,-1
 125 31 l 1,3,-1
 122 114 l 1,4,-1
 133 207 l 1,5,-1
 123 301 l 1,6,-1
 143 335 l 1,7,-1
 128 360 l 1,8,-1
 131 479 l 1,9,-1
 130 506 l 1,10,-1
 128 563 l 1,11,-1
 142 580 l 1,12,-1
 161 585 l 1,13,-1
 180 586 l 1,14,-1
 208 559 l 1,15,-1
 209 513 l 1,16,-1
 176 486 l 1,17,-1
 197 475 l 1,18,-1
 211 467 l 1,19,-1
 211 450 l 1,20,-1
 184 438 l 1,21,-1
 180 392 l 1,22,-1
 180 377 l 1,23,-1
 208 356 l 1,24,-1
 208 330 l 1,25,-1
 175 314 l 1,26,-1
 203 289 l 1,27,-1
 198 235 l 1,28,-1
 198 219 l 1,29,-1
 179 208 l 1,30,-1
 174 204 l 1,31,-1
 186 171 l 1,32,-1
 176 162 l 1,33,-1
 176 152 l 1,34,-1
 208 125 l 1,35,-1
 216 78 l 1,36,-1
 217 32 l 1,37,-1
 217 32 l 1,0,-1
252 649 m 1,38,-1
 224 633 l 1,39,-1
 195 643 l 1,40,-1
 166 662 l 1,41,-1
 120 689 l 1,42,-1
 80 704 l 1,43,-1
 56 737 l 1,44,-1
 53 758 l 1,45,-1
 65 769 l 1,46,-1
 107 775 l 1,47,-1
 153 745 l 1,48,-1
 192 729 l 1,49,-1
 247 689 l 1,50,-1
 252 649 l 1,51,-1
 252 649 l 1,38,-1
EndSplineSet
EndChar

StartChar: icircumflex
Encoding: 238 238 118
Width: 329
GlyphClass: 1
Flags: W
LayerCount: 2
Fore
SplineSet
217 32 m 1,0,-1
 191 11 l 1,1,-1
 153 9 l 1,2,-1
 125 31 l 1,3,-1
 122 114 l 1,4,-1
 133 207 l 1,5,-1
 123 301 l 1,6,-1
 143 335 l 1,7,-1
 128 360 l 1,8,-1
 131 479 l 1,9,-1
 130 506 l 1,10,-1
 128 563 l 1,11,-1
 142 580 l 1,12,-1
 161 585 l 1,13,-1
 180 586 l 1,14,-1
 208 559 l 1,15,-1
 209 513 l 1,16,-1
 176 486 l 1,17,-1
 197 475 l 1,18,-1
 211 467 l 1,19,-1
 211 450 l 1,20,-1
 184 438 l 1,21,-1
 180 392 l 1,22,-1
 180 377 l 1,23,-1
 208 356 l 1,24,-1
 208 330 l 1,25,-1
 175 314 l 1,26,-1
 203 289 l 1,27,-1
 198 235 l 1,28,-1
 198 219 l 1,29,-1
 179 208 l 1,30,-1
 174 204 l 1,31,-1
 186 171 l 1,32,-1
 176 162 l 1,33,-1
 176 152 l 1,34,-1
 208 125 l 1,35,-1
 216 78 l 1,36,-1
 217 32 l 1,37,-1
 217 32 l 1,0,-1
282 664 m 1,38,-1
 278 649 l 1,39,-1
 250 633 l 1,40,-1
 221 643 l 1,41,-1
 192 662 l 1,42,-1
 175 679 l 1,43,-1
 150 678 l 1,44,-1
 113 657 l 1,45,-1
 79 637 l 1,46,-1
 59 644 l 1,47,-1
 55 660 l 1,48,-1
 58 683 l 1,49,-1
 71 700 l 1,50,-1
 125 735 l 1,51,-1
 149 748 l 1,52,-1
 192 745 l 1,53,-1
 218 729 l 1,54,-1
 242 715 l 1,55,-1
 273 689 l 1,56,-1
 282 664 l 1,57,-1
 282 664 l 1,38,-1
EndSplineSet
EndChar

StartChar: idieresis
Encoding: 239 239 119
Width: 329
GlyphClass: 1
Flags: W
LayerCount: 2
Fore
SplineSet
211 30 m 1,0,-1
 185 9 l 1,1,-1
 147 7 l 1,2,-1
 119 29 l 1,3,-1
 116 112 l 1,4,-1
 127 205 l 1,5,-1
 117 299 l 1,6,-1
 137 333 l 1,7,-1
 122 358 l 1,8,-1
 125 477 l 1,9,-1
 124 504 l 1,10,-1
 122 561 l 1,11,-1
 136 578 l 1,12,-1
 155 583 l 1,13,-1
 174 584 l 1,14,-1
 202 557 l 1,15,-1
 203 511 l 1,16,-1
 170 484 l 1,17,-1
 191 473 l 1,18,-1
 205 465 l 1,19,-1
 205 448 l 1,20,-1
 178 436 l 1,21,-1
 174 390 l 1,22,-1
 174 375 l 1,23,-1
 202 354 l 1,24,-1
 202 328 l 1,25,-1
 169 312 l 1,26,-1
 197 287 l 1,27,-1
 192 233 l 1,28,-1
 192 217 l 1,29,-1
 173 206 l 1,30,-1
 168 202 l 1,31,-1
 180 169 l 1,32,-1
 170 160 l 1,33,-1
 170 150 l 1,34,-1
 202 123 l 1,35,-1
 210 76 l 1,36,-1
 211 30 l 1,37,-1
 211 30 l 1,0,-1
111 664 m 1,38,-1
 72 637 l 1,39,-1
 51 644 l 1,40,-1
 25 669 l 1,41,-1
 24 709 l 1,42,-1
 49 730 l 1,43,-1
 82 731 l 1,44,-1
 110 699 l 1,45,-1
 111 664 l 1,46,-1
 111 664 l 1,38,-1
311 696 m 1,47,-1
 304 656 l 1,48,-1
 293 642 l 1,49,-1
 246 648 l 1,50,-1
 225 680 l 1,51,-1
 231 701 l 1,52,-1
 263 734 l 1,53,-1
 291 728 l 1,54,-1
 311 696 l 1,55,-1
 311 696 l 1,47,-1
EndSplineSet
EndChar

StartChar: ntilde
Encoding: 241 241 120
Width: 500
GlyphClass: 1
Flags: W
LayerCount: 2
Fore
SplineSet
410 105 m 1,0,-1
 405 12 l 1,1,-1
 373 -10 l 1,2,-1
 345 3 l 1,3,-1
 297 74 l 1,4,-1
 268 181 l 1,5,-1
 239 240 l 1,6,-1
 212 281 l 1,7,-1
 197 335 l 1,8,-1
 197 342 l 1,9,-1
 175 360 l 1,10,-1
 173 192 l 1,11,-1
 174 132 l 1,12,-1
 177 18 l 1,13,-1
 138 -2 l 1,14,-1
 105 9 l 1,15,-1
 91 36 l 1,16,-1
 95 118 l 1,17,-1
 114 137 l 1,18,-1
 101 165 l 1,19,-1
 104 225 l 1,20,-1
 117 265 l 1,21,-1
 117 286 l 1,22,-1
 97 304 l 1,23,-1
 108 339 l 1,24,-1
 114 386 l 1,25,-1
 112 458 l 1,26,-1
 111 507 l 1,27,-1
 123 561 l 1,28,-1
 137 573 l 1,29,-1
 163 573 l 1,30,-1
 191 548 l 1,31,-1
 211 488 l 1,32,-1
 263 369 l 1,33,-1
 264 343 l 1,34,-1
 257 336 l 1,35,-1
 276 323 l 1,36,-1
 265 308 l 1,37,-1
 265 294 l 1,38,-1
 291 284 l 1,39,-1
 313 256 l 1,40,-1
 314 224 l 1,41,-1
 321 217 l 1,42,-1
 339 250 l 1,43,-1
 334 410 l 1,44,-1
 337 566 l 1,45,-1
 358 578 l 1,46,-1
 397 575 l 1,47,-1
 405 554 l 1,48,-1
 385 519 l 1,49,-1
 401 454 l 1,50,-1
 408 433 l 1,51,-1
 409 412 l 1,52,-1
 395 400 l 1,53,-1
 410 373 l 1,54,-1
 410 105 l 1,55,-1
 410 105 l 1,0,-1
373 707 m 1,56,-1
 370 660 l 1,57,-1
 329 620 l 1,58,-1
 261 618 l 1,59,-1
 228 636 l 1,60,-1
 196 635 l 1,61,-1
 168 615 l 1,62,-1
 150 626 l 1,63,-1
 135 640 l 1,64,-1
 141 687 l 1,65,-1
 180 723 l 1,66,-1
 200 730 l 1,67,-1
 259 718 l 1,68,-1
 280 711 l 1,69,-1
 301 712 l 1,70,-1
 326 733 l 1,71,-1
 354 727 l 1,72,-1
 373 707 l 1,73,-1
 373 707 l 1,56,-1
EndSplineSet
EndChar

StartChar: oacute
Encoding: 243 243 121
Width: 500
GlyphClass: 1
Flags: W
LayerCount: 2
Fore
SplineSet
399 232 m 1,0,-1
 387 214 l 1,1,-1
 391 87 l 1,2,-1
 364 44 l 1,3,-1
 313 6 l 1,4,-1
 282 -6 l 1,5,-1
 183 -3 l 1,6,-1
 108 55 l 1,7,-1
 88 106 l 1,8,-1
 98 155 l 1,9,-1
 98 171 l 1,10,-1
 105 171 l 1,11,-1
 125 189 l 1,12,-1
 131 225 l 1,13,-1
 124 231 l 1,14,-1
 110 231 l 1,15,-1
 109 262 l 1,16,-1
 129 268 l 1,17,-1
 170 210 l 1,18,-1
 172 131 l 1,19,-1
 152 113 l 1,20,-1
 194 89 l 1,21,-1
 213 72 l 1,22,-1
 272 74 l 1,23,-1
 310 111 l 1,24,-1
 319 261 l 1,25,-1
 308 383 l 1,26,-1
 300 388 l 1,27,-1
 300 405 l 1,28,-1
 314 416 l 1,29,-1
 326 454 l 1,30,-1
 304 490 l 1,31,-1
 243 543 l 1,32,-1
 249 558 l 1,33,-1
 249 574 l 1,34,-1
 231 585 l 1,35,-1
 256 574 l 1,36,-1
 283 586 l 1,37,-1
 329 570 l 1,38,-1
 384 512 l 1,39,-1
 398 476 l 1,40,-1
 399 232 l 1,41,-1
 399 232 l 1,0,-1
205 519 m 1,42,-1
 181 493 l 1,43,-1
 155 445 l 1,44,-1
 156 428 l 1,45,-1
 177 408 l 1,46,-1
 173 326 l 1,47,-1
 146 283 l 1,48,-1
 122 283 l 1,49,-1
 115 288 l 1,50,-1
 114 310 l 1,51,-1
 113 326 l 1,52,-1
 99 341 l 1,53,-1
 104 415 l 1,54,-1
 117 427 l 1,55,-1
 102 454 l 1,56,-1
 102 458 l 1,57,-1
 116 469 l 1,58,-1
 133 470 l 1,59,-1
 147 481 l 1,60,-1
 128 518 l 1,61,-1
 189 573 l 1,62,-1
 203 573 l 1,63,-1
 205 519 l 1,64,-1
 205 519 l 1,42,-1
354 748 m 1,65,-1
 349 706 l 1,66,-1
 325 685 l 1,67,-1
 285 670 l 1,68,-1
 239 643 l 1,69,-1
 210 624 l 1,70,-1
 177 617 l 1,71,-1
 155 639 l 1,72,-1
 160 679 l 1,73,-1
 215 719 l 1,74,-1
 254 735 l 1,75,-1
 300 765 l 1,76,-1
 342 759 l 1,77,-1
 354 748 l 1,78,-1
 354 748 l 1,65,-1
EndSplineSet
EndChar

StartChar: ograve
Encoding: 242 242 122
Width: 500
GlyphClass: 1
Flags: W
LayerCount: 2
Fore
SplineSet
399 232 m 1,0,-1
 387 214 l 1,1,-1
 391 87 l 1,2,-1
 364 44 l 1,3,-1
 313 6 l 1,4,-1
 282 -6 l 1,5,-1
 183 -3 l 1,6,-1
 108 55 l 1,7,-1
 88 106 l 1,8,-1
 98 155 l 1,9,-1
 98 171 l 1,10,-1
 105 171 l 1,11,-1
 125 189 l 1,12,-1
 131 225 l 1,13,-1
 124 231 l 1,14,-1
 110 231 l 1,15,-1
 109 262 l 1,16,-1
 129 268 l 1,17,-1
 170 210 l 1,18,-1
 172 131 l 1,19,-1
 152 113 l 1,20,-1
 194 89 l 1,21,-1
 213 72 l 1,22,-1
 272 74 l 1,23,-1
 310 111 l 1,24,-1
 319 261 l 1,25,-1
 308 383 l 1,26,-1
 300 388 l 1,27,-1
 300 405 l 1,28,-1
 314 416 l 1,29,-1
 326 454 l 1,30,-1
 304 490 l 1,31,-1
 243 543 l 1,32,-1
 249 558 l 1,33,-1
 249 574 l 1,34,-1
 231 585 l 1,35,-1
 256 574 l 1,36,-1
 283 586 l 1,37,-1
 329 570 l 1,38,-1
 384 512 l 1,39,-1
 398 476 l 1,40,-1
 399 232 l 1,41,-1
 399 232 l 1,0,-1
205 519 m 1,42,-1
 181 493 l 1,43,-1
 155 445 l 1,44,-1
 156 428 l 1,45,-1
 177 408 l 1,46,-1
 173 326 l 1,47,-1
 146 283 l 1,48,-1
 122 283 l 1,49,-1
 115 288 l 1,50,-1
 114 310 l 1,51,-1
 113 326 l 1,52,-1
 99 341 l 1,53,-1
 104 415 l 1,54,-1
 117 427 l 1,55,-1
 102 454 l 1,56,-1
 102 458 l 1,57,-1
 116 469 l 1,58,-1
 133 470 l 1,59,-1
 147 481 l 1,60,-1
 128 518 l 1,61,-1
 189 573 l 1,62,-1
 203 573 l 1,63,-1
 205 519 l 1,64,-1
 205 519 l 1,42,-1
348 649 m 1,65,-1
 320 633 l 1,66,-1
 291 643 l 1,67,-1
 262 662 l 1,68,-1
 216 689 l 1,69,-1
 176 704 l 1,70,-1
 152 737 l 1,71,-1
 149 758 l 1,72,-1
 161 769 l 1,73,-1
 203 775 l 1,74,-1
 249 745 l 1,75,-1
 288 729 l 1,76,-1
 343 689 l 1,77,-1
 348 649 l 1,78,-1
 348 649 l 1,65,-1
EndSplineSet
EndChar

StartChar: ocircumflex
Encoding: 244 244 123
Width: 500
GlyphClass: 1
Flags: W
LayerCount: 2
Fore
SplineSet
399 232 m 1,0,-1
 387 214 l 1,1,-1
 391 87 l 1,2,-1
 364 44 l 1,3,-1
 313 6 l 1,4,-1
 282 -6 l 1,5,-1
 183 -3 l 1,6,-1
 108 55 l 1,7,-1
 88 106 l 1,8,-1
 98 155 l 1,9,-1
 98 171 l 1,10,-1
 105 171 l 1,11,-1
 125 189 l 1,12,-1
 131 225 l 1,13,-1
 124 231 l 1,14,-1
 110 231 l 1,15,-1
 109 262 l 1,16,-1
 129 268 l 1,17,-1
 170 210 l 1,18,-1
 172 131 l 1,19,-1
 152 113 l 1,20,-1
 194 89 l 1,21,-1
 213 72 l 1,22,-1
 272 74 l 1,23,-1
 310 111 l 1,24,-1
 319 261 l 1,25,-1
 308 383 l 1,26,-1
 300 388 l 1,27,-1
 300 405 l 1,28,-1
 314 416 l 1,29,-1
 326 454 l 1,30,-1
 304 490 l 1,31,-1
 243 543 l 1,32,-1
 249 558 l 1,33,-1
 249 574 l 1,34,-1
 231 585 l 1,35,-1
 256 574 l 1,36,-1
 283 586 l 1,37,-1
 329 570 l 1,38,-1
 384 512 l 1,39,-1
 398 476 l 1,40,-1
 399 232 l 1,41,-1
 399 232 l 1,0,-1
205 519 m 1,42,-1
 181 493 l 1,43,-1
 155 445 l 1,44,-1
 156 428 l 1,45,-1
 177 408 l 1,46,-1
 173 326 l 1,47,-1
 146 283 l 1,48,-1
 122 283 l 1,49,-1
 115 288 l 1,50,-1
 114 310 l 1,51,-1
 113 326 l 1,52,-1
 99 341 l 1,53,-1
 104 415 l 1,54,-1
 117 427 l 1,55,-1
 102 454 l 1,56,-1
 102 458 l 1,57,-1
 116 469 l 1,58,-1
 133 470 l 1,59,-1
 147 481 l 1,60,-1
 128 518 l 1,61,-1
 189 573 l 1,62,-1
 203 573 l 1,63,-1
 205 519 l 1,64,-1
 205 519 l 1,42,-1
363 664 m 1,65,-1
 359 649 l 1,66,-1
 331 633 l 1,67,-1
 302 643 l 1,68,-1
 273 662 l 1,69,-1
 256 679 l 1,70,-1
 231 678 l 1,71,-1
 194 657 l 1,72,-1
 160 637 l 1,73,-1
 140 644 l 1,74,-1
 136 660 l 1,75,-1
 139 683 l 1,76,-1
 152 700 l 1,77,-1
 206 735 l 1,78,-1
 230 748 l 1,79,-1
 273 745 l 1,80,-1
 299 729 l 1,81,-1
 323 715 l 1,82,-1
 354 689 l 1,83,-1
 363 664 l 1,84,-1
 363 664 l 1,65,-1
EndSplineSet
EndChar

StartChar: odieresis
Encoding: 246 246 124
Width: 500
GlyphClass: 1
Flags: W
LayerCount: 2
Fore
SplineSet
393 497 m 1,0,-1
 389 322 l 1,1,-1
 382 322 l 1,2,-1
 376 269 l 1,3,-1
 363 222 l 1,4,-1
 365 147 l 1,5,-1
 358 143 l 1,6,-1
 339 142 l 1,7,-1
 338 200 l 1,8,-1
 327 389 l 1,9,-1
 304 481 l 1,10,-1
 278 502 l 1,11,-1
 204 479 l 1,12,-1
 180 439 l 1,13,-1
 182 318 l 1,14,-1
 169 285 l 1,15,-1
 184 225 l 1,16,-1
 171 157 l 1,17,-1
 186 111 l 1,18,-1
 191 97 l 1,19,-1
 213 79 l 1,20,-1
 233 80 l 1,21,-1
 245 66 l 1,22,-1
 301 74 l 1,23,-1
 333 107 l 1,24,-1
 340 100 l 1,25,-1
 354 101 l 1,26,-1
 367 54 l 1,27,-1
 355 33 l 1,28,-1
 321 28 l 1,29,-1
 307 14 l 1,30,-1
 160 25 l 1,31,-1
 127 64 l 1,32,-1
 104 137 l 1,33,-1
 110 191 l 1,34,-1
 108 284 l 1,35,-1
 108 310 l 1,36,-1
 107 352 l 1,37,-1
 100 358 l 1,38,-1
 100 377 l 1,39,-1
 113 391 l 1,40,-1
 112 466 l 1,41,-1
 129 526 l 1,42,-1
 163 560 l 1,43,-1
 230 587 l 1,44,-1
 291 583 l 1,45,-1
 357 536 l 1,46,-1
 393 497 l 1,47,-1
 393 497 l 1,0,-1
186 681 m 1,48,-1
 169 646 l 1,49,-1
 127 645 l 1,50,-1
 108 673 l 1,51,-1
 114 719 l 1,52,-1
 125 733 l 1,53,-1
 174 727 l 1,54,-1
 186 714 l 1,55,-1
 186 681 l 1,56,-1
 186 681 l 1,48,-1
381 699 m 1,57,-1
 368 685 l 1,58,-1
 375 678 l 1,59,-1
 375 657 l 1,60,-1
 355 645 l 1,61,-1
 336 649 l 1,62,-1
 307 677 l 1,63,-1
 314 709 l 1,64,-1
 334 724 l 1,65,-1
 374 717 l 1,66,-1
 381 711 l 1,67,-1
 381 699 l 1,68,-1
 381 699 l 1,57,-1
EndSplineSet
EndChar

StartChar: otilde
Encoding: 245 245 125
Width: 500
GlyphClass: 1
Flags: W
LayerCount: 2
Fore
SplineSet
399 232 m 1,0,-1
 387 214 l 1,1,-1
 391 87 l 1,2,-1
 364 44 l 1,3,-1
 313 6 l 1,4,-1
 282 -6 l 1,5,-1
 183 -3 l 1,6,-1
 108 55 l 1,7,-1
 88 106 l 1,8,-1
 98 155 l 1,9,-1
 98 171 l 1,10,-1
 105 171 l 1,11,-1
 125 189 l 1,12,-1
 131 225 l 1,13,-1
 124 231 l 1,14,-1
 110 231 l 1,15,-1
 109 262 l 1,16,-1
 129 268 l 1,17,-1
 170 210 l 1,18,-1
 172 131 l 1,19,-1
 152 113 l 1,20,-1
 194 89 l 1,21,-1
 213 72 l 1,22,-1
 272 74 l 1,23,-1
 310 111 l 1,24,-1
 319 261 l 1,25,-1
 308 383 l 1,26,-1
 300 388 l 1,27,-1
 300 405 l 1,28,-1
 314 416 l 1,29,-1
 326 454 l 1,30,-1
 304 490 l 1,31,-1
 243 543 l 1,32,-1
 249 558 l 1,33,-1
 249 574 l 1,34,-1
 231 585 l 1,35,-1
 256 574 l 1,36,-1
 283 586 l 1,37,-1
 329 570 l 1,38,-1
 384 512 l 1,39,-1
 398 476 l 1,40,-1
 399 232 l 1,41,-1
 399 232 l 1,0,-1
205 519 m 1,42,-1
 181 493 l 1,43,-1
 155 445 l 1,44,-1
 156 428 l 1,45,-1
 177 408 l 1,46,-1
 173 326 l 1,47,-1
 146 283 l 1,48,-1
 122 283 l 1,49,-1
 115 288 l 1,50,-1
 114 310 l 1,51,-1
 113 326 l 1,52,-1
 99 341 l 1,53,-1
 104 415 l 1,54,-1
 117 427 l 1,55,-1
 102 454 l 1,56,-1
 102 458 l 1,57,-1
 116 469 l 1,58,-1
 133 470 l 1,59,-1
 147 481 l 1,60,-1
 128 518 l 1,61,-1
 189 573 l 1,62,-1
 203 573 l 1,63,-1
 205 519 l 1,64,-1
 205 519 l 1,42,-1
390 656 m 1,65,-1
 366 623 l 1,66,-1
 326 608 l 1,67,-1
 259 613 l 1,68,-1
 238 619 l 1,69,-1
 219 619 l 1,70,-1
 192 597 l 1,71,-1
 159 596 l 1,72,-1
 131 624 l 1,73,-1
 134 677 l 1,74,-1
 189 711 l 1,75,-1
 228 726 l 1,76,-1
 275 713 l 1,77,-1
 296 695 l 1,78,-1
 317 696 l 1,79,-1
 335 715 l 1,80,-1
 377 709 l 1,81,-1
 389 698 l 1,82,-1
 390 656 l 1,83,-1
 390 656 l 1,65,-1
EndSplineSet
EndChar

StartChar: uacute
Encoding: 250 250 126
Width: 500
GlyphClass: 1
Flags: W
LayerCount: 2
Fore
SplineSet
408 336 m 1,0,-1
 401 304 l 1,1,-1
 384 227 l 1,2,-1
 370 216 l 1,3,-1
 392 185 l 1,4,-1
 393 111 l 1,5,-1
 366 111 l 1,6,-1
 366 80 l 1,7,-1
 374 74 l 1,8,-1
 363 49 l 1,9,-1
 290 10 l 1,10,-1
 218 9 l 1,11,-1
 151 35 l 1,12,-1
 118 65 l 1,13,-1
 95 142 l 1,14,-1
 100 226 l 1,15,-1
 103 378 l 1,16,-1
 102 419 l 1,17,-1
 100 486 l 1,18,-1
 105 566 l 1,19,-1
 130 586 l 1,20,-1
 164 581 l 1,21,-1
 185 556 l 1,22,-1
 166 520 l 1,23,-1
 180 503 l 1,24,-1
 173 248 l 1,25,-1
 184 108 l 1,26,-1
 209 88 l 1,27,-1
 289 89 l 1,28,-1
 320 121 l 1,29,-1
 333 157 l 1,30,-1
 316 287 l 1,31,-1
 313 391 l 1,32,-1
 325 444 l 1,33,-1
 309 552 l 1,34,-1
 322 584 l 1,35,-1
 388 579 l 1,36,-1
 402 559 l 1,37,-1
 403 532 l 1,38,-1
 390 523 l 1,39,-1
 393 351 l 1,40,-1
 408 336 l 1,41,-1
 408 336 l 1,0,-1
354 748 m 1,42,-1
 349 706 l 1,43,-1
 325 685 l 1,44,-1
 285 670 l 1,45,-1
 239 643 l 1,46,-1
 210 624 l 1,47,-1
 177 617 l 1,48,-1
 155 639 l 1,49,-1
 160 679 l 1,50,-1
 215 719 l 1,51,-1
 254 735 l 1,52,-1
 300 765 l 1,53,-1
 342 759 l 1,54,-1
 354 748 l 1,55,-1
 354 748 l 1,42,-1
EndSplineSet
EndChar

StartChar: ugrave
Encoding: 249 249 127
Width: 500
GlyphClass: 1
Flags: W
LayerCount: 2
Fore
SplineSet
408 336 m 1,0,-1
 401 304 l 1,1,-1
 384 227 l 1,2,-1
 370 216 l 1,3,-1
 392 185 l 1,4,-1
 393 111 l 1,5,-1
 366 111 l 1,6,-1
 366 80 l 1,7,-1
 374 74 l 1,8,-1
 363 49 l 1,9,-1
 290 10 l 1,10,-1
 218 9 l 1,11,-1
 151 35 l 1,12,-1
 118 65 l 1,13,-1
 95 142 l 1,14,-1
 100 226 l 1,15,-1
 103 378 l 1,16,-1
 102 419 l 1,17,-1
 100 486 l 1,18,-1
 105 566 l 1,19,-1
 130 586 l 1,20,-1
 164 581 l 1,21,-1
 185 556 l 1,22,-1
 166 520 l 1,23,-1
 180 503 l 1,24,-1
 173 248 l 1,25,-1
 184 108 l 1,26,-1
 209 88 l 1,27,-1
 289 89 l 1,28,-1
 320 121 l 1,29,-1
 333 157 l 1,30,-1
 316 287 l 1,31,-1
 313 391 l 1,32,-1
 325 444 l 1,33,-1
 309 552 l 1,34,-1
 322 584 l 1,35,-1
 388 579 l 1,36,-1
 402 559 l 1,37,-1
 403 532 l 1,38,-1
 390 523 l 1,39,-1
 393 351 l 1,40,-1
 408 336 l 1,41,-1
 408 336 l 1,0,-1
348 649 m 1,42,-1
 320 633 l 1,43,-1
 291 643 l 1,44,-1
 262 662 l 1,45,-1
 216 689 l 1,46,-1
 176 704 l 1,47,-1
 152 737 l 1,48,-1
 149 758 l 1,49,-1
 161 769 l 1,50,-1
 203 775 l 1,51,-1
 249 745 l 1,52,-1
 288 729 l 1,53,-1
 343 689 l 1,54,-1
 348 649 l 1,55,-1
 348 649 l 1,42,-1
EndSplineSet
EndChar

StartChar: ucircumflex
Encoding: 251 251 128
Width: 500
GlyphClass: 1
Flags: W
LayerCount: 2
Fore
SplineSet
408 336 m 1,0,-1
 401 304 l 1,1,-1
 384 227 l 1,2,-1
 370 216 l 1,3,-1
 392 185 l 1,4,-1
 393 111 l 1,5,-1
 366 111 l 1,6,-1
 366 80 l 1,7,-1
 374 74 l 1,8,-1
 363 49 l 1,9,-1
 290 10 l 1,10,-1
 218 9 l 1,11,-1
 151 35 l 1,12,-1
 118 65 l 1,13,-1
 95 142 l 1,14,-1
 100 226 l 1,15,-1
 103 378 l 1,16,-1
 102 419 l 1,17,-1
 100 486 l 1,18,-1
 105 566 l 1,19,-1
 130 586 l 1,20,-1
 164 581 l 1,21,-1
 185 556 l 1,22,-1
 166 520 l 1,23,-1
 180 503 l 1,24,-1
 173 248 l 1,25,-1
 184 108 l 1,26,-1
 209 88 l 1,27,-1
 289 89 l 1,28,-1
 320 121 l 1,29,-1
 333 157 l 1,30,-1
 316 287 l 1,31,-1
 313 391 l 1,32,-1
 325 444 l 1,33,-1
 309 552 l 1,34,-1
 322 584 l 1,35,-1
 388 579 l 1,36,-1
 402 559 l 1,37,-1
 403 532 l 1,38,-1
 390 523 l 1,39,-1
 393 351 l 1,40,-1
 408 336 l 1,41,-1
 408 336 l 1,0,-1
363 664 m 1,42,-1
 359 649 l 1,43,-1
 331 633 l 1,44,-1
 302 643 l 1,45,-1
 273 662 l 1,46,-1
 256 679 l 1,47,-1
 231 678 l 1,48,-1
 194 657 l 1,49,-1
 160 637 l 1,50,-1
 140 644 l 1,51,-1
 136 660 l 1,52,-1
 139 683 l 1,53,-1
 152 700 l 1,54,-1
 206 735 l 1,55,-1
 230 748 l 1,56,-1
 273 745 l 1,57,-1
 299 729 l 1,58,-1
 323 715 l 1,59,-1
 354 689 l 1,60,-1
 363 664 l 1,61,-1
 363 664 l 1,42,-1
EndSplineSet
EndChar

StartChar: udieresis
Encoding: 252 252 129
Width: 500
GlyphClass: 1
Flags: W
LayerCount: 2
Fore
SplineSet
385 561 m 1,0,-1
 380 500 l 1,1,-1
 380 468 l 1,2,-1
 382 379 l 1,3,-1
 381 186 l 1,4,-1
 382 133 l 1,5,-1
 383 72 l 1,6,-1
 356 32 l 1,7,-1
 324 11 l 1,8,-1
 236 2 l 1,9,-1
 181 54 l 1,10,-1
 156 35 l 1,11,-1
 120 81 l 1,12,-1
 120 88 l 1,13,-1
 127 93 l 1,14,-1
 101 134 l 1,15,-1
 105 274 l 1,16,-1
 102 441 l 1,17,-1
 99 569 l 1,18,-1
 117 583 l 1,19,-1
 152 577 l 1,20,-1
 171 550 l 1,21,-1
 169 310 l 1,22,-1
 164 235 l 1,23,-1
 153 207 l 1,24,-1
 165 182 l 1,25,-1
 165 168 l 1,26,-1
 132 181 l 1,27,-1
 112 167 l 1,28,-1
 112 148 l 1,29,-1
 140 135 l 1,30,-1
 166 135 l 1,31,-1
 173 115 l 1,32,-1
 174 101 l 1,33,-1
 209 69 l 1,34,-1
 242 62 l 1,35,-1
 276 77 l 1,36,-1
 308 103 l 1,37,-1
 321 171 l 1,38,-1
 305 264 l 1,39,-1
 313 566 l 1,40,-1
 331 581 l 1,41,-1
 366 581 l 1,42,-1
 385 561 l 1,43,-1
 385 561 l 1,0,-1
183 664 m 1,44,-1
 144 637 l 1,45,-1
 123 644 l 1,46,-1
 97 669 l 1,47,-1
 96 709 l 1,48,-1
 121 730 l 1,49,-1
 154 731 l 1,50,-1
 182 699 l 1,51,-1
 183 664 l 1,52,-1
 183 664 l 1,44,-1
383 696 m 1,53,-1
 376 656 l 1,54,-1
 365 642 l 1,55,-1
 318 648 l 1,56,-1
 297 680 l 1,57,-1
 303 701 l 1,58,-1
 335 734 l 1,59,-1
 363 728 l 1,60,-1
 383 696 l 1,61,-1
 383 696 l 1,53,-1
EndSplineSet
EndChar

StartChar: dagger
Encoding: 8224 8224 130
Width: 500
GlyphClass: 1
Flags: W
LayerCount: 2
Fore
SplineSet
363 561 m 1,0,-1
 346 521 l 1,1,-1
 297 499 l 1,2,-1
 287 473 l 1,3,-1
 282 384 l 1,4,-1
 275 377 l 1,5,-1
 294 352 l 1,6,-1
 292 263 l 1,7,-1
 278 251 l 1,8,-1
 299 178 l 1,9,-1
 291 129 l 1,10,-1
 305 69 l 1,11,-1
 296 13 l 1,12,-1
 261 -8 l 1,13,-1
 228 5 l 1,14,-1
 214 37 l 1,15,-1
 211 261 l 1,16,-1
 216 336 l 1,17,-1
 214 410 l 1,18,-1
 205 496 l 1,19,-1
 130 508 l 1,20,-1
 118 508 l 1,21,-1
 97 533 l 1,22,-1
 121 582 l 1,23,-1
 204 576 l 1,24,-1
 204 678 l 1,25,-1
 222 720 l 1,26,-1
 252 723 l 1,27,-1
 282 690 l 1,28,-1
 291 579 l 1,29,-1
 323 574 l 1,30,-1
 356 568 l 1,31,-1
 363 561 l 1,32,-1
 363 561 l 1,0,-1
EndSplineSet
EndChar

StartChar: degree
Encoding: 65539 -1 131
Width: 500
GlyphClass: 1
Flags: W
LayerCount: 2
Fore
SplineSet
363 669 m 1,0,-1
 355 584 l 1,1,-1
 324 534 l 1,2,-1
 280 504 l 1,3,-1
 203 500 l 1,4,-1
 157 529 l 1,5,-1
 134 596 l 1,6,-1
 124 631 l 1,7,-1
 131 694 l 1,8,-1
 144 716 l 1,9,-1
 186 751 l 1,10,-1
 250 759 l 1,11,-1
 283 754 l 1,12,-1
 330 726 l 1,13,-1
 363 669 l 1,14,-1
 363 669 l 1,0,-1
303 601 m 1,15,-1
 303 636 l 1,16,-1
 279 689 l 1,17,-1
 245 699 l 1,18,-1
 215 687 l 1,19,-1
 192 660 l 1,20,-1
 193 641 l 1,21,-1
 191 603 l 1,22,-1
 217 565 l 1,23,-1
 256 563 l 1,24,-1
 291 576 l 1,25,-1
 303 601 l 1,26,-1
 303 601 l 1,15,-1
EndSplineSet
EndChar

StartChar: cent
Encoding: 162 162 132
Width: 500
GlyphClass: 1
Flags: W
LayerCount: 2
Fore
SplineSet
413 110 m 1,0,-1
 375 56 l 1,1,-1
 322 27 l 1,2,-1
 288 -20 l 1,3,-1
 241 -21 l 1,4,-1
 215 18 l 1,5,-1
 161 52 l 1,6,-1
 125 91 l 1,7,-1
 112 144 l 1,8,-1
 115 218 l 1,9,-1
 127 358 l 1,10,-1
 181 306 l 1,11,-1
 170 294 l 1,12,-1
 182 273 l 1,13,-1
 198 160 l 1,14,-1
 212 146 l 1,15,-1
 230 181 l 1,16,-1
 235 267 l 1,17,-1
 240 360 l 1,18,-1
 260 421 l 1,19,-1
 232 456 l 1,20,-1
 251 516 l 1,21,-1
 258 521 l 1,22,-1
 284 522 l 1,23,-1
 298 496 l 1,24,-1
 299 469 l 1,25,-1
 267 435 l 1,26,-1
 294 382 l 1,27,-1
 296 255 l 1,28,-1
 311 208 l 1,29,-1
 312 141 l 1,30,-1
 319 134 l 1,31,-1
 333 134 l 1,32,-1
 379 203 l 1,33,-1
 411 196 l 1,34,-1
 413 110 l 1,35,-1
 413 110 l 1,0,-1
190 580 m 1,36,-1
 170 526 l 1,37,-1
 166 466 l 1,38,-1
 153 454 l 1,39,-1
 131 486 l 1,40,-1
 129 572 l 1,41,-1
 149 633 l 1,42,-1
 149 614 l 1,43,-1
 190 580 l 1,44,-1
 190 580 l 1,36,-1
432 546 m 1,45,-1
 379 512 l 1,46,-1
 358 519 l 1,47,-1
 344 537 l 1,48,-1
 343 597 l 1,49,-1
 363 619 l 1,50,-1
 363 633 l 1,51,-1
 356 637 l 1,52,-1
 317 625 l 1,53,-1
 289 631 l 1,54,-1
 288 650 l 1,55,-1
 248 663 l 1,56,-1
 235 649 l 1,57,-1
 270 624 l 1,58,-1
 275 624 l 1,59,-1
 289 589 l 1,60,-1
 276 550 l 1,61,-1
 258 535 l 1,62,-1
 251 535 l 1,63,-1
 244 542 l 1,64,-1
 244 556 l 1,65,-1
 264 570 l 1,66,-1
 228 623 l 1,67,-1
 189 622 l 1,68,-1
 188 641 l 1,69,-1
 181 648 l 1,70,-1
 163 647 l 1,71,-1
 162 654 l 1,72,-1
 174 668 l 1,73,-1
 202 662 l 1,74,-1
 247 709 l 1,75,-1
 261 710 l 1,76,-1
 269 689 l 1,77,-1
 255 677 l 1,78,-1
 262 670 l 1,79,-1
 281 671 l 1,80,-1
 288 678 l 1,81,-1
 287 689 l 1,82,-1
 315 690 l 1,83,-1
 363 644 l 1,84,-1
 389 633 l 1,85,-1
 432 560 l 1,86,-1
 432 546 l 1,87,-1
 432 546 l 1,45,-1
EndSplineSet
EndChar

StartChar: sterling
Encoding: 163 163 133
Width: 500
GlyphClass: 1
Flags: W
LayerCount: 2
Fore
SplineSet
450 72 m 1,0,-1
 409 32 l 1,1,-1
 344 9 l 1,2,-1
 295 15 l 1,3,-1
 262 35 l 1,4,-1
 189 6 l 1,5,-1
 117 4 l 1,6,-1
 95 18 l 1,7,-1
 67 52 l 1,8,-1
 72 124 l 1,9,-1
 92 160 l 1,10,-1
 138 179 l 1,11,-1
 213 174 l 1,12,-1
 227 163 l 1,13,-1
 232 163 l 1,14,-1
 245 175 l 1,15,-1
 237 249 l 1,16,-1
 217 275 l 1,17,-1
 209 315 l 1,18,-1
 201 326 l 1,19,-1
 181 350 l 1,20,-1
 125 358 l 1,21,-1
 100 375 l 1,22,-1
 99 415 l 1,23,-1
 113 429 l 1,24,-1
 138 429 l 1,25,-1
 156 434 l 1,26,-1
 179 433 l 1,27,-1
 186 433 l 1,28,-1
 190 440 l 1,29,-1
 190 454 l 1,30,-1
 171 454 l 1,31,-1
 145 521 l 1,32,-1
 123 556 l 1,33,-1
 136 596 l 1,34,-1
 142 642 l 1,35,-1
 174 690 l 1,36,-1
 240 737 l 1,37,-1
 294 732 l 1,38,-1
 348 707 l 1,39,-1
 384 655 l 1,40,-1
 389 608 l 1,41,-1
 371 594 l 1,42,-1
 332 593 l 1,43,-1
 303 632 l 1,44,-1
 270 645 l 1,45,-1
 235 630 l 1,46,-1
 204 583 l 1,47,-1
 198 537 l 1,48,-1
 245 463 l 1,49,-1
 248 428 l 1,50,-1
 304 425 l 1,51,-1
 329 419 l 1,52,-1
 337 379 l 1,53,-1
 325 361 l 1,54,-1
 276 359 l 1,55,-1
 269 352 l 1,56,-1
 276 327 l 1,57,-1
 283 299 l 1,58,-1
 295 254 l 1,59,-1
 312 218 l 1,60,-1
 326 190 l 1,61,-1
 321 111 l 1,62,-1
 354 105 l 1,63,-1
 375 105 l 1,64,-1
 388 131 l 1,65,-1
 413 153 l 1,66,-1
 434 146 l 1,67,-1
 449 107 l 1,68,-1
 450 72 l 1,69,-1
 450 72 l 1,0,-1
EndSplineSet
EndChar

StartChar: section
Encoding: 167 167 134
Width: 500
GlyphClass: 1
Flags: W
LayerCount: 2
Fore
SplineSet
462 303 m 1,0,-1
 417 221 l 1,1,-1
 399 209 l 1,2,-1
 385 194 l 1,3,-1
 388 67 l 1,4,-1
 316 -9 l 1,5,-1
 248 -23 l 1,6,-1
 176 -6 l 1,7,-1
 121 68 l 1,8,-1
 119 149 l 1,9,-1
 144 175 l 1,10,-1
 179 169 l 1,11,-1
 206 123 l 1,12,-1
 213 95 l 1,13,-1
 242 77 l 1,14,-1
 267 78 l 1,15,-1
 299 111 l 1,16,-1
 293 153 l 1,17,-1
 81 295 l 1,18,-1
 54 348 l 1,19,-1
 53 422 l 1,20,-1
 66 441 l 1,21,-1
 70 488 l 1,22,-1
 111 516 l 1,23,-1
 122 538 l 1,24,-1
 109 595 l 1,25,-1
 120 652 l 1,26,-1
 139 698 l 1,27,-1
 192 739 l 1,28,-1
 238 747 l 1,29,-1
 245 754 l 1,30,-1
 320 735 l 1,31,-1
 382 669 l 1,32,-1
 402 623 l 1,33,-1
 397 602 l 1,34,-1
 398 590 l 1,35,-1
 370 562 l 1,36,-1
 317 567 l 1,37,-1
 294 641 l 1,38,-1
 261 659 l 1,39,-1
 229 654 l 1,40,-1
 195 604 l 1,41,-1
 195 586 l 1,42,-1
 285 534 l 1,43,-1
 339 507 l 1,44,-1
 394 448 l 1,45,-1
 420 442 l 1,46,-1
 460 382 l 1,47,-1
 462 303 l 1,48,-1
 462 303 l 1,0,-1
362 315 m 1,49,-1
 361 361 l 1,50,-1
 335 393 l 1,51,-1
 314 400 l 1,52,-1
 226 451 l 1,53,-1
 180 457 l 1,54,-1
 152 436 l 1,55,-1
 147 364 l 1,56,-1
 168 343 l 1,57,-1
 194 337 l 1,58,-1
 263 278 l 1,59,-1
 323 279 l 1,60,-1
 362 315 l 1,61,-1
 362 315 l 1,49,-1
EndSplineSet
EndChar

StartChar: bullet
Encoding: 65540 -1 135
Width: 500
GlyphClass: 1
Flags: W
LayerCount: 2
Fore
SplineSet
458 355 m 1,0,-1
 426 333 l 1,1,-1
 380 332 l 1,2,-1
 373 325 l 1,3,-1
 373 311 l 1,4,-1
 421 259 l 1,5,-1
 415 219 l 1,6,-1
 396 212 l 1,7,-1
 362 211 l 1,8,-1
 314 252 l 1,9,-1
 300 238 l 1,10,-1
 295 184 l 1,11,-1
 263 162 l 1,12,-1
 235 169 l 1,13,-1
 215 196 l 1,14,-1
 214 250 l 1,15,-1
 186 249 l 1,16,-1
 147 213 l 1,17,-1
 115 219 l 1,18,-1
 100 233 l 1,19,-1
 107 273 l 1,20,-1
 159 320 l 1,21,-1
 159 327 l 1,22,-1
 91 340 l 1,23,-1
 77 340 l 1,24,-1
 58 365 l 1,25,-1
 62 386 l 1,26,-1
 96 414 l 1,27,-1
 150 416 l 1,28,-1
 157 420 l 1,29,-1
 156 441 l 1,30,-1
 135 455 l 1,31,-1
 116 473 l 1,32,-1
 115 501 l 1,33,-1
 127 515 l 1,34,-1
 155 516 l 1,35,-1
 188 496 l 1,36,-1
 202 496 l 1,37,-1
 209 489 l 1,38,-1
 222 503 l 1,39,-1
 226 550 l 1,40,-1
 246 571 l 1,41,-1
 281 572 l 1,42,-1
 300 552 l 1,43,-1
 309 459 l 1,44,-1
 323 459 l 1,45,-1
 369 507 l 1,46,-1
 408 508 l 1,47,-1
 416 494 l 1,48,-1
 416 475 l 1,49,-1
 377 439 l 1,50,-1
 350 432 l 1,51,-1
 343 420 l 1,52,-1
 343 399 l 1,53,-1
 378 386 l 1,54,-1
 446 387 l 1,55,-1
 458 374 l 1,56,-1
 458 355 l 1,57,-1
 458 355 l 1,0,-1
EndSplineSet
EndChar

StartChar: paragraph
Encoding: 182 182 136
Width: 500
GlyphClass: 1
Flags: W
LayerCount: 2
Fore
SplineSet
337 46 m 1,0,-1
 309 21 l 1,1,-1
 290 28 l 1,2,-1
 263 54 l 1,3,-1
 268 336 l 1,4,-1
 245 430 l 1,5,-1
 253 478 l 1,6,-1
 255 597 l 1,7,-1
 268 678 l 1,8,-1
 264 692 l 1,9,-1
 233 693 l 1,10,-1
 219 679 l 1,11,-1
 173 673 l 1,12,-1
 158 660 l 1,13,-1
 161 452 l 1,14,-1
 175 438 l 1,15,-1
 196 431 l 1,16,-1
 213 412 l 1,17,-1
 206 376 l 1,18,-1
 181 355 l 1,19,-1
 145 360 l 1,20,-1
 93 400 l 1,21,-1
 73 440 l 1,22,-1
 67 494 l 1,23,-1
 55 508 l 1,24,-1
 56 536 l 1,25,-1
 69 636 l 1,26,-1
 58 650 l 1,27,-1
 51 650 l 1,28,-1
 51 662 l 1,29,-1
 70 682 l 1,30,-1
 78 722 l 1,31,-1
 139 760 l 1,32,-1
 207 773 l 1,33,-1
 330 751 l 1,34,-1
 336 690 l 1,35,-1
 321 623 l 1,36,-1
 332 502 l 1,37,-1
 329 348 l 1,38,-1
 329 321 l 1,39,-1
 334 260 l 1,40,-1
 334 220 l 1,41,-1
 333 174 l 1,42,-1
 337 46 l 1,43,-1
 337 46 l 1,0,-1
448 51 m 1,44,-1
 429 23 l 1,45,-1
 402 21 l 1,46,-1
 381 49 l 1,47,-1
 379 156 l 1,48,-1
 387 275 l 1,49,-1
 380 395 l 1,50,-1
 394 438 l 1,51,-1
 383 470 l 1,52,-1
 386 623 l 1,53,-1
 385 658 l 1,54,-1
 383 730 l 1,55,-1
 393 752 l 1,56,-1
 407 759 l 1,57,-1
 420 760 l 1,58,-1
 441 726 l 1,59,-1
 441 667 l 1,60,-1
 418 632 l 1,61,-1
 433 618 l 1,62,-1
 443 607 l 1,63,-1
 443 586 l 1,64,-1
 424 571 l 1,65,-1
 420 511 l 1,66,-1
 420 492 l 1,67,-1
 441 465 l 1,68,-1
 441 432 l 1,69,-1
 417 411 l 1,70,-1
 437 379 l 1,71,-1
 434 311 l 1,72,-1
 434 290 l 1,73,-1
 420 276 l 1,74,-1
 416 271 l 1,75,-1
 425 229 l 1,76,-1
 418 217 l 1,77,-1
 418 204 l 1,78,-1
 441 170 l 1,79,-1
 447 109 l 1,80,-1
 448 51 l 1,81,-1
 448 51 l 1,44,-1
EndSplineSet
EndChar

StartChar: germandbls
Encoding: 223 223 137
Width: 1000
GlyphClass: 1
Flags: W
LayerCount: 2
Fore
SplineSet
384 593 m 1,0,-1
 371 581 l 1,1,-1
 345 585 l 1,2,-1
 337 627 l 1,3,-1
 337 646 l 1,4,-1
 301 680 l 1,5,-1
 254 697 l 1,6,-1
 254 718 l 1,7,-1
 247 725 l 1,8,-1
 233 711 l 1,9,-1
 233 704 l 1,10,-1
 240 697 l 1,11,-1
 215 697 l 1,12,-1
 181 663 l 1,13,-1
 156 595 l 1,14,-1
 165 528 l 1,15,-1
 192 464 l 1,16,-1
 246 411 l 1,17,-1
 295 391 l 1,18,-1
 314 392 l 1,19,-1
 343 364 l 1,20,-1
 368 365 l 1,21,-1
 362 325 l 1,22,-1
 351 311 l 1,23,-1
 354 125 l 1,24,-1
 334 90 l 1,25,-1
 321 50 l 1,26,-1
 303 36 l 1,27,-1
 275 35 l 1,28,-1
 261 21 l 1,29,-1
 182 26 l 1,30,-1
 139 53 l 1,31,-1
 106 99 l 1,32,-1
 104 206 l 1,33,-1
 125 213 l 1,34,-1
 143 214 l 1,35,-1
 157 200 l 1,36,-1
 158 147 l 1,37,-1
 241 88 l 1,38,-1
 260 81 l 1,39,-1
 274 81 l 1,40,-1
 326 150 l 1,41,-1
 338 246 l 1,42,-1
 330 285 l 1,43,-1
 315 338 l 1,44,-1
 315 352 l 1,45,-1
 301 363 l 1,46,-1
 296 356 l 1,47,-1
 215 355 l 1,48,-1
 168 375 l 1,49,-1
 128 402 l 1,50,-1
 106 427 l 1,51,-1
 102 662 l 1,52,-1
 175 738 l 1,53,-1
 221 750 l 1,54,-1
 274 747 l 1,55,-1
 293 747 l 1,56,-1
 321 727 l 1,57,-1
 314 720 l 1,58,-1
 315 713 l 1,59,-1
 354 706 l 1,60,-1
 369 667 l 1,61,-1
 384 621 l 1,62,-1
 384 593 l 1,63,-1
 384 593 l 1,0,-1
884 593 m 1,64,-1
 871 581 l 1,65,-1
 845 585 l 1,66,-1
 837 627 l 1,67,-1
 837 646 l 1,68,-1
 801 680 l 1,69,-1
 754 697 l 1,70,-1
 754 718 l 1,71,-1
 747 725 l 1,72,-1
 733 711 l 1,73,-1
 733 704 l 1,74,-1
 740 697 l 1,75,-1
 715 697 l 1,76,-1
 681 663 l 1,77,-1
 656 595 l 1,78,-1
 665 528 l 1,79,-1
 692 464 l 1,80,-1
 746 411 l 1,81,-1
 795 391 l 1,82,-1
 814 392 l 1,83,-1
 843 364 l 1,84,-1
 868 365 l 1,85,-1
 862 325 l 1,86,-1
 851 311 l 1,87,-1
 854 125 l 1,88,-1
 834 90 l 1,89,-1
 821 50 l 1,90,-1
 803 36 l 1,91,-1
 775 35 l 1,92,-1
 761 21 l 1,93,-1
 682 26 l 1,94,-1
 639 53 l 1,95,-1
 606 99 l 1,96,-1
 604 206 l 1,97,-1
 625 213 l 1,98,-1
 643 214 l 1,99,-1
 657 200 l 1,100,-1
 658 147 l 1,101,-1
 741 88 l 1,102,-1
 760 81 l 1,103,-1
 774 81 l 1,104,-1
 826 150 l 1,105,-1
 838 246 l 1,106,-1
 830 285 l 1,107,-1
 815 338 l 1,108,-1
 815 352 l 1,109,-1
 801 363 l 1,110,-1
 796 356 l 1,111,-1
 715 355 l 1,112,-1
 668 375 l 1,113,-1
 628 402 l 1,114,-1
 606 427 l 1,115,-1
 602 662 l 1,116,-1
 675 738 l 1,117,-1
 721 750 l 1,118,-1
 774 747 l 1,119,-1
 793 747 l 1,120,-1
 821 727 l 1,121,-1
 814 720 l 1,122,-1
 815 713 l 1,123,-1
 854 706 l 1,124,-1
 869 667 l 1,125,-1
 884 621 l 1,126,-1
 884 593 l 1,127,-1
 884 593 l 1,64,-1
EndSplineSet
EndChar

StartChar: registered
Encoding: 174 174 138
Width: 500
GlyphClass: 1
Flags: W
LayerCount: 2
Fore
SplineSet
459 597 m 1,0,-1
 455 446 l 1,1,-1
 456 389 l 1,2,-1
 458 304 l 1,3,-1
 451 94 l 1,4,-1
 418 36 l 1,5,-1
 342 -9 l 1,6,-1
 284 -23 l 1,7,-1
 207 -17 l 1,8,-1
 130 15 l 1,9,-1
 78 71 l 1,10,-1
 58 148 l 1,11,-1
 63 188 l 1,12,-1
 60 267 l 1,13,-1
 58 334 l 1,14,-1
 57 361 l 1,15,-1
 67 445 l 1,16,-1
 61 583 l 1,17,-1
 87 625 l 1,18,-1
 86 677 l 1,19,-1
 191 747 l 1,20,-1
 234 755 l 1,21,-1
 318 750 l 1,22,-1
 397 718 l 1,23,-1
 434 662 l 1,24,-1
 459 597 l 1,25,-1
 459 597 l 1,0,-1
411 600 m 1,26,-1
 393 658 l 1,27,-1
 337 695 l 1,28,-1
 189 703 l 1,29,-1
 144 667 l 1,30,-1
 115 572 l 1,31,-1
 111 497 l 1,32,-1
 108 339 l 1,33,-1
 112 235 l 1,34,-1
 114 91 l 1,35,-1
 159 52 l 1,36,-1
 309 29 l 1,37,-1
 368 55 l 1,38,-1
 405 121 l 1,39,-1
 405 445 l 1,40,-1
 411 600 l 1,41,-1
 411 600 l 1,26,-1
383 146 m 1,42,-1
 374 116 l 1,43,-1
 342 97 l 1,44,-1
 324 102 l 1,45,-1
 308 125 l 1,46,-1
 298 176 l 1,47,-1
 292 209 l 1,48,-1
 282 241 l 1,49,-1
 272 302 l 1,50,-1
 262 326 l 1,51,-1
 242 340 l 1,52,-1
 229 339 l 1,53,-1
 215 324 l 1,54,-1
 218 160 l 1,55,-1
 219 127 l 1,56,-1
 210 113 l 1,57,-1
 201 104 l 1,58,-1
 172 104 l 1,59,-1
 154 131 l 1,60,-1
 152 412 l 1,61,-1
 152 435 l 1,62,-1
 154 572 l 1,63,-1
 161 605 l 1,64,-1
 166 610 l 1,65,-1
 199 624 l 1,66,-1
 222 629 l 1,67,-1
 308 621 l 1,68,-1
 336 608 l 1,69,-1
 350 594 l 1,70,-1
 364 534 l 1,71,-1
 366 477 l 1,72,-1
 368 384 l 1,73,-1
 331 332 l 1,74,-1
 342 295 l 1,75,-1
 373 158 l 1,76,-1
 383 146 l 1,77,-1
 383 146 l 1,42,-1
307 429 m 1,78,-1
 304 541 l 1,79,-1
 289 565 l 1,80,-1
 229 563 l 1,81,-1
 226 489 l 1,82,-1
 222 456 l 1,83,-1
 223 399 l 1,84,-1
 238 400 l 1,85,-1
 292 406 l 1,86,-1
 307 429 l 1,87,-1
 307 429 l 1,78,-1
EndSplineSet
EndChar

StartChar: copyright
Encoding: 169 169 139
Width: 500
GlyphClass: 1
Flags: W
LayerCount: 2
Fore
SplineSet
459 597 m 1,0,-1
 455 446 l 1,1,-1
 456 389 l 1,2,-1
 458 304 l 1,3,-1
 451 94 l 1,4,-1
 418 36 l 1,5,-1
 342 -9 l 1,6,-1
 284 -23 l 1,7,-1
 207 -17 l 1,8,-1
 130 15 l 1,9,-1
 78 71 l 1,10,-1
 58 148 l 1,11,-1
 63 188 l 1,12,-1
 60 267 l 1,13,-1
 58 334 l 1,14,-1
 57 361 l 1,15,-1
 67 445 l 1,16,-1
 61 583 l 1,17,-1
 87 625 l 1,18,-1
 86 677 l 1,19,-1
 191 747 l 1,20,-1
 234 755 l 1,21,-1
 318 750 l 1,22,-1
 397 718 l 1,23,-1
 434 662 l 1,24,-1
 459 597 l 1,25,-1
 459 597 l 1,0,-1
411 600 m 1,26,-1
 393 658 l 1,27,-1
 337 695 l 1,28,-1
 189 703 l 1,29,-1
 144 667 l 1,30,-1
 115 572 l 1,31,-1
 111 497 l 1,32,-1
 108 339 l 1,33,-1
 112 235 l 1,34,-1
 114 91 l 1,35,-1
 159 52 l 1,36,-1
 309 29 l 1,37,-1
 368 55 l 1,38,-1
 405 121 l 1,39,-1
 405 445 l 1,40,-1
 411 600 l 1,41,-1
 411 600 l 1,26,-1
382 209 m 1,42,-1
 351 138 l 1,43,-1
 309 112 l 1,44,-1
 205 114 l 1,45,-1
 162 156 l 1,46,-1
 147 208 l 1,47,-1
 152 338 l 1,48,-1
 149 427 l 1,49,-1
 151 549 l 1,50,-1
 170 588 l 1,51,-1
 211 626 l 1,52,-1
 238 637 l 1,53,-1
 295 633 l 1,54,-1
 338 610 l 1,55,-1
 372 565 l 1,56,-1
 374 513 l 1,57,-1
 354 493 l 1,58,-1
 332 497 l 1,59,-1
 316 511 l 1,60,-1
 311 539 l 1,61,-1
 298 548 l 1,62,-1
 268 557 l 1,63,-1
 241 552 l 1,64,-1
 223 524 l 1,65,-1
 226 429 l 1,66,-1
 217 387 l 1,67,-1
 219 339 l 1,68,-1
 212 217 l 1,69,-1
 212 199 l 1,70,-1
 241 173 l 1,71,-1
 270 173 l 1,72,-1
 288 182 l 1,73,-1
 302 197 l 1,74,-1
 306 229 l 1,75,-1
 323 250 l 1,76,-1
 356 250 l 1,77,-1
 382 209 l 1,78,-1
 382 209 l 1,42,-1
EndSplineSet
EndChar

StartChar: trademark
Encoding: 8482 8482 140
Width: 500
GlyphClass: 1
Flags: W
LayerCount: 2
Fore
SplineSet
463 378 m 1,0,-1
 460 305 l 1,1,-1
 443 288 l 1,2,-1
 433 288 l 1,3,-1
 411 304 l 1,4,-1
 400 456 l 1,5,-1
 392 481 l 1,6,-1
 362 399 l 1,7,-1
 349 390 l 1,8,-1
 308 394 l 1,9,-1
 297 402 l 1,10,-1
 284 442 l 1,11,-1
 279 470 l 1,12,-1
 271 478 l 1,13,-1
 264 461 l 1,14,-1
 262 352 l 1,15,-1
 259 320 l 1,16,-1
 259 309 l 1,17,-1
 234 291 l 1,18,-1
 214 300 l 1,19,-1
 206 310 l 1,20,-1
 204 400 l 1,21,-1
 211 460 l 1,22,-1
 213 556 l 1,23,-1
 212 569 l 1,24,-1
 221 577 l 1,25,-1
 212 612 l 1,26,-1
 209 721 l 1,27,-1
 228 738 l 1,28,-1
 253 743 l 1,29,-1
 278 718 l 1,30,-1
 287 654 l 1,31,-1
 313 567 l 1,32,-1
 322 539 l 1,33,-1
 329 527 l 1,34,-1
 334 523 l 1,35,-1
 346 551 l 1,36,-1
 353 591 l 1,37,-1
 364 619 l 1,38,-1
 371 660 l 1,39,-1
 391 725 l 1,40,-1
 406 742 l 1,41,-1
 446 739 l 1,42,-1
 461 723 l 1,43,-1
 455 534 l 1,44,-1
 462 406 l 1,45,-1
 463 378 l 1,46,-1
 463 378 l 1,0,-1
209 712 m 1,47,-1
 184 691 l 1,48,-1
 148 690 l 1,49,-1
 141 677 l 1,50,-1
 149 388 l 1,51,-1
 146 316 l 1,52,-1
 139 304 l 1,53,-1
 130 295 l 1,54,-1
 106 299 l 1,55,-1
 93 327 l 1,56,-1
 91 423 l 1,57,-1
 90 436 l 1,58,-1
 89 479 l 1,59,-1
 86 592 l 1,60,-1
 88 676 l 1,61,-1
 73 688 l 1,62,-1
 40 691 l 1,63,-1
 19 710 l 1,64,-1
 22 735 l 1,65,-1
 46 751 l 1,66,-1
 191 744 l 1,67,-1
 204 736 l 1,68,-1
 208 723 l 1,69,-1
 209 712 l 1,70,-1
 209 712 l 1,47,-1
EndSplineSet
EndChar

StartChar: acute
Encoding: 180 180 141
Width: 500
GlyphClass: 1
Flags: W
LayerCount: 2
Fore
SplineSet
354 748 m 1,0,-1
 349 706 l 1,1,-1
 325 685 l 1,2,-1
 285 670 l 1,3,-1
 239 643 l 1,4,-1
 210 624 l 1,5,-1
 177 617 l 1,6,-1
 155 639 l 1,7,-1
 160 679 l 1,8,-1
 215 719 l 1,9,-1
 254 735 l 1,10,-1
 300 765 l 1,11,-1
 342 759 l 1,12,-1
 354 748 l 1,13,-1
 354 748 l 1,0,-1
EndSplineSet
EndChar

StartChar: dieresis
Encoding: 168 168 142
Width: 500
GlyphClass: 1
Flags: W
LayerCount: 2
Fore
SplineSet
183 664 m 1,0,-1
 144 637 l 1,1,-1
 123 644 l 1,2,-1
 97 669 l 1,3,-1
 96 709 l 1,4,-1
 121 730 l 1,5,-1
 154 731 l 1,6,-1
 182 699 l 1,7,-1
 183 664 l 1,8,-1
 183 664 l 1,0,-1
383 696 m 1,9,-1
 376 656 l 1,10,-1
 365 642 l 1,11,-1
 318 648 l 1,12,-1
 297 680 l 1,13,-1
 303 701 l 1,14,-1
 335 734 l 1,15,-1
 363 728 l 1,16,-1
 383 696 l 1,17,-1
 383 696 l 1,9,-1
EndSplineSet
EndChar

StartChar: AE
Encoding: 198 198 144
Width: 500
GlyphClass: 1
Flags: W
LayerCount: 2
Fore
SplineSet
482 8 m 1,0,-1
 468 -25 l 1,1,-1
 448 -39 l 1,2,-1
 280 -43 l 1,3,-1
 248 -25 l 1,4,-1
 232 35 l 1,5,-1
 228 209 l 1,6,-1
 221 216 l 1,7,-1
 197 162 l 1,8,-1
 191 109 l 1,9,-1
 159 -13 l 1,10,-1
 159 -20 l 1,11,-1
 141 -39 l 1,12,-1
 94 -33 l 1,13,-1
 92 53 l 1,14,-1
 103 93 l 1,15,-1
 101 160 l 1,16,-1
 119 321 l 1,17,-1
 118 356 l 1,18,-1
 131 375 l 1,19,-1
 164 678 l 1,20,-1
 191 704 l 1,21,-1
 217 712 l 1,22,-1
 438 710 l 1,23,-1
 466 685 l 1,24,-1
 467 645 l 1,25,-1
 440 617 l 1,26,-1
 333 607 l 1,27,-1
 320 553 l 1,28,-1
 322 479 l 1,29,-1
 324 393 l 1,30,-1
 338 379 l 1,31,-1
 432 368 l 1,32,-1
 433 302 l 1,33,-1
 408 288 l 1,34,-1
 348 280 l 1,35,-1
 327 258 l 1,36,-1
 332 65 l 1,37,-1
 346 52 l 1,38,-1
 439 47 l 1,39,-1
 482 8 l 1,40,-1
 482 8 l 1,0,-1
EndSplineSet
EndChar

StartChar: Oslash
Encoding: 216 216 145
Width: 500
GlyphClass: 1
Flags: W
LayerCount: 2
Fore
SplineSet
460 669 m 1,0,-1
 427 575 l 1,1,-1
 435 234 l 1,2,-1
 427 66 l 1,3,-1
 400 19 l 1,4,-1
 348 -22 l 1,5,-1
 269 -38 l 1,6,-1
 220 -25 l 1,7,-1
 173 0 l 1,8,-1
 161 -1 l 1,9,-1
 134 -27 l 1,10,-1
 101 -21 l 1,11,-1
 100 26 l 1,12,-1
 124 99 l 1,13,-1
 104 368 l 1,14,-1
 106 589 l 1,15,-1
 126 636 l 1,16,-1
 164 683 l 1,17,-1
 238 711 l 1,18,-1
 317 708 l 1,19,-1
 338 694 l 1,20,-1
 399 710 l 1,21,-1
 438 704 l 1,22,-1
 460 669 l 1,23,-1
 460 669 l 1,0,-1
331 85 m 1,24,-1
 330 124 l 1,25,-1
 321 319 l 1,26,-1
 308 305 l 1,27,-1
 289 223 l 1,28,-1
 224 122 l 1,29,-1
 218 75 l 1,30,-1
 246 48 l 1,31,-1
 279 42 l 1,32,-1
 331 85 l 1,33,-1
 331 85 l 1,24,-1
301 586 m 1,34,-1
 287 598 l 1,35,-1
 255 597 l 1,36,-1
 241 592 l 1,37,-1
 213 564 l 1,38,-1
 210 403 l 1,39,-1
 224 389 l 1,40,-1
 245 418 l 1,41,-1
 257 471 l 1,42,-1
 275 504 l 1,43,-1
 288 540 l 1,44,-1
 301 586 l 1,45,-1
 301 586 l 1,34,-1
EndSplineSet
EndChar

StartChar: plusminus
Encoding: 177 177 147
Width: 500
GlyphClass: 1
Flags: W
LayerCount: 2
Fore
SplineSet
345 230 m 1,0,-1
 336 37 l 1,1,-1
 318 22 l 1,2,-1
 290 14 l 1,3,-1
 272 14 l 1,4,-1
 250 41 l 1,5,-1
 239 208 l 1,6,-1
 231 213 l 1,7,-1
 244 255 l 1,8,-1
 228 362 l 1,9,-1
 220 368 l 1,10,-1
 220 380 l 1,11,-1
 227 380 l 1,12,-1
 247 402 l 1,13,-1
 244 523 l 1,14,-1
 265 544 l 1,15,-1
 290 549 l 1,16,-1
 318 550 l 1,17,-1
 320 485 l 1,18,-1
 307 436 l 1,19,-1
 308 417 l 1,20,-1
 326 404 l 1,21,-1
 342 344 l 1,22,-1
 345 230 l 1,23,-1
 345 230 l 1,0,-1
302 617 m 1,24,-1
 282 598 l 1,25,-1
 242 597 l 1,26,-1
 176 560 l 1,27,-1
 129 580 l 1,28,-1
 107 605 l 1,29,-1
 120 640 l 1,30,-1
 218 722 l 1,31,-1
 265 712 l 1,32,-1
 301 678 l 1,33,-1
 302 617 l 1,34,-1
 302 617 l 1,24,-1
EndSplineSet
EndChar

StartChar: yen
Encoding: 165 165 150
Width: 500
GlyphClass: 1
Flags: W
LayerCount: 2
Fore
SplineSet
395 155 m 1,0,-1
 370 126 l 1,1,-1
 364 45 l 1,2,-1
 344 12 l 1,3,-1
 284 11 l 1,4,-1
 257 50 l 1,5,-1
 256 110 l 1,6,-1
 228 130 l 1,7,-1
 149 128 l 1,8,-1
 102 153 l 1,9,-1
 87 181 l 1,10,-1
 93 241 l 1,11,-1
 98 288 l 1,12,-1
 116 321 l 1,13,-1
 156 429 l 1,14,-1
 161 524 l 1,15,-1
 171 592 l 1,16,-1
 211 658 l 1,17,-1
 236 686 l 1,18,-1
 250 687 l 1,19,-1
 257 694 l 1,20,-1
 235 712 l 1,21,-1
 235 740 l 1,22,-1
 255 754 l 1,23,-1
 281 755 l 1,24,-1
 302 734 l 1,25,-1
 297 681 l 1,26,-1
 283 660 l 1,27,-1
 279 534 l 1,28,-1
 217 384 l 1,29,-1
 204 365 l 1,30,-1
 205 318 l 1,31,-1
 191 290 l 1,32,-1
 186 236 l 1,33,-1
 200 223 l 1,34,-1
 253 224 l 1,35,-1
 274 259 l 1,36,-1
 282 413 l 1,37,-1
 302 427 l 1,38,-1
 342 414 l 1,39,-1
 351 321 l 1,40,-1
 367 240 l 1,41,-1
 394 194 l 1,42,-1
 395 155 l 1,43,-1
 395 155 l 1,0,-1
EndSplineSet
EndChar

StartChar: mu
Encoding: 181 181 151
Width: 500
GlyphClass: 1
Flags: W
LayerCount: 2
Fore
SplineSet
415 214 m 1,0,-1
 409 167 l 1,1,-1
 397 106 l 1,2,-1
 324 30 l 1,3,-1
 259 15 l 1,4,-1
 199 20 l 1,5,-1
 137 52 l 1,6,-1
 102 100 l 1,7,-1
 89 146 l 1,8,-1
 89 160 l 1,9,-1
 120 186 l 1,10,-1
 153 187 l 1,11,-1
 222 114 l 1,12,-1
 275 122 l 1,13,-1
 303 158 l 1,14,-1
 314 284 l 1,15,-1
 312 337 l 1,16,-1
 312 372 l 1,17,-1
 255 424 l 1,18,-1
 202 388 l 1,19,-1
 156 348 l 1,20,-1
 138 354 l 1,21,-1
 109 381 l 1,22,-1
 122 447 l 1,23,-1
 107 460 l 1,24,-1
 126 568 l 1,25,-1
 151 582 l 1,26,-1
 179 583 l 1,27,-1
 187 537 l 1,28,-1
 187 516 l 1,29,-1
 153 496 l 1,30,-1
 153 482 l 1,31,-1
 175 469 l 1,32,-1
 295 486 l 1,33,-1
 321 479 l 1,34,-1
 390 388 l 1,35,-1
 413 335 l 1,36,-1
 414 260 l 1,37,-1
 415 214 l 1,38,-1
 415 214 l 1,0,-1
184 683 m 1,39,-1
 171 622 l 1,40,-1
 132 621 l 1,41,-1
 110 642 l 1,42,-1
 116 696 l 1,43,-1
 129 717 l 1,44,-1
 148 717 l 1,45,-1
 184 683 l 1,46,-1
 184 683 l 1,39,-1
369 701 m 1,47,-1
 351 680 l 1,48,-1
 309 686 l 1,49,-1
 297 700 l 1,50,-1
 303 732 l 1,51,-1
 322 747 l 1,52,-1
 369 727 l 1,53,-1
 369 701 l 1,54,-1
 369 701 l 1,47,-1
262 731 m 1,55,-1
 248 719 l 1,56,-1
 255 699 l 1,57,-1
 256 692 l 1,58,-1
 237 691 l 1,59,-1
 230 698 l 1,60,-1
 248 738 l 1,61,-1
 254 738 l 1,62,-1
 262 731 l 1,63,-1
 262 731 l 1,55,-1
EndSplineSet
EndChar

StartChar: ordfeminine
Encoding: 170 170 157
Width: 500
GlyphClass: 1
Flags: W
LayerCount: 2
Fore
SplineSet
451 228 m 1,0,-1
 384 198 l 1,1,-1
 291 210 l 1,2,-1
 284 217 l 1,3,-1
 264 196 l 1,4,-1
 272 110 l 1,5,-1
 259 70 l 1,6,-1
 261 14 l 1,7,-1
 249 2 l 1,8,-1
 235 -5 l 1,9,-1
 214 -6 l 1,10,-1
 181 33 l 1,11,-1
 180 87 l 1,12,-1
 151 140 l 1,13,-1
 157 186 l 1,14,-1
 178 187 l 1,15,-1
 191 201 l 1,16,-1
 191 215 l 1,17,-1
 170 228 l 1,18,-1
 168 293 l 1,19,-1
 141 348 l 1,20,-1
 141 355 l 1,21,-1
 161 376 l 1,22,-1
 193 343 l 1,23,-1
 205 408 l 1,24,-1
 212 415 l 1,25,-1
 212 429 l 1,26,-1
 191 450 l 1,27,-1
 190 461 l 1,28,-1
 196 503 l 1,29,-1
 195 557 l 1,30,-1
 216 576 l 1,31,-1
 208 611 l 1,32,-1
 208 625 l 1,33,-1
 200 643 l 1,34,-1
 193 664 l 1,35,-1
 192 682 l 1,36,-1
 226 725 l 1,37,-1
 245 725 l 1,38,-1
 259 712 l 1,39,-1
 260 665 l 1,40,-1
 261 612 l 1,41,-1
 262 565 l 1,42,-1
 267 548 l 1,43,-1
 270 531 l 1,44,-1
 257 512 l 1,45,-1
 251 444 l 1,46,-1
 233 423 l 1,47,-1
 266 398 l 1,48,-1
 260 337 l 1,49,-1
 262 249 l 1,50,-1
 270 242 l 1,51,-1
 283 242 l 1,52,-1
 308 271 l 1,53,-1
 429 267 l 1,54,-1
 451 246 l 1,55,-1
 451 228 l 1,56,-1
 451 228 l 1,0,-1
128 346 m 1,57,-1
 122 299 l 1,58,-1
 95 259 l 1,59,-1
 109 234 l 1,60,-1
 103 192 l 1,61,-1
 90 173 l 1,62,-1
 111 132 l 1,63,-1
 107 32 l 1,64,-1
 107 11 l 1,65,-1
 93 -1 l 1,66,-1
 47 5 l 1,67,-1
 45 70 l 1,68,-1
 59 84 l 1,69,-1
 44 151 l 1,70,-1
 70 212 l 1,71,-1
 55 265 l 1,72,-1
 34 286 l 1,73,-1
 40 326 l 1,74,-1
 66 401 l 1,75,-1
 80 412 l 1,76,-1
 105 413 l 1,77,-1
 106 360 l 1,78,-1
 128 346 l 1,79,-1
 128 346 l 1,57,-1
461 409 m 1,80,-1
 421 334 l 1,81,-1
 389 319 l 1,82,-1
 342 318 l 1,83,-1
 288 371 l 1,84,-1
 293 431 l 1,85,-1
 299 485 l 1,86,-1
 298 517 l 1,87,-1
 298 547 l 1,88,-1
 318 558 l 1,89,-1
 338 547 l 1,90,-1
 349 523 l 1,91,-1
 353 453 l 1,92,-1
 346 446 l 1,93,-1
 347 425 l 1,94,-1
 359 412 l 1,95,-1
 373 412 l 1,96,-1
 386 454 l 1,97,-1
 381 661 l 1,98,-1
 381 668 l 1,99,-1
 367 682 l 1,100,-1
 329 677 l 1,101,-1
 316 649 l 1,102,-1
 297 649 l 1,103,-1
 294 699 l 1,104,-1
 326 734 l 1,105,-1
 340 742 l 1,106,-1
 420 708 l 1,107,-1
 457 616 l 1,108,-1
 416 569 l 1,109,-1
 444 555 l 1,110,-1
 461 409 l 1,111,-1
 461 409 l 1,80,-1
170 441 m 1,112,-1
 145 404 l 1,113,-1
 97 459 l 1,114,-1
 58 440 l 1,115,-1
 44 458 l 1,116,-1
 64 480 l 1,117,-1
 64 507 l 1,118,-1
 49 519 l 1,119,-1
 49 540 l 1,120,-1
 63 554 l 1,121,-1
 62 600 l 1,122,-1
 48 600 l 1,123,-1
 47 614 l 1,124,-1
 68 626 l 1,125,-1
 60 675 l 1,126,-1
 78 708 l 1,127,-1
 78 722 l 1,128,-1
 106 715 l 1,129,-1
 133 656 l 1,130,-1
 116 569 l 1,131,-1
 142 535 l 1,132,-1
 140 499 l 1,133,-1
 141 492 l 1,134,-1
 152 463 l 1,135,-1
 162 448 l 1,136,-1
 170 441 l 1,137,-1
 170 441 l 1,112,-1
343 593 m 1,138,-1
 330 578 l 1,139,-1
 323 578 l 1,140,-1
 301 599 l 1,141,-1
 301 620 l 1,142,-1
 321 632 l 1,143,-1
 342 632 l 1,144,-1
 343 593 l 1,145,-1
 343 593 l 1,138,-1
EndSplineSet
EndChar

StartChar: ordmasculine
Encoding: 186 186 158
Width: 500
GlyphClass: 1
Flags: W
LayerCount: 2
Fore
SplineSet
460 447 m 1,0,-1
 446 433 l 1,1,-1
 448 365 l 1,2,-1
 409 332 l 1,3,-1
 386 326 l 1,4,-1
 367 324 l 1,5,-1
 337 316 l 1,6,-1
 302 322 l 1,7,-1
 295 322 l 1,8,-1
 262 354 l 1,9,-1
 253 449 l 1,10,-1
 270 496 l 1,11,-1
 305 518 l 1,12,-1
 335 556 l 1,13,-1
 311 571 l 1,14,-1
 303 611 l 1,15,-1
 274 643 l 1,16,-1
 220 649 l 1,17,-1
 200 634 l 1,18,-1
 195 629 l 1,19,-1
 172 420 l 1,20,-1
 187 366 l 1,21,-1
 167 340 l 1,22,-1
 167 319 l 1,23,-1
 174 313 l 1,24,-1
 192 127 l 1,25,-1
 219 100 l 1,26,-1
 254 86 l 1,27,-1
 293 108 l 1,28,-1
 292 134 l 1,29,-1
 306 179 l 1,30,-1
 340 196 l 1,31,-1
 298 201 l 1,32,-1
 265 228 l 1,33,-1
 264 254 l 1,34,-1
 287 280 l 1,35,-1
 356 291 l 1,36,-1
 371 277 l 1,37,-1
 417 285 l 1,38,-1
 431 286 l 1,39,-1
 450 258 l 1,40,-1
 444 225 l 1,41,-1
 412 204 l 1,42,-1
 384 203 l 1,43,-1
 377 196 l 1,44,-1
 398 171 l 1,45,-1
 407 104 l 1,46,-1
 421 76 l 1,47,-1
 394 75 l 1,48,-1
 341 21 l 1,49,-1
 288 1 l 1,50,-1
 195 6 l 1,51,-1
 134 37 l 1,52,-1
 93 111 l 1,53,-1
 88 318 l 1,54,-1
 96 471 l 1,55,-1
 84 525 l 1,56,-1
 93 613 l 1,57,-1
 126 693 l 1,58,-1
 145 714 l 1,59,-1
 233 716 l 1,60,-1
 258 742 l 1,61,-1
 300 739 l 1,62,-1
 340 712 l 1,63,-1
 380 673 l 1,64,-1
 402 634 l 1,65,-1
 396 585 l 1,66,-1
 383 566 l 1,67,-1
 356 552 l 1,68,-1
 425 532 l 1,69,-1
 430 514 l 1,70,-1
 431 500 l 1,71,-1
 459 472 l 1,72,-1
 460 447 l 1,73,-1
 460 447 l 1,0,-1
390 408 m 1,74,-1
 390 460 l 1,75,-1
 374 482 l 1,76,-1
 347 482 l 1,77,-1
 330 471 l 1,78,-1
 318 440 l 1,79,-1
 329 399 l 1,80,-1
 347 389 l 1,81,-1
 372 392 l 1,82,-1
 390 408 l 1,83,-1
 390 408 l 1,74,-1
EndSplineSet
EndChar

StartChar: ae
Encoding: 230 230 160
Width: 500
GlyphClass: 1
Flags: W
LayerCount: 2
Fore
SplineSet
462 4 m 1,0,-1
 437 -17 l 1,1,-1
 249 -22 l 1,2,-1
 220 17 l 1,3,-1
 231 145 l 1,4,-1
 230 173 l 1,5,-1
 220 291 l 1,6,-1
 213 298 l 1,7,-1
 188 272 l 1,8,-1
 175 230 l 1,9,-1
 178 130 l 1,10,-1
 161 50 l 1,11,-1
 141 3 l 1,12,-1
 142 -4 l 1,13,-1
 135 -11 l 1,14,-1
 121 -11 l 1,15,-1
 94 27 l 1,16,-1
 91 155 l 1,17,-1
 84 162 l 1,18,-1
 83 181 l 1,19,-1
 114 235 l 1,20,-1
 99 281 l 1,21,-1
 111 370 l 1,22,-1
 124 410 l 1,23,-1
 128 510 l 1,24,-1
 147 606 l 1,25,-1
 149 685 l 1,26,-1
 190 721 l 1,27,-1
 351 718 l 1,28,-1
 411 713 l 1,29,-1
 430 713 l 1,30,-1
 445 686 l 1,31,-1
 445 660 l 1,32,-1
 413 631 l 1,33,-1
 313 629 l 1,34,-1
 305 414 l 1,35,-1
 320 396 l 1,36,-1
 346 383 l 1,37,-1
 406 385 l 1,38,-1
 427 364 l 1,39,-1
 421 331 l 1,40,-1
 394 310 l 1,41,-1
 322 301 l 1,42,-1
 309 254 l 1,43,-1
 312 161 l 1,44,-1
 314 80 l 1,45,-1
 340 62 l 1,46,-1
 440 57 l 1,47,-1
 462 37 l 1,48,-1
 462 4 l 1,49,-1
 462 4 l 1,0,-1
EndSplineSet
EndChar

StartChar: oslash
Encoding: 248 248 161
Width: 500
GlyphClass: 1
Flags: W
LayerCount: 2
Fore
SplineSet
438 686 m 1,0,-1
 431 647 l 1,1,-1
 411 611 l 1,2,-1
 404 297 l 1,3,-1
 408 83 l 1,4,-1
 377 8 l 1,5,-1
 331 -18 l 1,6,-1
 224 -20 l 1,7,-1
 156 4 l 1,8,-1
 110 -23 l 1,9,-1
 81 2 l 1,10,-1
 87 56 l 1,11,-1
 115 96 l 1,12,-1
 92 498 l 1,13,-1
 91 579 l 1,14,-1
 115 647 l 1,15,-1
 174 702 l 1,16,-1
 216 714 l 1,17,-1
 302 709 l 1,18,-1
 335 691 l 1,19,-1
 370 711 l 1,20,-1
 395 718 l 1,21,-1
 416 719 l 1,22,-1
 438 686 l 1,23,-1
 438 686 l 1,0,-1
321 121 m 1,24,-1
 316 363 l 1,25,-1
 296 316 l 1,26,-1
 245 213 l 1,27,-1
 201 86 l 1,28,-1
 234 59 l 1,29,-1
 262 59 l 1,30,-1
 308 81 l 1,31,-1
 321 121 l 1,32,-1
 321 121 l 1,24,-1
297 597 m 1,33,-1
 271 623 l 1,34,-1
 230 622 l 1,35,-1
 191 581 l 1,36,-1
 180 414 l 1,37,-1
 196 333 l 1,38,-1
 223 368 l 1,39,-1
 234 415 l 1,40,-1
 274 509 l 1,41,-1
 297 597 l 1,42,-1
 297 597 l 1,33,-1
EndSplineSet
EndChar

StartChar: questiondown
Encoding: 191 191 162
Width: 500
GlyphClass: 1
Flags: W
LayerCount: 2
Fore
SplineSet
419 235 m 1,0,-1
 416 93 l 1,1,-1
 338 12 l 1,2,-1
 299 -3 l 1,3,-1
 218 2 l 1,4,-1
 156 40 l 1,5,-1
 123 86 l 1,6,-1
 107 153 l 1,7,-1
 105 253 l 1,8,-1
 129 335 l 1,9,-1
 221 444 l 1,10,-1
 233 544 l 1,11,-1
 265 559 l 1,12,-1
 286 560 l 1,13,-1
 313 514 l 1,14,-1
 308 407 l 1,15,-1
 198 255 l 1,16,-1
 200 148 l 1,17,-1
 222 102 l 1,18,-1
 243 89 l 1,19,-1
 297 90 l 1,20,-1
 329 133 l 1,21,-1
 333 244 l 1,22,-1
 386 266 l 1,23,-1
 419 235 l 1,24,-1
 419 235 l 1,0,-1
316 674 m 1,25,-1
 289 646 l 1,26,-1
 271 638 l 1,27,-1
 249 645 l 1,28,-1
 216 686 l 1,29,-1
 215 719 l 1,30,-1
 247 745 l 1,31,-1
 294 746 l 1,32,-1
 315 721 l 1,33,-1
 316 674 l 1,34,-1
 316 674 l 1,25,-1
EndSplineSet
EndChar

StartChar: exclamdown
Encoding: 161 161 163
Width: 321
GlyphClass: 1
Flags: W
LayerCount: 2
Fore
SplineSet
200 86 m 1,0,-1
 188 32 l 1,1,-1
 160 10 l 1,2,-1
 135 10 l 1,3,-1
 106 58 l 1,4,-1
 100 311 l 1,5,-1
 102 546 l 1,6,-1
 115 565 l 1,7,-1
 147 573 l 1,8,-1
 168 573 l 1,9,-1
 195 541 l 1,10,-1
 200 86 l 1,11,-1
 200 86 l 1,0,-1
205 681 m 1,12,-1
 167 648 l 1,13,-1
 120 661 l 1,14,-1
 98 686 l 1,15,-1
 97 728 l 1,16,-1
 125 754 l 1,17,-1
 178 755 l 1,18,-1
 204 730 l 1,19,-1
 205 681 l 1,20,-1
 205 681 l 1,12,-1
EndSplineSet
EndChar

StartChar: florin
Encoding: 402 402 166
Width: 750
GlyphClass: 1
Flags: W
LayerCount: 2
Fore
SplineSet
722 51 m 1,0,-1
 716 2 l 1,1,-1
 670 -17 l 1,2,-1
 434 -9 l 1,3,-1
 416 3 l 1,4,-1
 401 16 l 1,5,-1
 392 418 l 1,6,-1
 397 651 l 1,7,-1
 385 663 l 1,8,-1
 336 680 l 1,9,-1
 288 658 l 1,10,-1
 209 649 l 1,11,-1
 196 609 l 1,12,-1
 204 549 l 1,13,-1
 205 517 l 1,14,-1
 207 435 l 1,15,-1
 228 424 l 1,16,-1
 307 426 l 1,17,-1
 342 413 l 1,18,-1
 362 378 l 1,19,-1
 356 339 l 1,20,-1
 344 324 l 1,21,-1
 217 315 l 1,22,-1
 196 295 l 1,23,-1
 195 33 l 1,24,-1
 163 -1 l 1,25,-1
 117 -2 l 1,26,-1
 88 37 l 1,27,-1
 98 233 l 1,28,-1
 93 433 l 1,29,-1
 106 486 l 1,30,-1
 103 621 l 1,31,-1
 114 722 l 1,32,-1
 133 736 l 1,33,-1
 168 737 l 1,34,-1
 200 758 l 1,35,-1
 321 754 l 1,36,-1
 361 741 l 1,37,-1
 406 731 l 1,38,-1
 407 739 l 1,39,-1
 431 761 l 1,40,-1
 492 756 l 1,41,-1
 511 735 l 1,42,-1
 508 642 l 1,43,-1
 490 221 l 1,44,-1
 504 186 l 1,45,-1
 492 111 l 1,46,-1
 500 93 l 1,47,-1
 667 90 l 1,48,-1
 707 77 l 1,49,-1
 722 51 l 1,50,-1
 722 51 l 1,0,-1
EndSplineSet
EndChar

StartChar: guillemotleft
Encoding: 171 171 169
Width: 520
GlyphClass: 1
Flags: W
LayerCount: 2
Fore
SplineSet
292 555 m 1,0,-1
 283 526 l 1,1,-1
 283 510 l 1,2,-1
 277 505 l 1,3,-1
 261 490 l 1,4,-1
 251 477 l 1,5,-1
 226 453 l 1,6,-1
 211 444 l 1,7,-1
 203 438 l 1,8,-1
 170 402 l 1,9,-1
 140 375 l 1,10,-1
 133 356 l 1,11,-1
 148 334 l 1,12,-1
 178 298 l 1,13,-1
 212 263 l 1,14,-1
 228 248 l 1,15,-1
 247 243 l 1,16,-1
 266 218 l 1,17,-1
 274 196 l 1,18,-1
 285 178 l 1,19,-1
 289 163 l 1,20,-1
 280 138 l 1,21,-1
 256 114 l 1,22,-1
 241 109 l 1,23,-1
 231 115 l 1,24,-1
 225 127 l 1,25,-1
 208 141 l 1,26,-1
 195 151 l 1,27,-1
 177 168 l 1,28,-1
 162 203 l 1,29,-1
 151 199 l 1,30,-1
 149 209 l 1,31,-1
 119 230 l 1,32,-1
 110 247 l 1,33,-1
 103 247 l 1,34,-1
 96 267 l 1,35,-1
 81 280 l 1,36,-1
 66 307 l 1,37,-1
 43 340 l 1,38,-1
 42 385 l 1,39,-1
 55 416 l 1,40,-1
 91 454 l 1,41,-1
 100 464 l 1,42,-1
 130 477 l 1,43,-1
 144 511 l 1,44,-1
 152 511 l 1,45,-1
 185 551 l 1,46,-1
 211 578 l 1,47,-1
 248 592 l 1,48,-1
 271 578 l 1,49,-1
 292 555 l 1,50,-1
 292 555 l 1,0,-1
492 555 m 1,51,-1
 483 526 l 1,52,-1
 483 510 l 1,53,-1
 477 505 l 1,54,-1
 461 490 l 1,55,-1
 451 477 l 1,56,-1
 426 453 l 1,57,-1
 411 444 l 1,58,-1
 403 438 l 1,59,-1
 370 402 l 1,60,-1
 340 375 l 1,61,-1
 333 356 l 1,62,-1
 348 334 l 1,63,-1
 378 298 l 1,64,-1
 412 263 l 1,65,-1
 428 248 l 1,66,-1
 447 243 l 1,67,-1
 466 218 l 1,68,-1
 474 196 l 1,69,-1
 485 178 l 1,70,-1
 489 163 l 1,71,-1
 480 138 l 1,72,-1
 456 114 l 1,73,-1
 441 109 l 1,74,-1
 431 115 l 1,75,-1
 425 127 l 1,76,-1
 408 141 l 1,77,-1
 395 151 l 1,78,-1
 377 168 l 1,79,-1
 362 203 l 1,80,-1
 351 199 l 1,81,-1
 349 209 l 1,82,-1
 319 230 l 1,83,-1
 310 247 l 1,84,-1
 303 247 l 1,85,-1
 296 267 l 1,86,-1
 281 280 l 1,87,-1
 266 307 l 1,88,-1
 243 340 l 1,89,-1
 242 385 l 1,90,-1
 255 416 l 1,91,-1
 291 454 l 1,92,-1
 300 464 l 1,93,-1
 330 477 l 1,94,-1
 344 511 l 1,95,-1
 352 511 l 1,96,-1
 385 551 l 1,97,-1
 411 578 l 1,98,-1
 448 592 l 1,99,-1
 471 578 l 1,100,-1
 492 555 l 1,101,-1
 492 555 l 1,51,-1
EndSplineSet
EndChar

StartChar: guillemotright
Encoding: 187 187 170
Width: 520
GlyphClass: 1
Flags: W
LayerCount: 2
Fore
SplineSet
283 317 m 1,0,-1
 270 286 l 1,1,-1
 234 248 l 1,2,-1
 225 238 l 1,3,-1
 195 225 l 1,4,-1
 181 191 l 1,5,-1
 173 191 l 1,6,-1
 140 151 l 1,7,-1
 114 124 l 1,8,-1
 77 110 l 1,9,-1
 54 124 l 1,10,-1
 33 147 l 1,11,-1
 42 176 l 1,12,-1
 42 192 l 1,13,-1
 48 197 l 1,14,-1
 64 212 l 1,15,-1
 74 225 l 1,16,-1
 99 249 l 1,17,-1
 114 258 l 1,18,-1
 122 264 l 1,19,-1
 155 300 l 1,20,-1
 185 327 l 1,21,-1
 192 346 l 1,22,-1
 177 368 l 1,23,-1
 147 404 l 1,24,-1
 113 439 l 1,25,-1
 97 454 l 1,26,-1
 78 459 l 1,27,-1
 59 484 l 1,28,-1
 51 506 l 1,29,-1
 40 524 l 1,30,-1
 36 539 l 1,31,-1
 45 564 l 1,32,-1
 69 588 l 1,33,-1
 84 593 l 1,34,-1
 94 587 l 1,35,-1
 100 575 l 1,36,-1
 117 561 l 1,37,-1
 130 551 l 1,38,-1
 148 534 l 1,39,-1
 163 499 l 1,40,-1
 174 503 l 1,41,-1
 176 493 l 1,42,-1
 206 472 l 1,43,-1
 215 455 l 1,44,-1
 222 455 l 1,45,-1
 229 435 l 1,46,-1
 244 422 l 1,47,-1
 259 395 l 1,48,-1
 282 362 l 1,49,-1
 283 317 l 1,50,-1
 283 317 l 1,0,-1
483 317 m 1,51,-1
 470 286 l 1,52,-1
 434 248 l 1,53,-1
 425 238 l 1,54,-1
 395 225 l 1,55,-1
 381 191 l 1,56,-1
 373 191 l 1,57,-1
 340 151 l 1,58,-1
 314 124 l 1,59,-1
 277 110 l 1,60,-1
 254 124 l 1,61,-1
 233 147 l 1,62,-1
 242 176 l 1,63,-1
 242 192 l 1,64,-1
 248 197 l 1,65,-1
 264 212 l 1,66,-1
 274 225 l 1,67,-1
 299 249 l 1,68,-1
 314 258 l 1,69,-1
 322 264 l 1,70,-1
 355 300 l 1,71,-1
 385 327 l 1,72,-1
 392 346 l 1,73,-1
 377 368 l 1,74,-1
 347 404 l 1,75,-1
 313 439 l 1,76,-1
 297 454 l 1,77,-1
 278 459 l 1,78,-1
 259 484 l 1,79,-1
 251 506 l 1,80,-1
 240 524 l 1,81,-1
 236 539 l 1,82,-1
 245 564 l 1,83,-1
 269 588 l 1,84,-1
 284 593 l 1,85,-1
 294 587 l 1,86,-1
 300 575 l 1,87,-1
 317 561 l 1,88,-1
 330 551 l 1,89,-1
 348 534 l 1,90,-1
 363 499 l 1,91,-1
 374 503 l 1,92,-1
 376 493 l 1,93,-1
 406 472 l 1,94,-1
 415 455 l 1,95,-1
 422 455 l 1,96,-1
 429 435 l 1,97,-1
 444 422 l 1,98,-1
 459 395 l 1,99,-1
 482 362 l 1,100,-1
 483 317 l 1,101,-1
 483 317 l 1,51,-1
EndSplineSet
EndChar

StartChar: ellipsis
Encoding: 8230 8230 171
Width: 906
GlyphClass: 1
Flags: W
LayerCount: 2
Fore
SplineSet
230 28 m 1,0,-1
 182 -15 l 1,1,-1
 117 -17 l 1,2,-1
 89 11 l 1,3,-1
 74 57 l 1,4,-1
 87 92 l 1,5,-1
 126 125 l 1,6,-1
 153 133 l 1,7,-1
 193 113 l 1,8,-1
 229 81 l 1,9,-1
 230 28 l 1,10,-1
 230 28 l 1,0,-1
532 28 m 1,11,-1
 484 -15 l 1,12,-1
 419 -17 l 1,13,-1
 391 11 l 1,14,-1
 376 57 l 1,15,-1
 389 92 l 1,16,-1
 428 125 l 1,17,-1
 455 133 l 1,18,-1
 495 113 l 1,19,-1
 531 81 l 1,20,-1
 532 28 l 1,21,-1
 532 28 l 1,11,-1
834 28 m 1,22,-1
 786 -15 l 1,23,-1
 721 -17 l 1,24,-1
 693 11 l 1,25,-1
 678 57 l 1,26,-1
 691 92 l 1,27,-1
 730 125 l 1,28,-1
 757 133 l 1,29,-1
 797 113 l 1,30,-1
 833 81 l 1,31,-1
 834 28 l 1,32,-1
 834 28 l 1,22,-1
EndSplineSet
EndChar

StartChar: Agrave
Encoding: 192 192 172
Width: 500
GlyphClass: 1
Flags: W
LayerCount: 2
Fore
SplineSet
486 54 m 1,0,-1
 466 23 l 1,1,-1
 448 6 l 1,2,-1
 394 6 l 1,3,-1
 358 67 l 1,4,-1
 349 123 l 1,5,-1
 323 144 l 1,6,-1
 277 143 l 1,7,-1
 262 154 l 1,8,-1
 182 141 l 1,9,-1
 151 114 l 1,10,-1
 139 52 l 1,11,-1
 126 30 l 1,12,-1
 87 5 l 1,13,-1
 55 9 l 1,14,-1
 26 34 l 1,15,-1
 32 80 l 1,16,-1
 45 97 l 1,17,-1
 57 149 l 1,18,-1
 80 205 l 1,19,-1
 86 241 l 1,20,-1
 112 294 l 1,21,-1
 115 335 l 1,22,-1
 152 487 l 1,23,-1
 175 564 l 1,24,-1
 209 590 l 1,25,-1
 287 588 l 1,26,-1
 316 551 l 1,27,-1
 317 537 l 1,28,-1
 329 526 l 1,29,-1
 330 485 l 1,30,-1
 352 463 l 1,31,-1
 367 413 l 1,32,-1
 383 346 l 1,33,-1
 395 332 l 1,34,-1
 404 264 l 1,35,-1
 419 245 l 1,36,-1
 427 198 l 1,37,-1
 442 182 l 1,38,-1
 443 157 l 1,39,-1
 462 141 l 1,40,-1
 463 95 l 1,41,-1
 486 54 l 1,42,-1
 486 54 l 1,0,-1
306 237 m 1,43,-1
 306 251 l 1,44,-1
 298 256 l 1,45,-1
 290 288 l 1,46,-1
 271 313 l 1,47,-1
 270 338 l 1,48,-1
 248 384 l 1,49,-1
 234 373 l 1,50,-1
 223 312 l 1,51,-1
 199 276 l 1,52,-1
 199 260 l 1,53,-1
 207 240 l 1,54,-1
 232 230 l 1,55,-1
 286 225 l 1,56,-1
 306 237 l 1,57,-1
 306 237 l 1,43,-1
348 649 m 1,58,-1
 320 633 l 1,59,-1
 291 643 l 1,60,-1
 262 662 l 1,61,-1
 216 689 l 1,62,-1
 176 704 l 1,63,-1
 152 737 l 1,64,-1
 149 758 l 1,65,-1
 161 769 l 1,66,-1
 203 775 l 1,67,-1
 249 745 l 1,68,-1
 288 729 l 1,69,-1
 343 689 l 1,70,-1
 348 649 l 1,71,-1
 348 649 l 1,58,-1
EndSplineSet
EndChar

StartChar: Atilde
Encoding: 195 195 173
Width: 500
GlyphClass: 1
Flags: W
LayerCount: 2
Fore
SplineSet
454 -2 m 1,0,-1
 434 -24 l 1,1,-1
 415 -24 l 1,2,-1
 394 -4 l 1,3,-1
 378 82 l 1,4,-1
 352 102 l 1,5,-1
 298 94 l 1,6,-1
 204 71 l 1,7,-1
 173 3 l 1,8,-1
 127 -38 l 1,9,-1
 106 -38 l 1,10,-1
 91 1 l 1,11,-1
 109 130 l 1,12,-1
 139 258 l 1,13,-1
 152 279 l 1,14,-1
 158 326 l 1,15,-1
 182 387 l 1,16,-1
 188 434 l 1,17,-1
 221 521 l 1,18,-1
 246 556 l 1,19,-1
 300 550 l 1,20,-1
 343 484 l 1,21,-1
 349 444 l 1,22,-1
 363 431 l 1,23,-1
 371 377 l 1,24,-1
 395 236 l 1,25,-1
 414 211 l 1,26,-1
 423 144 l 1,27,-1
 437 130 l 1,28,-1
 431 83 l 1,29,-1
 446 44 l 1,30,-1
 454 -2 l 1,31,-1
 454 -2 l 1,0,-1
329 188 m 1,32,-1
 321 234 l 1,33,-1
 272 336 l 1,34,-1
 246 240 l 1,35,-1
 247 186 l 1,36,-1
 329 188 l 1,37,-1
 329 188 l 1,32,-1
393 624 m 1,38,-1
 345 584 l 1,39,-1
 313 569 l 1,40,-1
 245 589 l 1,41,-1
 220 588 l 1,42,-1
 199 574 l 1,43,-1
 146 572 l 1,44,-1
 131 607 l 1,45,-1
 137 654 l 1,46,-1
 182 694 l 1,47,-1
 231 702 l 1,48,-1
 271 696 l 1,49,-1
 285 682 l 1,50,-1
 318 683 l 1,51,-1
 331 697 l 1,52,-1
 371 698 l 1,53,-1
 392 685 l 1,54,-1
 393 624 l 1,55,-1
 393 624 l 1,38,-1
EndSplineSet
EndChar

StartChar: Otilde
Encoding: 213 213 174
Width: 500
GlyphClass: 1
Flags: W
LayerCount: 2
Fore
SplineSet
400 243 m 1,0,-1
 395 84 l 1,1,-1
 370 40 l 1,2,-1
 313 6 l 1,3,-1
 269 -4 l 1,4,-1
 211 0 l 1,5,-1
 153 24 l 1,6,-1
 114 66 l 1,7,-1
 98 125 l 1,8,-1
 112 146 l 1,9,-1
 116 210 l 1,10,-1
 133 247 l 1,11,-1
 132 268 l 1,12,-1
 105 349 l 1,13,-1
 101 454 l 1,14,-1
 120 485 l 1,15,-1
 119 524 l 1,16,-1
 199 577 l 1,17,-1
 231 584 l 1,18,-1
 295 580 l 1,19,-1
 354 555 l 1,20,-1
 393 513 l 1,21,-1
 397 350 l 1,22,-1
 398 307 l 1,23,-1
 400 243 l 1,24,-1
 400 243 l 1,0,-1
312 481 m 1,25,-1
 279 505 l 1,26,-1
 216 510 l 1,27,-1
 196 487 l 1,28,-1
 184 424 l 1,29,-1
 198 399 l 1,30,-1
 190 269 l 1,31,-1
 192 201 l 1,32,-1
 183 110 l 1,33,-1
 202 85 l 1,34,-1
 267 70 l 1,35,-1
 293 87 l 1,36,-1
 309 130 l 1,37,-1
 309 342 l 1,38,-1
 312 481 l 1,39,-1
 312 481 l 1,25,-1
390 656 m 1,40,-1
 366 623 l 1,41,-1
 326 608 l 1,42,-1
 259 613 l 1,43,-1
 238 619 l 1,44,-1
 219 619 l 1,45,-1
 192 597 l 1,46,-1
 159 596 l 1,47,-1
 131 624 l 1,48,-1
 134 677 l 1,49,-1
 189 711 l 1,50,-1
 228 726 l 1,51,-1
 275 713 l 1,52,-1
 296 695 l 1,53,-1
 317 696 l 1,54,-1
 335 715 l 1,55,-1
 377 709 l 1,56,-1
 389 698 l 1,57,-1
 390 656 l 1,58,-1
 390 656 l 1,40,-1
EndSplineSet
EndChar

StartChar: OE
Encoding: 338 338 175
Width: 500
GlyphClass: 1
Flags: W
LayerCount: 2
Fore
SplineSet
468 36 m 1,0,-1
 441 7 l 1,1,-1
 297 1 l 1,2,-1
 268 32 l 1,3,-1
 236 9 l 1,4,-1
 190 -4 l 1,5,-1
 167 -1 l 1,6,-1
 106 30 l 1,7,-1
 65 83 l 1,8,-1
 49 157 l 1,9,-1
 63 183 l 1,10,-1
 67 264 l 1,11,-1
 85 311 l 1,12,-1
 84 337 l 1,13,-1
 56 439 l 1,14,-1
 52 571 l 1,15,-1
 72 611 l 1,16,-1
 71 660 l 1,17,-1
 155 727 l 1,18,-1
 168 737 l 1,19,-1
 217 732 l 1,20,-1
 248 713 l 1,21,-1
 249 717 l 1,22,-1
 260 738 l 1,23,-1
 294 760 l 1,24,-1
 387 748 l 1,25,-1
 415 751 l 1,26,-1
 438 736 l 1,27,-1
 455 719 l 1,28,-1
 456 698 l 1,29,-1
 435 683 l 1,30,-1
 343 666 l 1,31,-1
 329 654 l 1,32,-1
 324 514 l 1,33,-1
 325 474 l 1,34,-1
 340 433 l 1,35,-1
 354 421 l 1,36,-1
 421 418 l 1,37,-1
 448 383 l 1,38,-1
 437 357 l 1,39,-1
 412 342 l 1,40,-1
 338 334 l 1,41,-1
 325 292 l 1,42,-1
 335 186 l 1,43,-1
 329 146 l 1,44,-1
 331 91 l 1,45,-1
 345 79 l 1,46,-1
 398 89 l 1,47,-1
 418 90 l 1,48,-1
 447 77 l 1,49,-1
 468 62 l 1,50,-1
 468 36 l 1,51,-1
 468 36 l 1,0,-1
250 444 m 1,52,-1
 248 548 l 1,53,-1
 235 607 l 1,54,-1
 201 638 l 1,55,-1
 172 642 l 1,56,-1
 151 613 l 1,57,-1
 139 534 l 1,58,-1
 154 502 l 1,59,-1
 145 338 l 1,60,-1
 147 252 l 1,61,-1
 138 138 l 1,62,-1
 158 106 l 1,63,-1
 188 89 l 1,64,-1
 215 111 l 1,65,-1
 240 145 l 1,66,-1
 246 224 l 1,67,-1
 250 444 l 1,68,-1
 250 444 l 1,52,-1
EndSplineSet
EndChar

StartChar: oe
Encoding: 339 339 176
Width: 500
GlyphClass: 1
Flags: W
LayerCount: 2
Fore
SplineSet
468 36 m 1,0,-1
 441 7 l 1,1,-1
 297 1 l 1,2,-1
 268 32 l 1,3,-1
 236 9 l 1,4,-1
 190 -4 l 1,5,-1
 167 -1 l 1,6,-1
 106 30 l 1,7,-1
 65 83 l 1,8,-1
 49 157 l 1,9,-1
 63 183 l 1,10,-1
 67 264 l 1,11,-1
 85 311 l 1,12,-1
 84 337 l 1,13,-1
 56 439 l 1,14,-1
 52 571 l 1,15,-1
 72 611 l 1,16,-1
 71 660 l 1,17,-1
 155 727 l 1,18,-1
 168 737 l 1,19,-1
 217 732 l 1,20,-1
 248 713 l 1,21,-1
 249 717 l 1,22,-1
 260 738 l 1,23,-1
 294 760 l 1,24,-1
 387 748 l 1,25,-1
 415 751 l 1,26,-1
 438 736 l 1,27,-1
 455 719 l 1,28,-1
 456 698 l 1,29,-1
 435 683 l 1,30,-1
 343 666 l 1,31,-1
 329 654 l 1,32,-1
 324 514 l 1,33,-1
 325 474 l 1,34,-1
 340 433 l 1,35,-1
 354 421 l 1,36,-1
 421 418 l 1,37,-1
 448 383 l 1,38,-1
 437 357 l 1,39,-1
 412 342 l 1,40,-1
 338 334 l 1,41,-1
 325 292 l 1,42,-1
 335 186 l 1,43,-1
 329 146 l 1,44,-1
 331 91 l 1,45,-1
 345 79 l 1,46,-1
 398 89 l 1,47,-1
 418 90 l 1,48,-1
 447 77 l 1,49,-1
 468 62 l 1,50,-1
 468 36 l 1,51,-1
 468 36 l 1,0,-1
250 444 m 1,52,-1
 248 548 l 1,53,-1
 235 607 l 1,54,-1
 201 638 l 1,55,-1
 172 642 l 1,56,-1
 151 613 l 1,57,-1
 139 534 l 1,58,-1
 154 502 l 1,59,-1
 145 338 l 1,60,-1
 147 252 l 1,61,-1
 138 138 l 1,62,-1
 158 106 l 1,63,-1
 188 89 l 1,64,-1
 215 111 l 1,65,-1
 240 145 l 1,66,-1
 246 224 l 1,67,-1
 250 444 l 1,68,-1
 250 444 l 1,52,-1
EndSplineSet
EndChar

StartChar: endash
Encoding: 65541 -1 177
Width: 564
GlyphClass: 1
Flags: W
LayerCount: 2
Fore
SplineSet
535 345 m 1,0,-1
 504 323 l 1,1,-1
 153 318 l 1,2,-1
 82 324 l 1,3,-1
 72 324 l 1,4,-1
 39 344 l 1,5,-1
 39 377 l 1,6,-1
 69 398 l 1,7,-1
 190 414 l 1,8,-1
 501 405 l 1,9,-1
 534 391 l 1,10,-1
 535 345 l 1,11,-1
 535 345 l 1,0,-1
EndSplineSet
EndChar

StartChar: emdash
Encoding: 8212 8212 178
Width: 819
GlyphClass: 1
Flags: W
LayerCount: 2
Fore
SplineSet
784 345 m 1,0,-1
 737 323 l 1,1,-1
 211 318 l 1,2,-1
 104 324 l 1,3,-1
 89 324 l 1,4,-1
 40 344 l 1,5,-1
 40 377 l 1,6,-1
 85 398 l 1,7,-1
 266 414 l 1,8,-1
 733 405 l 1,9,-1
 782 391 l 1,10,-1
 784 345 l 1,11,-1
 784 345 l 1,0,-1
EndSplineSet
EndChar

StartChar: quotedblleft
Encoding: 8220 8220 179
Width: 387
GlyphClass: 1
Flags: W
LayerCount: 2
Fore
SplineSet
177 730 m 1,0,-1
 171 691 l 1,1,-1
 137 629 l 1,2,-1
 131 583 l 1,3,-1
 113 561 l 1,4,-1
 78 561 l 1,5,-1
 52 588 l 1,6,-1
 50 667 l 1,7,-1
 88 735 l 1,8,-1
 109 757 l 1,9,-1
 148 758 l 1,10,-1
 177 730 l 1,11,-1
 177 730 l 1,0,-1
342 730 m 1,12,-1
 336 691 l 1,13,-1
 302 629 l 1,14,-1
 296 583 l 1,15,-1
 278 561 l 1,16,-1
 243 561 l 1,17,-1
 217 588 l 1,18,-1
 215 667 l 1,19,-1
 253 735 l 1,20,-1
 274 757 l 1,21,-1
 313 758 l 1,22,-1
 342 730 l 1,23,-1
 342 730 l 1,12,-1
EndSplineSet
EndChar

StartChar: quotedblright
Encoding: 8221 8221 180
Width: 387
GlyphClass: 1
Flags: W
LayerCount: 2
Fore
SplineSet
176 653 m 1,0,-1
 138 585 l 1,1,-1
 117 563 l 1,2,-1
 78 562 l 1,3,-1
 49 590 l 1,4,-1
 55 629 l 1,5,-1
 89 691 l 1,6,-1
 95 737 l 1,7,-1
 113 759 l 1,8,-1
 148 759 l 1,9,-1
 174 732 l 1,10,-1
 176 653 l 1,11,-1
 176 653 l 1,0,-1
341 653 m 1,12,-1
 303 585 l 1,13,-1
 282 563 l 1,14,-1
 243 562 l 1,15,-1
 214 590 l 1,16,-1
 220 629 l 1,17,-1
 254 691 l 1,18,-1
 260 737 l 1,19,-1
 278 759 l 1,20,-1
 313 759 l 1,21,-1
 339 732 l 1,22,-1
 341 653 l 1,23,-1
 341 653 l 1,12,-1
EndSplineSet
EndChar

StartChar: quoteleft
Encoding: 8216 8216 181
Width: 235
GlyphClass: 1
Flags: W
LayerCount: 2
Fore
SplineSet
184 727 m 1,0,-1
 178 688 l 1,1,-1
 144 626 l 1,2,-1
 138 580 l 1,3,-1
 120 558 l 1,4,-1
 85 558 l 1,5,-1
 59 585 l 1,6,-1
 57 664 l 1,7,-1
 95 732 l 1,8,-1
 116 754 l 1,9,-1
 155 755 l 1,10,-1
 184 727 l 1,11,-1
 184 727 l 1,0,-1
EndSplineSet
EndChar

StartChar: quoteright
Encoding: 8217 8217 182
Width: 235
GlyphClass: 1
Flags: W
LayerCount: 2
Fore
SplineSet
176 650 m 1,0,-1
 138 582 l 1,1,-1
 117 560 l 1,2,-1
 78 559 l 1,3,-1
 49 587 l 1,4,-1
 55 626 l 1,5,-1
 89 688 l 1,6,-1
 95 734 l 1,7,-1
 113 756 l 1,8,-1
 148 756 l 1,9,-1
 174 729 l 1,10,-1
 176 650 l 1,11,-1
 176 650 l 1,0,-1
EndSplineSet
EndChar

StartChar: ydieresis
Encoding: 255 255 185
Width: 434
GlyphClass: 1
Flags: W
LayerCount: 2
Fore
SplineSet
369 556 m 1,0,-1
 347 538 l 1,1,-1
 363 495 l 1,2,-1
 359 401 l 1,3,-1
 338 348 l 1,4,-1
 317 330 l 1,5,-1
 320 286 l 1,6,-1
 296 263 l 1,7,-1
 298 225 l 1,8,-1
 276 181 l 1,9,-1
 301 149 l 1,10,-1
 297 11 l 1,11,-1
 275 -6 l 1,12,-1
 239 -7 l 1,13,-1
 209 21 l 1,14,-1
 206 77 l 1,15,-1
 201 229 l 1,16,-1
 168 277 l 1,17,-1
 167 310 l 1,18,-1
 152 321 l 1,19,-1
 140 402 l 1,20,-1
 148 402 l 1,21,-1
 164 415 l 1,22,-1
 163 432 l 1,23,-1
 186 432 l 1,24,-1
 200 421 l 1,25,-1
 202 366 l 1,26,-1
 233 345 l 1,27,-1
 249 346 l 1,28,-1
 292 384 l 1,29,-1
 299 390 l 1,30,-1
 276 405 l 1,31,-1
 289 478 l 1,32,-1
 331 538 l 1,33,-1
 330 578 l 1,34,-1
 338 587 l 1,35,-1
 368 588 l 1,36,-1
 369 556 l 1,37,-1
 369 556 l 1,0,-1
129 496 m 1,38,-1
 108 496 l 1,39,-1
 116 513 l 1,40,-1
 124 513 l 1,41,-1
 129 507 l 1,42,-1
 129 496 l 1,43,-1
 129 496 l 1,38,-1
113 579 m 1,44,-1
 107 551 l 1,45,-1
 83 544 l 1,46,-1
 75 544 l 1,47,-1
 62 556 l 1,48,-1
 66 588 l 1,49,-1
 97 588 l 1,50,-1
 113 579 l 1,51,-1
 113 579 l 1,44,-1
171 664 m 1,52,-1
 132 637 l 1,53,-1
 111 644 l 1,54,-1
 85 669 l 1,55,-1
 84 709 l 1,56,-1
 109 730 l 1,57,-1
 142 731 l 1,58,-1
 170 699 l 1,59,-1
 171 664 l 1,60,-1
 171 664 l 1,52,-1
371 696 m 1,61,-1
 364 656 l 1,62,-1
 353 642 l 1,63,-1
 306 648 l 1,64,-1
 285 680 l 1,65,-1
 291 701 l 1,66,-1
 323 734 l 1,67,-1
 351 728 l 1,68,-1
 371 696 l 1,69,-1
 371 696 l 1,61,-1
EndSplineSet
EndChar

StartChar: Ydieresis
Encoding: 376 376 186
Width: 419
GlyphClass: 1
Flags: W
LayerCount: 2
Fore
SplineSet
376 570 m 1,0,-1
 364 485 l 1,1,-1
 340 388 l 1,2,-1
 306 313 l 1,3,-1
 286 248 l 1,4,-1
 274 227 l 1,5,-1
 262 184 l 1,6,-1
 276 168 l 1,7,-1
 282 9 l 1,8,-1
 253 -14 l 1,9,-1
 212 -9 l 1,10,-1
 189 13 l 1,11,-1
 192 167 l 1,12,-1
 191 195 l 1,13,-1
 132 316 l 1,14,-1
 123 390 l 1,15,-1
 87 427 l 1,16,-1
 87 443 l 1,17,-1
 72 454 l 1,18,-1
 64 502 l 1,19,-1
 55 545 l 1,20,-1
 54 559 l 1,21,-1
 83 576 l 1,22,-1
 110 572 l 1,23,-1
 148 524 l 1,24,-1
 156 476 l 1,25,-1
 168 466 l 1,26,-1
 193 371 l 1,27,-1
 208 354 l 1,28,-1
 215 349 l 1,29,-1
 222 349 l 1,30,-1
 261 446 l 1,31,-1
 267 478 l 1,32,-1
 292 532 l 1,33,-1
 298 564 l 1,34,-1
 339 587 l 1,35,-1
 361 581 l 1,36,-1
 376 570 l 1,37,-1
 376 570 l 1,0,-1
153 664 m 1,38,-1
 114 637 l 1,39,-1
 93 644 l 1,40,-1
 67 669 l 1,41,-1
 66 709 l 1,42,-1
 91 730 l 1,43,-1
 124 731 l 1,44,-1
 152 699 l 1,45,-1
 153 664 l 1,46,-1
 153 664 l 1,38,-1
353 696 m 1,47,-1
 346 656 l 1,48,-1
 335 642 l 1,49,-1
 288 648 l 1,50,-1
 267 680 l 1,51,-1
 273 701 l 1,52,-1
 305 734 l 1,53,-1
 333 728 l 1,54,-1
 353 696 l 1,55,-1
 353 696 l 1,47,-1
EndSplineSet
EndChar

StartChar: guilsinglleft
Encoding: 8249 8249 189
Width: 330
GlyphClass: 1
Flags: W
LayerCount: 2
Fore
SplineSet
292 555 m 1,0,-1
 283 526 l 1,1,-1
 283 510 l 1,2,-1
 277 505 l 1,3,-1
 261 490 l 1,4,-1
 251 477 l 1,5,-1
 226 453 l 1,6,-1
 211 444 l 1,7,-1
 203 438 l 1,8,-1
 170 402 l 1,9,-1
 140 375 l 1,10,-1
 133 356 l 1,11,-1
 148 334 l 1,12,-1
 178 298 l 1,13,-1
 212 263 l 1,14,-1
 228 248 l 1,15,-1
 247 243 l 1,16,-1
 266 218 l 1,17,-1
 274 196 l 1,18,-1
 285 178 l 1,19,-1
 289 163 l 1,20,-1
 280 138 l 1,21,-1
 256 114 l 1,22,-1
 241 109 l 1,23,-1
 231 115 l 1,24,-1
 225 127 l 1,25,-1
 208 141 l 1,26,-1
 195 151 l 1,27,-1
 177 168 l 1,28,-1
 162 203 l 1,29,-1
 151 199 l 1,30,-1
 149 209 l 1,31,-1
 119 230 l 1,32,-1
 110 247 l 1,33,-1
 103 247 l 1,34,-1
 96 267 l 1,35,-1
 81 280 l 1,36,-1
 66 307 l 1,37,-1
 43 340 l 1,38,-1
 42 385 l 1,39,-1
 55 416 l 1,40,-1
 91 454 l 1,41,-1
 100 464 l 1,42,-1
 130 477 l 1,43,-1
 144 511 l 1,44,-1
 152 511 l 1,45,-1
 185 551 l 1,46,-1
 211 578 l 1,47,-1
 248 592 l 1,48,-1
 271 578 l 1,49,-1
 292 555 l 1,50,-1
 292 555 l 1,0,-1
EndSplineSet
EndChar

StartChar: guilsinglright
Encoding: 8250 8250 190
Width: 330
GlyphClass: 1
Flags: W
LayerCount: 2
Fore
SplineSet
283 317 m 1,0,-1
 270 286 l 1,1,-1
 234 248 l 1,2,-1
 225 238 l 1,3,-1
 195 225 l 1,4,-1
 181 191 l 1,5,-1
 173 191 l 1,6,-1
 140 151 l 1,7,-1
 114 124 l 1,8,-1
 77 110 l 1,9,-1
 54 124 l 1,10,-1
 33 147 l 1,11,-1
 42 176 l 1,12,-1
 42 192 l 1,13,-1
 48 197 l 1,14,-1
 64 212 l 1,15,-1
 74 225 l 1,16,-1
 99 249 l 1,17,-1
 114 258 l 1,18,-1
 122 264 l 1,19,-1
 155 300 l 1,20,-1
 185 327 l 1,21,-1
 192 346 l 1,22,-1
 177 368 l 1,23,-1
 147 404 l 1,24,-1
 113 439 l 1,25,-1
 97 454 l 1,26,-1
 78 459 l 1,27,-1
 59 484 l 1,28,-1
 51 506 l 1,29,-1
 40 524 l 1,30,-1
 36 539 l 1,31,-1
 45 564 l 1,32,-1
 69 588 l 1,33,-1
 84 593 l 1,34,-1
 94 587 l 1,35,-1
 100 575 l 1,36,-1
 117 561 l 1,37,-1
 130 551 l 1,38,-1
 148 534 l 1,39,-1
 163 499 l 1,40,-1
 174 503 l 1,41,-1
 176 493 l 1,42,-1
 206 472 l 1,43,-1
 215 455 l 1,44,-1
 222 455 l 1,45,-1
 229 435 l 1,46,-1
 244 422 l 1,47,-1
 259 395 l 1,48,-1
 282 362 l 1,49,-1
 283 317 l 1,50,-1
 283 317 l 1,0,-1
EndSplineSet
EndChar

StartChar: daggerdbl
Encoding: 8225 8225 193
Width: 500
GlyphClass: 1
Flags: W
LayerCount: 2
Fore
SplineSet
377 177 m 1,0,-1
 358 138 l 1,1,-1
 322 142 l 1,2,-1
 293 131 l 1,3,-1
 305 69 l 1,4,-1
 296 13 l 1,5,-1
 261 -8 l 1,6,-1
 228 5 l 1,7,-1
 214 37 l 1,8,-1
 212 115 l 1,9,-1
 195 141 l 1,10,-1
 156 146 l 1,11,-1
 127 152 l 1,12,-1
 120 172 l 1,13,-1
 133 199 l 1,14,-1
 182 221 l 1,15,-1
 205 227 l 1,16,17
 205 227 205 227 205.5 232.5 c 128,-1,18
 206 238 206 238 207 244 c 0,19,20
 208 251 208 251 208.5 256 c 128,-1,21
 209 261 209 261 209 261 c 1,22,-1
 216 336 l 1,23,-1
 214 410 l 1,24,-1
 205 508 l 1,25,-1
 130 520 l 1,26,-1
 118 520 l 1,27,-1
 97 545 l 1,28,-1
 121 594 l 1,29,-1
 204 588 l 1,30,-1
 204 678 l 1,31,-1
 222 720 l 1,32,-1
 252 723 l 1,33,-1
 282 690 l 1,34,-1
 291 591 l 1,35,-1
 323 586 l 1,36,-1
 356 580 l 1,37,-1
 363 573 l 1,38,-1
 346 533 l 1,39,-1
 297 511 l 1,40,-1
 287 485 l 1,41,-1
 282 384 l 1,42,-1
 275 377 l 1,43,-1
 294 352 l 1,44,-1
 292 263 l 1,45,-1
 279 247 l 1,46,-1
 288 215 l 1,47,-1
 349 212 l 1,48,-1
 368 206 l 1,49,-1
 377 177 l 1,50,-1
 377 177 l 1,0,-1
EndSplineSet
EndChar

StartChar: periodcentered
Encoding: 8729 8729 194
Width: 302
GlyphClass: 1
Flags: W
LayerCount: 2
Fore
SplineSet
238 334 m 1,0,-1
 185 287 l 1,1,-1
 114 284 l 1,2,-1
 83 315 l 1,3,-1
 67 366 l 1,4,-1
 81 404 l 1,5,-1
 124 440 l 1,6,-1
 153 449 l 1,7,-1
 197 427 l 1,8,-1
 237 392 l 1,9,-1
 238 334 l 1,10,-1
 238 334 l 1,0,-1
EndSplineSet
EndChar

StartChar: quotesinglbase
Encoding: 8218 8218 195
Width: 235
GlyphClass: 1
Flags: W
LayerCount: 2
Fore
SplineSet
176 20 m 1,0,-1
 138 -48 l 1,1,-1
 117 -70 l 1,2,-1
 78 -71 l 1,3,-1
 49 -43 l 1,4,-1
 55 -4 l 1,5,-1
 89 58 l 1,6,-1
 95 104 l 1,7,-1
 113 126 l 1,8,-1
 148 126 l 1,9,-1
 174 99 l 1,10,-1
 176 20 l 1,11,-1
 176 20 l 1,0,-1
EndSplineSet
EndChar

StartChar: quotedblbase
Encoding: 8222 8222 196
Width: 387
GlyphClass: 1
Flags: W
LayerCount: 2
Fore
SplineSet
176 20 m 1,0,-1
 138 -48 l 1,1,-1
 117 -70 l 1,2,-1
 78 -71 l 1,3,-1
 49 -43 l 1,4,-1
 55 -4 l 1,5,-1
 89 58 l 1,6,-1
 95 104 l 1,7,-1
 113 126 l 1,8,-1
 148 126 l 1,9,-1
 174 99 l 1,10,-1
 176 20 l 1,11,-1
 176 20 l 1,0,-1
341 20 m 1,12,-1
 303 -48 l 1,13,-1
 282 -70 l 1,14,-1
 243 -71 l 1,15,-1
 214 -43 l 1,16,-1
 220 -4 l 1,17,-1
 254 58 l 1,18,-1
 260 104 l 1,19,-1
 278 126 l 1,20,-1
 313 126 l 1,21,-1
 339 99 l 1,22,-1
 341 20 l 1,23,-1
 341 20 l 1,12,-1
EndSplineSet
EndChar

StartChar: perthousand
Encoding: 8240 8240 197
Width: 636
GlyphClass: 1
Flags: W
LayerCount: 2
Fore
SplineSet
347 642 m 1,0,-1
 333 627 l 1,1,-1
 327 574 l 1,2,-1
 307 534 l 1,3,-1
 295 459 l 1,4,-1
 271 412 l 1,5,-1
 265 358 l 1,6,-1
 220 271 l 1,7,-1
 208 176 l 1,8,-1
 151 21 l 1,9,-1
 133 2 l 1,10,-1
 112 1 l 1,11,-1
 84 40 l 1,12,-1
 134 195 l 1,13,-1
 180 303 l 1,14,-1
 190 385 l 1,15,-1
 223 453 l 1,16,-1
 240 539 l 1,17,-1
 266 593 l 1,18,-1
 272 647 l 1,19,-1
 317 723 l 1,20,-1
 338 723 l 1,21,-1
 346 670 l 1,22,-1
 347 642 l 1,23,-1
 347 642 l 1,0,-1
431 88 m 1,24,-1
 425 69 l 1,25,-1
 414 34 l 1,26,-1
 373 7 l 1,27,-1
 319 11 l 1,28,-1
 271 65 l 1,29,-1
 281 245 l 1,30,-1
 313 280 l 1,31,-1
 367 282 l 1,32,-1
 414 222 l 1,33,-1
 415 201 l 1,34,-1
 404 187 l 1,35,-1
 404 162 l 1,36,-1
 411 155 l 1,37,-1
 431 88 l 1,38,-1
 431 88 l 1,24,-1
595 137 m 1,39,-1
 591 137 l 1,40,-1
 591 118 l 1,41,-1
 592 91 l 1,42,-1
 565 37 l 1,43,-1
 551 22 l 1,44,-1
 512 22 l 1,45,-1
 471 63 l 1,46,-1
 486 242 l 1,47,-1
 499 277 l 1,48,-1
 527 278 l 1,49,-1
 528 243 l 1,50,-1
 509 149 l 1,51,-1
 524 103 l 1,52,-1
 536 82 l 1,53,-1
 557 83 l 1,54,-1
 570 123 l 1,55,-1
 576 158 l 1,56,-1
 583 165 l 1,57,-1
 562 183 l 1,58,-1
 561 243 l 1,59,-1
 554 250 l 1,60,-1
 567 251 l 1,61,-1
 594 226 l 1,62,-1
 595 137 l 1,63,-1
 595 137 l 1,39,-1
182 510 m 1,64,-1
 134 462 l 1,65,-1
 102 455 l 1,66,-1
 81 454 l 1,67,-1
 41 495 l 1,68,-1
 26 548 l 1,69,-1
 39 567 l 1,70,-1
 44 635 l 1,71,-1
 58 649 l 1,72,-1
 77 650 l 1,73,-1
 99 590 l 1,74,-1
 113 569 l 1,75,-1
 120 569 l 1,76,-1
 139 591 l 1,77,-1
 129 690 l 1,78,-1
 110 711 l 1,79,-1
 69 675 l 1,80,-1
 58 675 l 1,81,-1
 64 717 l 1,82,-1
 96 731 l 1,83,-1
 150 719 l 1,84,-1
 157 719 l 1,85,-1
 171 705 l 1,86,-1
 179 666 l 1,87,-1
 182 510 l 1,88,-1
 182 510 l 1,64,-1
EndSplineSet
EndChar

StartChar: Acircumflex
Encoding: 194 194 198
Width: 500
GlyphClass: 1
Flags: W
LayerCount: 2
Fore
SplineSet
486 54 m 1,0,-1
 466 23 l 1,1,-1
 448 6 l 1,2,-1
 394 6 l 1,3,-1
 358 67 l 1,4,-1
 349 123 l 1,5,-1
 323 144 l 1,6,-1
 277 143 l 1,7,-1
 262 154 l 1,8,-1
 182 141 l 1,9,-1
 151 114 l 1,10,-1
 139 52 l 1,11,-1
 126 30 l 1,12,-1
 87 5 l 1,13,-1
 55 9 l 1,14,-1
 26 34 l 1,15,-1
 32 80 l 1,16,-1
 45 97 l 1,17,-1
 57 149 l 1,18,-1
 80 205 l 1,19,-1
 86 241 l 1,20,-1
 112 294 l 1,21,-1
 115 335 l 1,22,-1
 152 487 l 1,23,-1
 175 564 l 1,24,-1
 209 590 l 1,25,-1
 287 588 l 1,26,-1
 316 551 l 1,27,-1
 317 537 l 1,28,-1
 329 526 l 1,29,-1
 330 485 l 1,30,-1
 352 463 l 1,31,-1
 367 413 l 1,32,-1
 383 346 l 1,33,-1
 395 332 l 1,34,-1
 404 264 l 1,35,-1
 419 245 l 1,36,-1
 427 198 l 1,37,-1
 442 182 l 1,38,-1
 443 157 l 1,39,-1
 462 141 l 1,40,-1
 463 95 l 1,41,-1
 486 54 l 1,42,-1
 486 54 l 1,0,-1
306 237 m 1,43,-1
 306 251 l 1,44,-1
 298 256 l 1,45,-1
 290 288 l 1,46,-1
 271 313 l 1,47,-1
 270 338 l 1,48,-1
 248 384 l 1,49,-1
 234 373 l 1,50,-1
 223 312 l 1,51,-1
 199 276 l 1,52,-1
 199 260 l 1,53,-1
 207 240 l 1,54,-1
 232 230 l 1,55,-1
 286 225 l 1,56,-1
 306 237 l 1,57,-1
 306 237 l 1,43,-1
363 664 m 1,58,-1
 359 649 l 1,59,-1
 331 633 l 1,60,-1
 302 643 l 1,61,-1
 273 662 l 1,62,-1
 256 679 l 1,63,-1
 231 678 l 1,64,-1
 194 657 l 1,65,-1
 160 637 l 1,66,-1
 140 644 l 1,67,-1
 136 660 l 1,68,-1
 139 683 l 1,69,-1
 152 700 l 1,70,-1
 206 735 l 1,71,-1
 230 748 l 1,72,-1
 273 745 l 1,73,-1
 299 729 l 1,74,-1
 323 715 l 1,75,-1
 354 689 l 1,76,-1
 363 664 l 1,77,-1
 363 664 l 1,58,-1
EndSplineSet
EndChar

StartChar: Ecircumflex
Encoding: 202 202 199
Width: 500
GlyphClass: 1
Flags: W
LayerCount: 2
Fore
SplineSet
422 48 m 1,0,-1
 418 28 l 1,1,-1
 391 5 l 1,2,-1
 140 1 l 1,3,-1
 112 27 l 1,4,-1
 103 283 l 1,5,-1
 112 444 l 1,6,-1
 109 527 l 1,7,-1
 122 558 l 1,8,-1
 133 575 l 1,9,-1
 166 592 l 1,10,-1
 259 582 l 1,11,-1
 340 585 l 1,12,-1
 359 559 l 1,13,-1
 379 560 l 1,14,-1
 380 544 l 1,15,-1
 360 532 l 1,16,-1
 215 519 l 1,17,-1
 201 509 l 1,18,-1
 198 410 l 1,19,-1
 199 378 l 1,20,-1
 214 347 l 1,21,-1
 228 337 l 1,22,-1
 348 335 l 1,23,-1
 374 308 l 1,24,-1
 362 272 l 1,25,-1
 337 260 l 1,26,-1
 210 254 l 1,27,-1
 197 221 l 1,28,-1
 213 154 l 1,29,-1
 207 123 l 1,30,-1
 209 80 l 1,31,-1
 223 71 l 1,32,-1
 329 79 l 1,33,-1
 374 79 l 1,34,-1
 403 69 l 1,35,-1
 422 48 l 1,36,-1
 422 48 l 1,0,-1
363 664 m 1,37,-1
 359 649 l 1,38,-1
 331 633 l 1,39,-1
 302 643 l 1,40,-1
 273 662 l 1,41,-1
 256 679 l 1,42,-1
 231 678 l 1,43,-1
 194 657 l 1,44,-1
 160 637 l 1,45,-1
 140 644 l 1,46,-1
 136 660 l 1,47,-1
 139 683 l 1,48,-1
 152 700 l 1,49,-1
 206 735 l 1,50,-1
 230 748 l 1,51,-1
 273 745 l 1,52,-1
 299 729 l 1,53,-1
 323 715 l 1,54,-1
 354 689 l 1,55,-1
 363 664 l 1,56,-1
 363 664 l 1,37,-1
EndSplineSet
EndChar

